M48
; DRILL file KiCad 10.0.4 date 2026-09-08T05:47:23
; FORMAT={-:-/ absolute / metric / decimal}
; #@! TF.CreationDate,2026-09-08T05:47:23+05:45
; #@! TF.GenerationSoftware,Kicad,Pcbnew,10.0.4
; #@! TF.FileFunction,Plated,1,4,PTH
FMAT,2
METRIC
; #@! TA.AperFunction,Plated,PTH,ViaDrill
T1C0.150
; #@! TA.AperFunction,Plated,PTH,ViaDrill
T2C0.200
%
G90
G05
T1
X-3.04Y-1.95
X-0.046Y-1.041
T2
X-11.35Y10.475
X-10.599Y0.759
X-10.556Y-3.498
X-10.5Y-7.5
X-10.5Y-10.5
X-10.5Y-13.5
X-10.455Y6.278
X-10.455Y0.136
X-10.362Y-4.081
X-9.81Y-0.873
X-9.74Y8.105
X-9.493Y9.172
X-9.338Y11.197
X-9.273Y7.63
X-9.256Y5.568
X-9.075Y-11.5
X-8.738Y6.321
X-8.685Y-5.507
X-8.562Y-0.882
X-8.55Y5.2
X-8.075Y-6.6
X-7.925Y-12.625
X-7.915Y0.21
X-7.725Y-13.2
X-7.523Y0.787
X-7.5Y-16.5
X-7.375Y-6.8
X-7.365Y6.397
X-7.3Y-11.15
X-7.227Y-8.068
X-6.85Y11.32
X-6.725Y-11.125
X-6.693Y-12.4
X-6.675Y-1.75
X-6.625Y-10.1
X-6.607Y-7.116
X-6.555Y7.857
X-6.5Y-10.725
X-6.475Y-8.675
X-6.425Y-8.075
X-6.105Y6.41
X-6.05Y-7.45
X-6.0Y-9.575
X-5.972Y-14.313
X-5.939Y-1.186
X-5.9Y0.875
X-5.875Y-8.025
X-5.843Y-0.572
X-5.82Y10.395
X-5.661Y-4.456
X-5.475Y-6.9
X-5.294Y5.482
X-5.25Y-4.9
X-5.225Y-2.825
X-5.132Y8.902
X-4.925Y-6.725
X-4.85Y-4.475
X-4.726Y-10.774
X-4.5Y-16.5
X-4.35Y11.23
X-4.308Y-4.015
X-4.2Y-19.0
X-4.159Y1.507
X-3.612Y-4.102
X-3.6Y2.928
X-3.425Y-13.825
X-3.26Y1.689
X-3.225Y-7.925
X-3.1Y-7.05
X-2.58Y1.972
X-2.5Y-3.721
X-2.475Y-11.625
X-2.15Y-8.95
X-2.15Y-10.35
X-1.806Y-3.627
X-1.791Y-11.854
X-1.639Y2.821
X-1.6Y-15.3
X-1.5Y10.5
X-1.5Y-19.5
X-1.39Y-4.41
X-1.277Y-6.593
X-1.217Y2.399
X-0.936Y-3.857
X-0.85Y-4.625
X-0.475Y-9.625
X-0.309Y-15.153
X-0.26Y2.98
X-0.237Y-11.902
X-0.235Y-5.2
X-0.175Y2.403
X0.001Y-3.044
X0.075Y-11.375
X0.35Y-9.725
X0.417Y2.418
X0.5Y-16.384
X0.586Y3.299
X0.97Y-5.7
X1.056Y-13.172
X1.094Y-8.472
X1.236Y-4.228
X1.25Y-6.8
X1.348Y2.409
X1.5Y10.5
X1.5Y-16.5
X1.8Y-19.0
X2.552Y2.034
X2.742Y4.839
X2.788Y-1.002
X2.925Y-2.325
X2.978Y-1.744
X2.98Y3.428
X3.089Y6.885
X3.095Y6.25
X3.095Y4.008
X3.099Y5.295
X3.143Y10.65
X3.146Y9.045
X3.55Y1.514
X3.679Y-2.195
X3.688Y-3.742
X3.856Y-20.044
X4.018Y-7.007
X4.112Y-1.809
X4.26Y-3.785
X4.5Y-13.5
X4.5Y-16.5
X4.5Y-19.5
X4.521Y11.267
X4.682Y-12.153
X5.025Y9.15
X5.195Y11.445
X5.299Y4.015
X5.311Y3.286
X5.45Y-3.788
X5.6Y-6.026
X5.601Y9.201
X5.69Y8.55
X5.875Y0.312
X5.875Y-1.722
X6.148Y6.073
X6.202Y11.525
X6.45Y1.371
X6.8Y-4.8
X6.8Y-8.1
X7.153Y-2.55
X7.223Y3.932
X7.288Y8.538
X7.34Y7.525
X7.5Y-16.5
X7.588Y5.95
X7.6Y-1.584
X7.622Y-4.82
X7.662Y11.208
X7.774Y-6.472
X7.847Y0.735
X8.146Y-7.184
X8.62Y-6.842
X8.7Y-5.8
X8.75Y3.079
X8.75Y-12.139
X9.297Y-1.003
X9.338Y11.197
X9.551Y0.158
X9.727Y1.466
X10.235Y4.112
X10.493Y-1.927
X10.5Y-10.5
X10.5Y-13.5
X10.545Y-4.74
X10.7Y-6.925
X10.999Y7.14
X11.048Y8.203
X11.127Y9.636
X11.143Y9.04
M30
