0
SECTION
2
HEADER
9
$ACADVER
1
AC1015
9
$INSUNITS
70
4
9
$MEASUREMENT
70
1
0
ENDSEC
0
SECTION
2
ENTITIES
0
LWPOLYLINE
100
AcDbEntity
8
CUT_PROFILE
100
AcDbPolyline
90
71
70
1
10
0.000000
20
1.285210
10
0.811369
20
0.943581
10
0.810300
20
0.900001
10
0.811383
20
0.855840
10
0.814633
20
0.811785
10
0.820041
20
0.767943
10
0.827593
20
0.724420
10
0.837272
20
0.681318
10
0.849053
20
0.638744
10
0.862909
20
0.596800
10
0.878808
20
0.555586
10
0.896709
20
0.515202
10
0.916571
20
0.475743
10
0.938344
20
0.437308
10
0.961977
20
0.399987
10
0.987412
20
0.363871
10
1.014590
20
0.329046
10
1.043444
20
0.295597
10
1.073903
20
0.263605
10
1.105896
20
0.233145
10
1.139345
20
0.204291
10
1.174170
20
0.177114
10
1.210286
20
0.151678
10
1.247607
20
0.128045
10
1.286042
20
0.106272
10
1.325500
20
0.086411
10
1.365885
20
0.068509
10
1.407099
20
0.052610
10
1.449043
20
0.038754
10
1.491617
20
0.026973
10
1.534719
20
0.017294
10
1.578242
20
0.009742
10
1.622084
20
0.004334
10
1.666139
20
0.001085
10
1.710299
20
0.000000
10
1.754460
20
0.001085
10
1.798515
20
0.004334
10
1.842357
20
0.009742
10
1.885880
20
0.017294
10
1.928982
20
0.026973
10
1.971556
20
0.038754
10
2.013500
20
0.052610
10
2.054714
20
0.068509
10
2.095099
20
0.086411
10
2.134557
20
0.106272
10
2.172992
20
0.128045
10
2.210313
20
0.151678
10
2.246428
20
0.177114
10
2.281254
20
0.204291
10
2.314703
20
0.233145
10
2.346696
20
0.263605
10
2.369479
20
0.287535
10
2.949234
20
0.043427
10
4.136977
20
2.864318
10
8.074617
20
2.864318
10
8.074617
20
3.864318
10
12.174617
20
3.864318
10
12.174617
20
5.064318
10
11.974618
20
5.064318
10
11.974618
20
12.864318
10
10.774617
20
12.864318
10
10.774617
20
5.064318
10
8.074617
20
5.064318
10
8.074617
20
6.064318
10
5.374617
20
6.064318
10
5.374617
20
12.864318
10
4.174617
20
12.864318
10
4.174617
20
6.064318
10
3.074617
20
6.064318
10
3.074617
20
4.464318
10
1.600000
20
5.085210
0
ENDSEC
0
EOF
