%TF.GenerationSoftware,KiCad,Pcbnew,10.0.4*%
%TF.CreationDate,2026-09-08T05:47:22+05:45*%
%TF.ProjectId,aura-a03,61757261-2d61-4303-932e-6b696361645f,rev?*%
%TF.SameCoordinates,Original*%
%TF.FileFunction,Legend,Top*%
%TF.FilePolarity,Positive*%
%FSLAX46Y46*%
G04 Gerber Fmt 4.6, Leading zero omitted, Abs format (unit mm)*
G04 Created by KiCad (PCBNEW 10.0.4) date 2026-09-08 05:47:22*
%MOMM*%
%LPD*%
G01*
G04 APERTURE LIST*
G04 Aperture macros list*
%AMFreePoly0*
4,1,64,0.235856,1.440014,0.383010,1.379061,0.515445,1.290571,0.628071,1.177945,0.716561,1.045510,0.777514,0.898356,0.808588,0.742139,0.808588,0.582861,0.777514,0.426644,0.716561,0.279490,0.628071,0.147055,0.515445,0.034429,0.383010,-0.054061,0.235856,-0.115014,0.079639,-0.146088,0.031751,-0.146088,0.029264,-0.147118,-0.029264,-0.147118,-0.031751,-0.146088,-0.079639,-0.146088,
-0.235856,-0.115014,-0.383010,-0.054061,-0.515445,0.034429,-0.628071,0.147055,-0.716561,0.279490,-0.777514,0.426644,-0.808588,0.582861,-0.808588,0.729972,-0.512500,0.729972,-0.512500,0.595028,-0.477574,0.464683,-0.410102,0.347818,-0.314682,0.252398,-0.197817,0.184926,-0.067472,0.150000,0.067472,0.150000,0.197817,0.184926,0.314682,0.252398,0.410102,0.347818,0.477574,0.464683,
0.512500,0.595028,0.512500,0.729972,0.477574,0.860317,0.410102,0.977182,0.314682,1.072602,0.197817,1.140074,0.067472,1.175000,-0.067472,1.175000,-0.197817,1.140074,-0.314682,1.072602,-0.410102,0.977182,-0.477574,0.860317,-0.512500,0.729972,-0.808588,0.729972,-0.808588,0.742139,-0.777514,0.898356,-0.716561,1.045510,-0.628071,1.177945,-0.515445,1.290571,-0.383010,1.379061,
-0.235856,1.440014,-0.079639,1.471088,0.079639,1.471088,0.235856,1.440014,0.235856,1.440014,$1*%
G04 Aperture macros list end*
%ADD10C,0.150000*%
%ADD11R,0.900000X0.950000*%
%ADD12R,1.600000X1.000000*%
%ADD13R,1.250000X0.350000*%
%ADD14R,0.500000X0.650000*%
%ADD15R,4.300000X3.400000*%
%ADD16R,0.640000X0.540000*%
%ADD17R,0.250000X0.775000*%
%ADD18R,1.200000X0.800000*%
%ADD19R,0.540000X0.640000*%
%ADD20R,0.950000X0.875000*%
%ADD21R,1.475000X0.600000*%
%ADD22R,0.560000X0.620000*%
%ADD23R,0.950000X0.900000*%
%ADD24R,0.600000X0.400000*%
%ADD25R,0.400000X0.600000*%
%ADD26R,0.620000X0.560000*%
%ADD27R,0.750000X0.200000*%
%ADD28R,0.900000X1.500000*%
%ADD29R,1.450000X1.000000*%
%ADD30C,0.500000*%
%ADD31R,0.725000X0.522000*%
%ADD32FreePoly0,0.000000*%
%ADD33R,0.600000X0.450000*%
%ADD34R,0.600000X1.325000*%
%ADD35R,1.325000X0.600000*%
%ADD36R,0.900000X1.000000*%
%ADD37R,0.350000X1.500000*%
G04 APERTURE END LIST*
D10*
X-3428572Y17545181D02*
X-3428572Y18545181D01*
X-3428572Y18545181D02*
X-2857144Y17545181D01*
X-2857144Y17545181D02*
X-2857144Y18545181D01*
X-2190477Y18545181D02*
X-2000001Y18545181D01*
X-2000001Y18545181D02*
X-1904763Y18497562D01*
X-1904763Y18497562D02*
X-1809525Y18402324D01*
X-1809525Y18402324D02*
X-1761906Y18211848D01*
X-1761906Y18211848D02*
X-1761906Y17878515D01*
X-1761906Y17878515D02*
X-1809525Y17688039D01*
X-1809525Y17688039D02*
X-1904763Y17592800D01*
X-1904763Y17592800D02*
X-2000001Y17545181D01*
X-2000001Y17545181D02*
X-2190477Y17545181D01*
X-2190477Y17545181D02*
X-2285715Y17592800D01*
X-2285715Y17592800D02*
X-2380953Y17688039D01*
X-2380953Y17688039D02*
X-2428572Y17878515D01*
X-2428572Y17878515D02*
X-2428572Y18211848D01*
X-2428572Y18211848D02*
X-2380953Y18402324D01*
X-2380953Y18402324D02*
X-2285715Y18497562D01*
X-2285715Y18497562D02*
X-2190477Y18545181D01*
X-571429Y17545181D02*
X-571429Y18545181D01*
X-571429Y18545181D02*
X-238096Y17830896D01*
X-238096Y17830896D02*
X95237Y18545181D01*
X95237Y18545181D02*
X95237Y17545181D01*
X571428Y18068991D02*
X904761Y18068991D01*
X1047618Y17545181D02*
X571428Y17545181D01*
X571428Y17545181D02*
X571428Y18545181D01*
X571428Y18545181D02*
X1047618Y18545181D01*
X1333333Y18545181D02*
X1904761Y18545181D01*
X1619047Y17545181D02*
X1619047Y18545181D01*
X2190476Y17830896D02*
X2666666Y17830896D01*
X2095238Y17545181D02*
X2428571Y18545181D01*
X2428571Y18545181D02*
X2761904Y17545181D01*
X3571428Y17545181D02*
X3095238Y17545181D01*
X3095238Y17545181D02*
X3095238Y18545181D01*
X-4214286Y-19969104D02*
X-3738096Y-19969104D01*
X-4309524Y-20254819D02*
X-3976191Y-19254819D01*
X-3976191Y-19254819D02*
X-3642858Y-20254819D01*
X-3309524Y-19254819D02*
X-3309524Y-20064342D01*
X-3309524Y-20064342D02*
X-3261905Y-20159580D01*
X-3261905Y-20159580D02*
X-3214286Y-20207200D01*
X-3214286Y-20207200D02*
X-3119048Y-20254819D01*
X-3119048Y-20254819D02*
X-2928572Y-20254819D01*
X-2928572Y-20254819D02*
X-2833334Y-20207200D01*
X-2833334Y-20207200D02*
X-2785715Y-20159580D01*
X-2785715Y-20159580D02*
X-2738096Y-20064342D01*
X-2738096Y-20064342D02*
X-2738096Y-19254819D01*
X-1690477Y-20254819D02*
X-2023810Y-19778628D01*
X-2261905Y-20254819D02*
X-2261905Y-19254819D01*
X-2261905Y-19254819D02*
X-1880953Y-19254819D01*
X-1880953Y-19254819D02*
X-1785715Y-19302438D01*
X-1785715Y-19302438D02*
X-1738096Y-19350057D01*
X-1738096Y-19350057D02*
X-1690477Y-19445295D01*
X-1690477Y-19445295D02*
X-1690477Y-19588152D01*
X-1690477Y-19588152D02*
X-1738096Y-19683390D01*
X-1738096Y-19683390D02*
X-1785715Y-19731009D01*
X-1785715Y-19731009D02*
X-1880953Y-19778628D01*
X-1880953Y-19778628D02*
X-2261905Y-19778628D01*
X-1309524Y-19969104D02*
X-833334Y-19969104D01*
X-1404762Y-20254819D02*
X-1071429Y-19254819D01*
X-1071429Y-19254819D02*
X-738096Y-20254819D01*
X500000Y-19826247D02*
X452381Y-19873866D01*
X452381Y-19873866D02*
X500000Y-19921485D01*
X500000Y-19921485D02*
X547619Y-19873866D01*
X547619Y-19873866D02*
X500000Y-19826247D01*
X500000Y-19826247D02*
X500000Y-19921485D01*
X1833334Y-19969104D02*
X2309524Y-19969104D01*
X1738096Y-20254819D02*
X2071429Y-19254819D01*
X2071429Y-19254819D02*
X2404762Y-20254819D01*
X2928572Y-19254819D02*
X3023810Y-19254819D01*
X3023810Y-19254819D02*
X3119048Y-19302438D01*
X3119048Y-19302438D02*
X3166667Y-19350057D01*
X3166667Y-19350057D02*
X3214286Y-19445295D01*
X3214286Y-19445295D02*
X3261905Y-19635771D01*
X3261905Y-19635771D02*
X3261905Y-19873866D01*
X3261905Y-19873866D02*
X3214286Y-20064342D01*
X3214286Y-20064342D02*
X3166667Y-20159580D01*
X3166667Y-20159580D02*
X3119048Y-20207200D01*
X3119048Y-20207200D02*
X3023810Y-20254819D01*
X3023810Y-20254819D02*
X2928572Y-20254819D01*
X2928572Y-20254819D02*
X2833334Y-20207200D01*
X2833334Y-20207200D02*
X2785715Y-20159580D01*
X2785715Y-20159580D02*
X2738096Y-20064342D01*
X2738096Y-20064342D02*
X2690477Y-19873866D01*
X2690477Y-19873866D02*
X2690477Y-19635771D01*
X2690477Y-19635771D02*
X2738096Y-19445295D01*
X2738096Y-19445295D02*
X2785715Y-19350057D01*
X2785715Y-19350057D02*
X2833334Y-19302438D01*
X2833334Y-19302438D02*
X2928572Y-19254819D01*
X3595239Y-19254819D02*
X4214286Y-19254819D01*
X4214286Y-19254819D02*
X3880953Y-19635771D01*
X3880953Y-19635771D02*
X4023810Y-19635771D01*
X4023810Y-19635771D02*
X4119048Y-19683390D01*
X4119048Y-19683390D02*
X4166667Y-19731009D01*
X4166667Y-19731009D02*
X4214286Y-19826247D01*
X4214286Y-19826247D02*
X4214286Y-20064342D01*
X4214286Y-20064342D02*
X4166667Y-20159580D01*
X4166667Y-20159580D02*
X4119048Y-20207200D01*
X4119048Y-20207200D02*
X4023810Y-20254819D01*
X4023810Y-20254819D02*
X3738096Y-20254819D01*
X3738096Y-20254819D02*
X3642858Y-20207200D01*
X3642858Y-20207200D02*
X3595239Y-20159580D01*
%LPC*%
D11*
%TO.C,C10*%
X1675000Y-10550000D03*
X125000Y-10550000D03*
%TD*%
D12*
%TO.C,SW1*%
X8300000Y-2700000D03*
X8300000Y-200000D03*
X8300000Y2300000D03*
X10700000Y-2700000D03*
X10700000Y-200000D03*
X10700000Y2300000D03*
%TD*%
D13*
%TO.C,U8*%
X6800000Y-5300000D03*
X6800000Y-5800000D03*
X6800000Y-6300000D03*
X6800000Y-6800000D03*
X9600000Y-6800000D03*
X9600000Y-6300000D03*
X9600000Y-5800000D03*
X9600000Y-5300000D03*
%TD*%
D14*
%TO.C,U2*%
X-10455000Y-550000D03*
X-9185000Y-550000D03*
X-7915000Y-550000D03*
X-6645000Y-550000D03*
X-6645000Y6950000D03*
X-7915000Y6950000D03*
X-9185000Y6950000D03*
X-10455000Y6950000D03*
D15*
X-8550000Y3200000D03*
%TD*%
D16*
%TO.C,R2*%
X-6050000Y-6560000D03*
X-6050000Y-5540000D03*
%TD*%
D17*
%TO.C,U5*%
X950000Y-2287500D03*
X1450000Y-2287500D03*
X1950000Y-2287500D03*
X2450000Y-2287500D03*
X2450000Y-312500D03*
X1950000Y-312500D03*
X1450000Y-312500D03*
X950000Y-312500D03*
D18*
X1700000Y-1300000D03*
%TD*%
D19*
%TO.C,R9*%
X6710000Y7950000D03*
X5690000Y7950000D03*
%TD*%
D20*
%TO.C,LED1*%
X0Y-1787500D03*
X0Y-212500D03*
%TD*%
D21*
%TO.C,Q1*%
X-3612500Y-4750000D03*
X-3612500Y-2850000D03*
X-5487500Y-3800000D03*
%TD*%
D22*
%TO.C,C5*%
X-11280000Y7950000D03*
X-10320000Y7950000D03*
%TD*%
%TO.C,C11*%
X1930000Y-3300000D03*
X970000Y-3300000D03*
%TD*%
D19*
%TO.C,R8*%
X-3040000Y-300000D03*
X-4060000Y-300000D03*
%TD*%
D16*
%TO.C,R1*%
X-3550000Y-6560000D03*
X-3550000Y-5540000D03*
%TD*%
%TO.C,R13*%
X10450000Y7690000D03*
X10450000Y8710000D03*
%TD*%
%TO.C,R15*%
X10450000Y10460000D03*
X10450000Y9440000D03*
%TD*%
D19*
%TO.C,R7*%
X-3040000Y-1400000D03*
X-4060000Y-1400000D03*
%TD*%
D16*
%TO.C,R22*%
X-8500000Y-13910000D03*
X-8500000Y-12890000D03*
%TD*%
%TO.C,R11*%
X-7800000Y-4310000D03*
X-7800000Y-3290000D03*
%TD*%
D23*
%TO.C,C12*%
X6700000Y-1575000D03*
X6700000Y-25000D03*
%TD*%
D24*
%TO.C,U1*%
X-4650000Y11750000D03*
X-4650000Y10650000D03*
X-4650000Y9850000D03*
X-4650000Y8250000D03*
X-3750000Y7850000D03*
X-4650000Y7450000D03*
X-3750000Y7050000D03*
X-4650000Y6650000D03*
X-3750000Y6250000D03*
X-4650000Y5850000D03*
X-3750000Y5450000D03*
X-4650000Y5050000D03*
X-3750000Y4650000D03*
X-4650000Y4250000D03*
D25*
X-4800000Y850000D03*
X-4000000Y850000D03*
X-3200000Y850000D03*
X-2400000Y850000D03*
X-2000000Y1750000D03*
X-1600000Y850000D03*
X-1200000Y1750000D03*
X-800000Y850000D03*
X-400000Y1750000D03*
X0Y850000D03*
X400000Y1750000D03*
X800000Y850000D03*
X1200000Y1750000D03*
X1600000Y850000D03*
X2000000Y1750000D03*
X2400000Y850000D03*
X3200000Y850000D03*
X4000000Y850000D03*
X4800000Y850000D03*
D24*
X4650000Y1850000D03*
X4650000Y2650000D03*
X3750000Y3050000D03*
X4650000Y3450000D03*
X3750000Y3850000D03*
X4650000Y4250000D03*
X3750000Y4650000D03*
X4650000Y5050000D03*
X3750000Y5450000D03*
X3750000Y6250000D03*
X4650000Y6650000D03*
X3750000Y7050000D03*
X4650000Y7450000D03*
X3750000Y7850000D03*
X4650000Y8250000D03*
X3750000Y8650000D03*
X3750000Y9450000D03*
X4650000Y9850000D03*
X3750000Y10250000D03*
X4650000Y10650000D03*
X3750000Y11050000D03*
X4650000Y11750000D03*
D25*
X-2000000Y7450000D03*
X-1200000Y7450000D03*
X-400000Y7450000D03*
X400000Y7450000D03*
X1200000Y7450000D03*
X2000000Y7450000D03*
%TD*%
D23*
%TO.C,C6*%
X-10550000Y8925000D03*
X-10550000Y10475000D03*
%TD*%
D19*
%TO.C,R18*%
X-8790000Y-2550000D03*
X-9810000Y-2550000D03*
%TD*%
D26*
%TO.C,C1*%
X-1050000Y-1280000D03*
X-1050000Y-320000D03*
%TD*%
D23*
%TO.C,C2*%
X-2050000Y-2075000D03*
X-2050000Y-525000D03*
%TD*%
D16*
%TO.C,R21*%
X-8050000Y-6060000D03*
X-8050000Y-5040000D03*
%TD*%
D23*
%TO.C,C7*%
X-1300000Y-9075000D03*
X-1300000Y-10625000D03*
%TD*%
D27*
%TO.C,U3*%
X-5150000Y-8750000D03*
X-5150000Y-9150000D03*
X-5150000Y-9550000D03*
X-5150000Y-9950000D03*
X-5150000Y-10350000D03*
X-2950000Y-10350000D03*
X-2950000Y-9950000D03*
X-2950000Y-9550000D03*
X-2950000Y-9150000D03*
X-2950000Y-8750000D03*
D28*
X-4050000Y-9550000D03*
%TD*%
D16*
%TO.C,R14*%
X-7050000Y-6060000D03*
X-7050000Y-5040000D03*
%TD*%
D29*
%TO.C,C9*%
X-4800000Y-7750000D03*
X-4800000Y-5850000D03*
%TD*%
D16*
%TO.C,R19*%
X-10800000Y-1790000D03*
X-10800000Y-2810000D03*
%TD*%
%TO.C,R23*%
X-8500000Y-10990000D03*
X-8500000Y-12010000D03*
%TD*%
D11*
%TO.C,C13*%
X3175000Y-6300000D03*
X4725000Y-6300000D03*
%TD*%
D19*
%TO.C,R20*%
X-8790000Y-3550000D03*
X-9810000Y-3550000D03*
%TD*%
D26*
%TO.C,C18*%
X-2050000Y-12820000D03*
X-2050000Y-13780000D03*
%TD*%
D30*
%TO.C,MK1*%
X-8500000Y8500000D03*
D31*
X-9337500Y10574000D03*
X-9337500Y9752000D03*
D32*
X-8500000Y7837500D03*
D31*
X-7662500Y9752000D03*
X-7662500Y10574000D03*
%TD*%
D16*
%TO.C,R4*%
X-6800000Y-2290000D03*
X-6800000Y-3310000D03*
%TD*%
D22*
%TO.C,C17*%
X-6030000Y-1800000D03*
X-5070000Y-1800000D03*
%TD*%
D33*
%TO.C,D2*%
X500000Y-15800000D03*
X-1600000Y-15800000D03*
%TD*%
D26*
%TO.C,C16*%
X10700000Y-6280000D03*
X10700000Y-5320000D03*
%TD*%
D16*
%TO.C,R3*%
X-5050000Y-290000D03*
X-5050000Y-1310000D03*
%TD*%
D30*
%TO.C,MK2*%
X8500000Y8500000D03*
D31*
X7662500Y10574000D03*
X7662500Y9752000D03*
D32*
X8500000Y7837500D03*
D31*
X9337500Y9752000D03*
X9337500Y10574000D03*
%TD*%
D19*
%TO.C,R10*%
X6710000Y10950000D03*
X5690000Y10950000D03*
%TD*%
D23*
%TO.C,C8*%
X-8000000Y-9825000D03*
X-8000000Y-8275000D03*
%TD*%
%TO.C,C14*%
X9950000Y6725000D03*
X9950000Y5175000D03*
%TD*%
D16*
%TO.C,R5*%
X-7800000Y-2560000D03*
X-7800000Y-1540000D03*
%TD*%
D19*
%TO.C,R17*%
X-8790000Y-1550000D03*
X-9810000Y-1550000D03*
%TD*%
D33*
%TO.C,D1*%
X-250000Y-9050000D03*
X1850000Y-9050000D03*
%TD*%
D34*
%TO.C,U4*%
X-1000000Y-14187500D03*
X-50000Y-14187500D03*
X900000Y-14187500D03*
X900000Y-11912500D03*
X-1000000Y-11912500D03*
%TD*%
D35*
%TO.C,U9*%
X-5687500Y-11350000D03*
X-5687500Y-12300000D03*
X-5687500Y-13250000D03*
X-3412500Y-13250000D03*
X-3412500Y-12300000D03*
X-3412500Y-11350000D03*
%TD*%
D16*
%TO.C,R6*%
X-5800000Y8960000D03*
X-5800000Y7940000D03*
%TD*%
D19*
%TO.C,R16*%
X-2310000Y-3050000D03*
X-1290000Y-3050000D03*
%TD*%
D23*
%TO.C,C15*%
X6450000Y2175000D03*
X6450000Y3725000D03*
%TD*%
D36*
%TO.C,SW2*%
X-2050000Y-5200000D03*
X2050000Y-5200000D03*
X-2050000Y-6800000D03*
X2050000Y-6800000D03*
%TD*%
D37*
%TO.C,U6*%
X3450000Y-4900000D03*
X3950000Y-4900000D03*
X4450000Y-4900000D03*
X4950000Y-4900000D03*
X5450000Y-4900000D03*
X5450000Y-700000D03*
X4950000Y-700000D03*
X4450000Y-700000D03*
X3950000Y-700000D03*
X3450000Y-700000D03*
%TD*%
D24*
%TO.C,C3*%
X-6550000Y10100000D03*
X-6550000Y10800000D03*
%TD*%
%TO.C,C4*%
X6450000Y9350000D03*
X6450000Y10050000D03*
%TD*%
D35*
%TO.C,U7*%
X8587500Y5000000D03*
X8587500Y5950000D03*
X8587500Y6900000D03*
X6312500Y6900000D03*
X6312500Y5000000D03*
%TD*%
%LPD*%
M02*
