%TF.GenerationSoftware,KiCad,Pcbnew,10.0.4*%
%TF.CreationDate,2026-09-08T05:47:22+05:45*%
%TF.ProjectId,aura-a03,61757261-2d61-4303-932e-6b696361645f,rev?*%
%TF.SameCoordinates,Original*%
%TF.FileFunction,Copper,L2,Inr*%
%TF.FilePolarity,Positive*%
%FSLAX46Y46*%
G04 Gerber Fmt 4.6, Leading zero omitted, Abs format (unit mm)*
G04 Created by KiCad (PCBNEW 10.0.4) date 2026-09-08 05:47:22*
%MOMM*%
%LPD*%
G01*
G04 APERTURE LIST*
%TA.AperFunction,ViaPad*%
%ADD10C,0.450000*%
%TD*%
%TA.AperFunction,ViaPad*%
%ADD11C,0.350000*%
%TD*%
%TA.AperFunction,Conductor*%
%ADD12C,0.150000*%
%TD*%
%TA.AperFunction,Conductor*%
%ADD13C,0.100000*%
%TD*%
G04 APERTURE END LIST*
D10*
%TO.N,V3*%
X9727400Y1466500D03*
X2552300Y2034500D03*
X500Y-3043800D03*
X-5293900Y5481900D03*
X75000Y-11375000D03*
X-10455000Y6277700D03*
X350000Y-9725000D03*
X-10555700Y-3497800D03*
X11048200Y8202800D03*
X-7523300Y787300D03*
%TO.N,GND*%
X-237000Y-11902000D03*
X-5842800Y-572100D03*
X10500000Y-10500000D03*
X1500000Y-16500000D03*
X-4350000Y11230000D03*
X-1277000Y-6593000D03*
X-4308000Y-4015000D03*
X6800000Y-8100000D03*
X-2500000Y-3721000D03*
X4018000Y-7007000D03*
X-3600000Y2928000D03*
X-8550000Y5200000D03*
X7288000Y8538000D03*
X-6693000Y-12400000D03*
X5601000Y9201000D03*
X-1500000Y10500000D03*
X-1500000Y-19500000D03*
X4500000Y-19500000D03*
D11*
X-46400Y-1041500D03*
D10*
X-9273000Y7630000D03*
X7223000Y3932000D03*
X-7500000Y-16500000D03*
X-4200000Y-19000000D03*
X970000Y-5700000D03*
X5195000Y11445000D03*
X10500000Y-13500000D03*
X5600000Y-6026000D03*
X10545000Y-4740000D03*
X-1600000Y-15300000D03*
X-5972000Y-14313000D03*
X-11350000Y10475000D03*
X7588000Y5950000D03*
X-10500000Y-10500000D03*
X-10500000Y-13500000D03*
X-1791000Y-11854000D03*
X1250000Y-6800000D03*
X1500000Y10500000D03*
X7500000Y-16500000D03*
X-9740000Y8105000D03*
X-10500000Y-7500000D03*
X-6850000Y11320000D03*
X-4500000Y-16500000D03*
X4500000Y-13500000D03*
X8700000Y-5800000D03*
X10493000Y-1927000D03*
X11143000Y9040000D03*
X4500000Y-16500000D03*
X4521000Y11267000D03*
X10235000Y4112000D03*
X-4726000Y-10774000D03*
X-7227000Y-8068000D03*
X6800000Y-4800000D03*
X-309000Y-15153000D03*
X7600000Y-1584000D03*
X5690000Y8550000D03*
X-9493000Y9172000D03*
X1800000Y-19000000D03*
X2978000Y-1744000D03*
X8750000Y3079000D03*
%TO.N,MIC_SUPPLY*%
X7153300Y-2550000D03*
X6450000Y1370700D03*
%TO.N,MIC_VDD*%
X9296700Y-1002900D03*
X-5820000Y10394600D03*
X9337500Y11197100D03*
X-6606900Y-7116000D03*
X10700000Y-6924700D03*
X5025000Y9150000D03*
%TO.N,PRIVACY_N*%
X417000Y2418000D03*
X9550800Y158300D03*
X10999500Y7140500D03*
%TO.N,PDM_CLK_MCU*%
X7621700Y-4820000D03*
X-1638700Y2821200D03*
%TO.N,PDM_DATA_MCU*%
X7774500Y-6471600D03*
X-1217000Y2399100D03*
%TO.N,PDM_DATA_MIC*%
X-9337500Y11197100D03*
X8620400Y-6842100D03*
X7662500Y11208000D03*
%TO.N,PDM_CLK_BUF*%
X8145500Y-7183900D03*
X-1805800Y-3627400D03*
%TO.N,SPI_CS_N*%
X5298900Y4015000D03*
X-10455000Y136300D03*
%TO.N,SPI_MISO*%
X-9256200Y5567900D03*
X5311100Y3285600D03*
%TO.N,FLASH_WP_N*%
X-7915000Y210500D03*
X-10598800Y758800D03*
%TO.N,SPI_MOSI*%
X2980200Y3428000D03*
X-6104600Y6409600D03*
%TO.N,SPI_SCK*%
X-9810000Y-873300D03*
X-7364900Y6396700D03*
%TO.N,FLASH_HOLD_N*%
X-8738300Y6320900D03*
X-10361600Y-4081100D03*
%TO.N,CHG_VSET*%
X-5475000Y-6900000D03*
X-2150000Y-10350000D03*
%TO.N,VBAT*%
X-6475000Y-8675000D03*
X1235900Y-4228400D03*
X-6725000Y-11125000D03*
X-6500000Y-10725000D03*
%TO.N,GAUGE_ALERT_N*%
X2787500Y-1001800D03*
X3098500Y5295200D03*
%TO.N,I2C_SCL*%
X-5132500Y8901600D03*
X-4159000Y1507300D03*
X586400Y3299300D03*
X3688300Y-3742100D03*
%TO.N,I2C_SDA*%
X2925000Y-2325000D03*
X-850000Y-4625000D03*
D11*
X-3040000Y-1950000D03*
D10*
X4260100Y-3785000D03*
X-2580300Y1972400D03*
%TO.N,RECORD_EN*%
X7339900Y7524900D03*
X-259900Y2980000D03*
%TO.N,LED_RECORD_A*%
X-3260200Y1689300D03*
X-8685200Y-5506700D03*
%TO.N,CHG_ALLOW*%
X-5900400Y875400D03*
X-3612500Y-4101700D03*
X3088700Y6885400D03*
%TO.N,TEMP_ALLOW_SINK*%
X-2475000Y-11625000D03*
X-1390500Y-4410000D03*
%TO.N,CHG_DISABLE*%
X-6625000Y-10100000D03*
X-6425000Y-8075000D03*
X-7375000Y-6800000D03*
X-4850000Y-4475000D03*
X-5875000Y-8025000D03*
%TO.N,DOCK_5V*%
X1093800Y-8472100D03*
X500000Y-16384200D03*
X3855900Y-20044000D03*
%TO.N,CHG_ISET*%
X-475000Y-9625000D03*
X-3100000Y-7050000D03*
%TO.N,TS_MON*%
X-7725000Y-13200000D03*
X-3425000Y-13825000D03*
%TO.N,BAT_NTC*%
X-9075000Y-11500000D03*
X-7925000Y-12625000D03*
%TO.N,RECORD_N*%
X-5661400Y-4455800D03*
X-5939500Y-1186100D03*
X-235000Y-5200000D03*
X-174600Y2403300D03*
%TO.N,VSYS*%
X-7300000Y-11150000D03*
X5875000Y-1722100D03*
X7846800Y735500D03*
X-6050000Y-7450000D03*
X3679000Y-2194600D03*
X1056500Y-13171800D03*
%TO.N,SPI_SCK_MCU*%
X-8561900Y-882000D03*
X3095500Y4007800D03*
%TO.N,RESET_N*%
X2742200Y4838700D03*
X-8075000Y-6600000D03*
%TO.N,HAPTIC_EN*%
X5450000Y-3788200D03*
X6148300Y6072800D03*
X6202300Y11524800D03*
%TO.N,CHG_STAT1*%
X-2150000Y-8950000D03*
X3095300Y6250000D03*
X-6675000Y-1750000D03*
X-3225000Y-7925000D03*
%TO.N,CHG_STAT2*%
X-5225000Y-2825000D03*
X-5250000Y-4900000D03*
X-6000000Y-9575000D03*
X-4925000Y-6725000D03*
%TO.N,SWDIO*%
X3145800Y9045200D03*
X3549800Y1514400D03*
%TO.N,SWDCLK*%
X3142500Y10650000D03*
X1348400Y2408700D03*
%TO.N,PDM_CLK_MIC*%
X11127500Y9635900D03*
X-6555400Y7857400D03*
X-935900Y-3856800D03*
%TO.N,LRA_P*%
X8750000Y-12139500D03*
X5875000Y312500D03*
%TO.N,LRA_N*%
X4112400Y-1809100D03*
X4681900Y-12153300D03*
%TD*%
%TO.N,V3*%
D12*
X-8974800Y4690200D02*
X-7523300Y4690200D01*
X-7523300Y4690200D02*
X-6085600Y4690200D01*
X-10455000Y6277700D02*
X-10455000Y6170400D01*
X-6085600Y4690200D02*
X-5293900Y5481900D01*
X-7523300Y4690200D02*
X-7523300Y787300D01*
X-10455000Y6170400D02*
X-8974800Y4690200D01*
%TO.N,MIC_VDD*%
X1449200Y-3797400D02*
X5260400Y-7608600D01*
X-18100Y-5628800D02*
X388100Y-5222600D01*
X-5119700Y-5628800D02*
X-18100Y-5628800D01*
X5260400Y-7608600D02*
X10016100Y-7608600D01*
X388100Y-5222600D02*
X388100Y-4434100D01*
X1024800Y-3797400D02*
X1449200Y-3797400D01*
X10016100Y-7608600D02*
X10700000Y-6924700D01*
X388100Y-4434100D02*
X1024800Y-3797400D01*
X-6606900Y-7116000D02*
X-5119700Y-5628800D01*
%TO.N,PRIVACY_N*%
X9550800Y158300D02*
X8535700Y1173400D01*
X948700Y1886300D02*
X417000Y2418000D01*
X6947800Y1173400D02*
X6711400Y937000D01*
X6711400Y937000D02*
X2417100Y937000D01*
X8535700Y1173400D02*
X6947800Y1173400D01*
X2417100Y937000D02*
X1467800Y1886300D01*
X1467800Y1886300D02*
X948700Y1886300D01*
%TO.N,PDM_CLK_MCU*%
X7621700Y-4692600D02*
X7621700Y-4820000D01*
X-640100Y2188400D02*
X714800Y833500D01*
X714800Y833500D02*
X2095600Y833500D01*
X-1638700Y2821200D02*
X-1035600Y2821200D01*
X-1035600Y2821200D02*
X-640100Y2425700D01*
X2095600Y833500D02*
X7621700Y-4692600D01*
X-640100Y2425700D02*
X-640100Y2188400D01*
%TO.N,PDM_DATA_MCU*%
X5402800Y-6482100D02*
X1405900Y-2485200D01*
X1405900Y-2485200D02*
X-3066500Y-2485200D01*
X7774500Y-6471600D02*
X7764000Y-6482100D01*
X-4313800Y2399100D02*
X-1217000Y2399100D01*
X7764000Y-6482100D02*
X5402800Y-6482100D01*
X-3066500Y-2485200D02*
X-4935200Y-616500D01*
X-4935200Y1777700D02*
X-4313800Y2399100D01*
X-4935200Y-616500D02*
X-4935200Y1777700D01*
%TO.N,PDM_DATA_MIC*%
X-8677200Y9972900D02*
X6427400Y9972900D01*
X-9337500Y10633200D02*
X-8677200Y9972900D01*
X6427400Y9972900D02*
X7662500Y11208000D01*
X-9337500Y11197100D02*
X-9337500Y10633200D01*
%TO.N,PDM_CLK_BUF*%
X-228200Y-3413000D02*
X-174300Y-3466900D01*
X1842500Y-3466900D02*
X5559500Y-7183900D01*
X5559500Y-7183900D02*
X8145500Y-7183900D01*
X-1805800Y-3627400D02*
X-1591400Y-3413000D01*
X-174300Y-3466900D02*
X1842500Y-3466900D01*
X-1591400Y-3413000D02*
X-228200Y-3413000D01*
%TO.N,SPI_MISO*%
X6586700Y6271500D02*
X6586700Y4561200D01*
X-5491600Y7867600D02*
X4990600Y7867600D01*
X4990600Y7867600D02*
X6586700Y6271500D01*
X-8874300Y5567900D02*
X-7612400Y6829800D01*
X-7612400Y6829800D02*
X-6529400Y6829800D01*
X-6529400Y6829800D02*
X-5491600Y7867600D01*
X-9256200Y5567900D02*
X-8874300Y5567900D01*
X6586700Y4561200D02*
X5311100Y3285600D01*
%TO.N,FLASH_WP_N*%
X-7915000Y210500D02*
X-8463300Y758800D01*
X-8463300Y758800D02*
X-10598800Y758800D01*
%TO.N,SPI_MOSI*%
X3384700Y7595900D02*
X3844400Y7136200D01*
X3844400Y7136200D02*
X3844400Y4118000D01*
X3844400Y4118000D02*
X3154400Y3428000D01*
X-6104600Y6409600D02*
X-4918300Y7595900D01*
X-4918300Y7595900D02*
X3384700Y7595900D01*
X3154400Y3428000D02*
X2980200Y3428000D01*
%TO.N,VBAT*%
D13*
X-1950000Y-6225000D02*
X-1925000Y-6200000D01*
X-4200000Y-7250000D02*
X-4175000Y-7225000D01*
X-2475000Y-6450000D02*
X-2450000Y-6450000D01*
X-2275000Y-6375000D02*
X-2250000Y-6350000D01*
X-4475000Y-7375000D02*
X-4450000Y-7350000D01*
X-4150000Y-7225000D02*
X-4125000Y-7200000D01*
X-2050000Y-6275000D02*
X-2025000Y-6250000D01*
X-2750000Y-6575000D02*
X-2725000Y-6575000D01*
X-1550000Y-6050000D02*
X-1525000Y-6025000D01*
X-4575000Y-7425000D02*
X-4550000Y-7400000D01*
X-3900000Y-7100000D02*
X-3875000Y-7100000D01*
X-1450000Y-6000000D02*
X-1425000Y-5975000D01*
X-2250000Y-6350000D02*
X-2225000Y-6350000D01*
X-2525000Y-6475000D02*
X-2500000Y-6475000D01*
X-3975000Y-7150000D02*
X-3950000Y-7125000D01*
X-5675000Y-8400000D02*
X-5650000Y-8375000D01*
X-2350000Y-6400000D02*
X-2325000Y-6400000D01*
X-2100000Y-6300000D02*
X-2075000Y-6275000D01*
X-4350000Y-7300000D02*
X-4300000Y-7300000D01*
X-2650000Y-6550000D02*
X-2625000Y-6525000D01*
X-2225000Y-6350000D02*
X-2200000Y-6325000D01*
X-2025000Y-6250000D02*
X-2000000Y-6250000D01*
X-4500000Y-7375000D02*
X-4475000Y-7375000D01*
X50000Y-5875000D02*
X100000Y-5875000D01*
X-1875000Y-6175000D02*
X-1825000Y-6175000D01*
X-3950000Y-7125000D02*
X-3925000Y-7125000D01*
X-5650000Y-8375000D02*
X-5625000Y-8375000D01*
X-1975000Y-6225000D02*
X-1950000Y-6225000D01*
X-4225000Y-7250000D02*
X-4200000Y-7250000D01*
X-3825000Y-7075000D02*
X-3800000Y-7050000D01*
X-1700000Y-6100000D02*
X-1675000Y-6100000D01*
X-1650000Y-6075000D02*
X-1625000Y-6075000D01*
X-1475000Y-6000000D02*
X-1450000Y-6000000D01*
X-4675000Y-7450000D02*
X-4650000Y-7450000D01*
X-2800000Y-6600000D02*
X-2775000Y-6600000D01*
X-4650000Y-7450000D02*
X-4625000Y-7425000D01*
X-5625000Y-8375000D02*
X-4725000Y-7475000D01*
X-4725000Y-7475000D02*
X-4700000Y-7475000D01*
D12*
X1235900Y-4759100D02*
X1235900Y-4228400D01*
D13*
X-3250000Y-6650000D02*
X-2875000Y-6650000D01*
X-4175000Y-7225000D02*
X-4150000Y-7225000D01*
X100000Y-5875000D02*
X125000Y-5850000D01*
X-1725000Y-6125000D02*
X-1700000Y-6100000D01*
X-2825000Y-6625000D02*
X-2800000Y-6600000D01*
X-2850000Y-6625000D02*
X-2825000Y-6625000D01*
X150000Y-5850000D02*
X1225000Y-4775000D01*
X-3850000Y-7075000D02*
X-3825000Y-7075000D01*
X-1825000Y-6175000D02*
X-1800000Y-6150000D01*
X-2425000Y-6425000D02*
X-2375000Y-6425000D01*
X-1750000Y-6125000D02*
X-1725000Y-6125000D01*
X-4450000Y-7350000D02*
X-4425000Y-7350000D01*
X-4550000Y-7400000D02*
X-4525000Y-7400000D01*
X-3750000Y-7050000D02*
X-3725000Y-7025000D01*
X-2375000Y-6425000D02*
X-2350000Y-6400000D01*
X-2625000Y-6525000D02*
X-2600000Y-6525000D01*
X-1425000Y-5975000D02*
X-1400000Y-5975000D01*
X-5700000Y-8400000D02*
X-5675000Y-8400000D01*
X-1775000Y-6150000D02*
X-1750000Y-6125000D01*
X25000Y-5900000D02*
X50000Y-5875000D01*
X-2175000Y-6325000D02*
X-2150000Y-6300000D01*
X-4425000Y-7350000D02*
X-4400000Y-7325000D01*
X-4275000Y-7275000D02*
X-4250000Y-7275000D01*
X-2450000Y-6450000D02*
X-2425000Y-6425000D01*
X-2200000Y-6325000D02*
X-2175000Y-6325000D01*
X-1625000Y-6075000D02*
X-1600000Y-6050000D01*
X-2600000Y-6525000D02*
X-2575000Y-6500000D01*
X-1325000Y-5925000D02*
X-1275000Y-5925000D01*
X-1500000Y-6025000D02*
X-1475000Y-6000000D01*
X-4075000Y-7175000D02*
X-4025000Y-7175000D01*
X-4525000Y-7400000D02*
X-4500000Y-7375000D01*
X125000Y-5850000D02*
X150000Y-5850000D01*
X-2700000Y-6550000D02*
X-2650000Y-6550000D01*
X-3650000Y-7000000D02*
X-3350000Y-6700000D01*
X-3275000Y-6675000D02*
X-3250000Y-6650000D01*
X-4300000Y-7300000D02*
X-4275000Y-7275000D01*
X-1275000Y-5925000D02*
X-1250000Y-5900000D01*
X-1800000Y-6150000D02*
X-1775000Y-6150000D01*
X-2150000Y-6300000D02*
X-2100000Y-6300000D01*
X-6225000Y-8425000D02*
X-5725000Y-8425000D01*
X-4700000Y-7475000D02*
X-4675000Y-7450000D01*
X-4250000Y-7275000D02*
X-4225000Y-7250000D01*
X-4100000Y-7200000D02*
X-4075000Y-7175000D01*
X-4000000Y-7150000D02*
X-3975000Y-7150000D01*
X-3725000Y-7025000D02*
X-3700000Y-7025000D01*
X-4625000Y-7425000D02*
X-4575000Y-7425000D01*
X-2000000Y-6250000D02*
X-1975000Y-6225000D01*
X-3925000Y-7125000D02*
X-3900000Y-7100000D01*
X-4400000Y-7325000D02*
X-4375000Y-7325000D01*
X-2575000Y-6500000D02*
X-2550000Y-6500000D01*
X-3875000Y-7100000D02*
X-3850000Y-7075000D01*
X-2075000Y-6275000D02*
X-2050000Y-6275000D01*
X-2775000Y-6600000D02*
X-2750000Y-6575000D01*
X-1350000Y-5950000D02*
X-1325000Y-5925000D01*
X-3800000Y-7050000D02*
X-3750000Y-7050000D01*
X-1375000Y-5950000D02*
X-1350000Y-5950000D01*
X-1900000Y-6200000D02*
X-1875000Y-6175000D01*
X-1525000Y-6025000D02*
X-1500000Y-6025000D01*
X-6500000Y-10725000D02*
X-6500000Y-11150000D01*
X-4025000Y-7175000D02*
X-4000000Y-7150000D01*
X-3300000Y-6675000D02*
X-3275000Y-6675000D01*
X-1675000Y-6100000D02*
X-1650000Y-6075000D01*
X-2875000Y-6650000D02*
X-2850000Y-6625000D01*
X-1925000Y-6200000D02*
X-1900000Y-6200000D01*
X-1400000Y-5975000D02*
X-1375000Y-5950000D01*
X-2300000Y-6375000D02*
X-2275000Y-6375000D01*
X-1250000Y-5900000D02*
X25000Y-5900000D01*
X-6475000Y-8675000D02*
X-6225000Y-8425000D01*
X-2550000Y-6500000D02*
X-2525000Y-6475000D01*
X-3325000Y-6700000D02*
X-3300000Y-6675000D01*
X-3700000Y-7025000D02*
X-3675000Y-7000000D01*
X-4125000Y-7200000D02*
X-4100000Y-7200000D01*
X-5725000Y-8425000D02*
X-5700000Y-8400000D01*
X-1600000Y-6050000D02*
X-1550000Y-6050000D01*
X-3675000Y-7000000D02*
X-3650000Y-7000000D01*
X-4375000Y-7325000D02*
X-4350000Y-7300000D01*
X-2725000Y-6575000D02*
X-2700000Y-6550000D01*
X-3350000Y-6700000D02*
X-3325000Y-6700000D01*
X-2325000Y-6400000D02*
X-2300000Y-6375000D01*
X-2500000Y-6475000D02*
X-2475000Y-6450000D01*
%TO.N,I2C_SCL*%
D12*
X-3919300Y1267600D02*
X-1321400Y1267600D01*
X-1321400Y1267600D02*
X3688300Y-3742100D01*
X-4159000Y1507300D02*
X-3919300Y1267600D01*
%TO.N,I2C_SDA*%
X4260100Y-3693700D02*
X4260100Y-3785000D01*
X-2580300Y1972400D02*
X-1406000Y1972400D01*
X-2718900Y2111000D02*
X-4204500Y2111000D01*
D13*
X-3125000Y-1825000D02*
X-3500000Y-1450000D01*
D12*
X-4597200Y-315000D02*
X-3494600Y-1417600D01*
X-1406000Y1972400D02*
X4260100Y-3693700D01*
X-2580300Y1972400D02*
X-2718900Y2111000D01*
D13*
X-3125000Y-1850000D02*
X-3125000Y-1825000D01*
D12*
X-4597200Y1718300D02*
X-4597200Y-315000D01*
X-4204500Y2111000D02*
X-4597200Y1718300D01*
%TO.N,RECORD_EN*%
X6867100Y4221500D02*
X5350200Y2704600D01*
X5350200Y2704600D02*
X2286900Y2704600D01*
X2149300Y2842200D02*
X-122100Y2842200D01*
X-122100Y2842200D02*
X-259900Y2980000D01*
X2286900Y2704600D02*
X2149300Y2842200D01*
X6867100Y7052100D02*
X6867100Y4221500D01*
X7339900Y7524900D02*
X6867100Y7052100D01*
%TO.N,CHG_ALLOW*%
X3088700Y6885400D02*
X-980400Y6885400D01*
X-5750300Y2115500D02*
X-5750300Y1025500D01*
X-5750300Y1025500D02*
X-5900400Y875400D01*
X-980400Y6885400D02*
X-5750300Y2115500D01*
%TO.N,CHG_DISABLE*%
D13*
X-7125000Y-6675000D02*
X-7150000Y-6675000D01*
X-6425000Y-6350000D02*
X-6450000Y-6350000D01*
X-6175000Y-6225000D02*
X-6200000Y-6250000D01*
X-6675000Y-6450000D02*
X-6700000Y-6475000D01*
X-4900000Y-5125000D02*
X-4900000Y-5150000D01*
X-4875000Y-5100000D02*
X-4900000Y-5125000D01*
X-6350000Y-6325000D02*
X-6400000Y-6325000D01*
X-4900000Y-5150000D02*
X-5125000Y-5375000D01*
X-6150000Y-6225000D02*
X-6175000Y-6225000D01*
X-6625000Y-6450000D02*
X-6675000Y-6450000D01*
X-4875000Y-5075000D02*
X-4875000Y-5100000D01*
X-6550000Y-6400000D02*
X-6575000Y-6425000D01*
X-6225000Y-6250000D02*
X-6250000Y-6275000D01*
X-6450000Y-6350000D02*
X-6475000Y-6375000D01*
X-5125000Y-5375000D02*
X-5225000Y-5375000D01*
X-7225000Y-6700000D02*
X-7250000Y-6725000D01*
X-7275000Y-6725000D02*
X-7300000Y-6750000D01*
X-6900000Y-6575000D02*
X-6950000Y-6575000D01*
X-7250000Y-6725000D02*
X-7275000Y-6725000D01*
X-6600000Y-6425000D02*
X-6625000Y-6450000D01*
X-7050000Y-6625000D02*
X-7075000Y-6650000D01*
X-6125000Y-6200000D02*
X-6150000Y-6225000D01*
X-6800000Y-6525000D02*
X-6825000Y-6525000D01*
X-7175000Y-6700000D02*
X-7225000Y-6700000D01*
X-6825000Y-6525000D02*
X-6850000Y-6550000D01*
X-6850000Y-6550000D02*
X-6875000Y-6550000D01*
X-6275000Y-6275000D02*
X-6300000Y-6300000D01*
X-5275000Y-5400000D02*
X-6075000Y-6200000D01*
X-6575000Y-6425000D02*
X-6600000Y-6425000D01*
X-6500000Y-6375000D02*
X-6525000Y-6400000D01*
X-7075000Y-6650000D02*
X-7100000Y-6650000D01*
X-6475000Y-6375000D02*
X-6500000Y-6375000D01*
X-6525000Y-6400000D02*
X-6550000Y-6400000D01*
X-6725000Y-6475000D02*
X-6750000Y-6500000D01*
X-6750000Y-6500000D02*
X-6775000Y-6500000D01*
X-6075000Y-6200000D02*
X-6125000Y-6200000D01*
X-6975000Y-6600000D02*
X-7000000Y-6600000D01*
X-7000000Y-6600000D02*
X-7025000Y-6625000D01*
X-6325000Y-6300000D02*
X-6350000Y-6325000D01*
X-6875000Y-6550000D02*
X-6900000Y-6575000D01*
X-6400000Y-6325000D02*
X-6425000Y-6350000D01*
X-7025000Y-6625000D02*
X-7050000Y-6625000D01*
X-6700000Y-6475000D02*
X-6725000Y-6475000D01*
X-6200000Y-6250000D02*
X-6225000Y-6250000D01*
X-4850000Y-4475000D02*
X-4850000Y-5050000D01*
X-5250000Y-5400000D02*
X-5275000Y-5400000D01*
X-6300000Y-6300000D02*
X-6325000Y-6300000D01*
X-6250000Y-6275000D02*
X-6275000Y-6275000D01*
X-7100000Y-6650000D02*
X-7125000Y-6675000D01*
X-6775000Y-6500000D02*
X-6800000Y-6525000D01*
X-7150000Y-6675000D02*
X-7175000Y-6700000D01*
X-5225000Y-5375000D02*
X-5250000Y-5400000D01*
X-7325000Y-6750000D02*
X-7375000Y-6800000D01*
X-6950000Y-6575000D02*
X-6975000Y-6600000D01*
X-7300000Y-6750000D02*
X-7325000Y-6750000D01*
X-4850000Y-5050000D02*
X-4875000Y-5075000D01*
%TO.N,DOCK_5V*%
D12*
X3855900Y-20044000D02*
X500000Y-16688100D01*
X500000Y-16688100D02*
X500000Y-16384200D01*
%TO.N,TS_MON*%
X-7300000Y-12862400D02*
X-6302900Y-13859500D01*
D13*
X-7350000Y-12825000D02*
X-7325000Y-12850000D01*
X-7350000Y-12825000D02*
X-7725000Y-13200000D01*
D12*
X-6302900Y-13859500D02*
X-3425000Y-13859500D01*
%TO.N,RECORD_N*%
X-5661400Y-3493500D02*
X-5661400Y-1664200D01*
X-235000Y-5200000D02*
X-1806900Y-5200000D01*
X-5661400Y-4455800D02*
X-5661400Y-3493500D01*
X-1806900Y-5200000D02*
X-3513400Y-3493500D01*
X-3513400Y-3493500D02*
X-5661400Y-3493500D01*
X-5661400Y-1664200D02*
X-5939500Y-1186100D01*
%TO.N,VSYS*%
D13*
X-6275000Y-7675000D02*
X-6050000Y-7450000D01*
X-6775000Y-7850000D02*
X-6775000Y-7825000D01*
D12*
X-7171300Y-11303200D02*
X-7171300Y-8992400D01*
D13*
X-6825000Y-8450000D02*
X-6825000Y-7925000D01*
X-6775000Y-7825000D02*
X-6675000Y-7725000D01*
X-6800000Y-7900000D02*
X-6800000Y-7875000D01*
X-6850000Y-8500000D02*
X-6850000Y-8475000D01*
X-7150000Y-8975000D02*
X-6875000Y-8700000D01*
X-6825000Y-7925000D02*
X-6800000Y-7900000D01*
X-7300000Y-11150000D02*
X-7175000Y-11275000D01*
X-6800000Y-7875000D02*
X-6775000Y-7850000D01*
X-6625000Y-7700000D02*
X-6600000Y-7700000D01*
X-6875000Y-8700000D02*
X-6875000Y-8525000D01*
D12*
X5875000Y-1236300D02*
X5875000Y-1722100D01*
X1056500Y-13171800D02*
X-5302700Y-13171800D01*
D13*
X-6850000Y-8475000D02*
X-6825000Y-8450000D01*
X-6875000Y-8525000D02*
X-6850000Y-8500000D01*
X-6575000Y-7675000D02*
X-6275000Y-7675000D01*
D12*
X7846800Y735500D02*
X5875000Y-1236300D01*
D13*
X-6675000Y-7725000D02*
X-6650000Y-7725000D01*
X-6650000Y-7725000D02*
X-6625000Y-7700000D01*
D12*
X-5302700Y-13171800D02*
X-7171300Y-11303200D01*
D13*
X-6600000Y-7700000D02*
X-6575000Y-7675000D01*
%TO.N,SPI_SCK_MCU*%
D12*
X-5478600Y2002900D02*
X-3443600Y4037900D01*
X-5478600Y700200D02*
X-5478600Y2002900D01*
X-3443600Y4037900D02*
X3065400Y4037900D01*
X3065400Y4037900D02*
X3095500Y4007800D01*
X-8561900Y-882000D02*
X-7060800Y-882000D01*
X-7060800Y-882000D02*
X-5478600Y700200D01*
%TO.N,CHG_STAT1*%
X3572700Y6727400D02*
X3572700Y7023600D01*
X-6022000Y1457400D02*
X-7690600Y-211200D01*
X-6022000Y2228100D02*
X-6022000Y1457400D01*
D13*
X-6600000Y-1375000D02*
X-6600000Y-1675000D01*
D12*
X-8703100Y-1351600D02*
X-6591800Y-1351600D01*
X-925900Y7324200D02*
X-6022000Y2228100D01*
X3095300Y6250000D02*
X3572700Y6727400D01*
X-8984200Y-1070500D02*
X-8703100Y-1351600D01*
X-7690600Y-211200D02*
X-8505300Y-211200D01*
D13*
X-6600000Y-1675000D02*
X-6675000Y-1750000D01*
D12*
X3272100Y7324200D02*
X-925900Y7324200D01*
X-8984200Y-690100D02*
X-8984200Y-1070500D01*
X3572700Y7023600D02*
X3272100Y7324200D01*
X-8505300Y-211200D02*
X-8984200Y-690100D01*
%TO.N,PDM_CLK_MIC*%
X11127500Y9635900D02*
X4901700Y9635900D01*
X-6273500Y8139300D02*
X-6555400Y7857400D01*
X3405100Y8139300D02*
X-6273500Y8139300D01*
X4901700Y9635900D02*
X3405100Y8139300D01*
%TD*%
%TA.AperFunction,Conductor*%
%TO.N,GND*%
G36*
X-3767154Y-3706281D02*
G01*
X-3749873Y-3748000D01*
X-3767154Y-3789719D01*
X-3779371Y-3799093D01*
X-3800538Y-3811315D01*
X-3824646Y-3825233D01*
X-3888967Y-3889554D01*
X-3934455Y-3968343D01*
X-3943419Y-4001797D01*
X-3958000Y-4056214D01*
X-3958000Y-4147186D01*
X-3945382Y-4194276D01*
X-3939975Y-4214456D01*
X-3934454Y-4235058D01*
X-3895203Y-4303045D01*
X-3888967Y-4313845D01*
X-3824646Y-4378166D01*
X-3824644Y-4378167D01*
X-3824642Y-4378169D01*
X-3745858Y-4423654D01*
X-3657986Y-4447200D01*
X-3657982Y-4447200D01*
X-3567018Y-4447200D01*
X-3567014Y-4447200D01*
X-3479142Y-4423654D01*
X-3400358Y-4378169D01*
X-3336031Y-4313842D01*
X-3290546Y-4235058D01*
X-3267000Y-4147186D01*
X-3267000Y-4147182D01*
X-3266000Y-4143451D01*
X-3263825Y-4144033D01*
X-3244842Y-4111122D01*
X-3201230Y-4099414D01*
X-3167185Y-4116194D01*
X-2564902Y-4718476D01*
X-1972638Y-5310740D01*
X-1972637Y-5310742D01*
X-1950798Y-5332581D01*
X-1950797Y-5332582D01*
X-1940675Y-5357020D01*
X-1933517Y-5374300D01*
X-1950798Y-5416019D01*
X-1950799Y-5416019D01*
X-1950799Y-5416020D01*
X-1975237Y-5426142D01*
X-1992517Y-5433300D01*
X-4799739Y-5433300D01*
X-4841458Y-5416019D01*
X-4858739Y-5374300D01*
X-4841458Y-5332581D01*
X-4801774Y-5292897D01*
X-4755457Y-5246580D01*
X-4742267Y-5214735D01*
X-4740534Y-5210938D01*
X-4736253Y-5202374D01*
X-4730457Y-5196580D01*
X-4720102Y-5171580D01*
X-4716466Y-5162801D01*
X-4715533Y-5160936D01*
X-4713611Y-5159268D01*
X-4708460Y-5151561D01*
X-4708685Y-5151411D01*
X-4705458Y-5146582D01*
X-4700211Y-5133915D01*
X-4679500Y-5083915D01*
X-4679500Y-4809573D01*
X-4662219Y-4767854D01*
X-4650004Y-4758480D01*
X-4637858Y-4751469D01*
X-4573531Y-4687142D01*
X-4528046Y-4608358D01*
X-4504500Y-4520486D01*
X-4504500Y-4429514D01*
X-4528046Y-4341642D01*
X-4573531Y-4262858D01*
X-4573533Y-4262856D01*
X-4573534Y-4262854D01*
X-4637855Y-4198533D01*
X-4672114Y-4178754D01*
X-4716642Y-4153046D01*
X-4716643Y-4153045D01*
X-4716644Y-4153045D01*
X-4771860Y-4138250D01*
X-4804514Y-4129500D01*
X-4895486Y-4129500D01*
X-4910529Y-4133531D01*
X-4983357Y-4153045D01*
X-5062146Y-4198533D01*
X-5126467Y-4262854D01*
X-5171955Y-4341643D01*
X-5195500Y-4429515D01*
X-5195500Y-4495500D01*
X-5212781Y-4537219D01*
X-5254500Y-4554500D01*
X-5256900Y-4554500D01*
X-5298619Y-4537219D01*
X-5315900Y-4495500D01*
X-5315900Y-4410318D01*
X-5315900Y-4410314D01*
X-5339446Y-4322442D01*
X-5384931Y-4243658D01*
X-5384933Y-4243656D01*
X-5384934Y-4243654D01*
X-5448619Y-4179969D01*
X-5465900Y-4138250D01*
X-5465900Y-3748000D01*
X-5448619Y-3706281D01*
X-5406900Y-3689000D01*
X-3808873Y-3689000D01*
X-3767154Y-3706281D01*
G37*
%TD.AperFunction*%
%TA.AperFunction,Conductor*%
G36*
X-858685Y2196707D02*
G01*
X-836105Y2157601D01*
X-835600Y2149898D01*
X-835600Y2149511D01*
X-807553Y2081800D01*
X-805837Y2077658D01*
X549063Y722758D01*
X604058Y667763D01*
X631093Y656565D01*
X675910Y638001D01*
X675913Y638000D01*
X1990183Y638000D01*
X2031902Y620719D01*
X4033541Y-1380920D01*
X4050822Y-1422639D01*
X4033541Y-1464358D01*
X4007094Y-1479628D01*
X3979046Y-1487144D01*
X3979044Y-1487144D01*
X3900254Y-1532633D01*
X3835933Y-1596954D01*
X3790445Y-1675743D01*
X3766900Y-1763615D01*
X3766900Y-1790100D01*
X3749619Y-1831819D01*
X3707900Y-1849100D01*
X3633514Y-1849100D01*
X3613041Y-1854586D01*
X3545643Y-1872645D01*
X3466854Y-1918133D01*
X3402533Y-1982454D01*
X3357045Y-2061243D01*
X3335149Y-2142961D01*
X3307659Y-2178786D01*
X3262888Y-2184680D01*
X3227063Y-2157190D01*
X3201469Y-2112858D01*
X3201468Y-2112857D01*
X3201467Y-2112855D01*
X3137145Y-2048533D01*
X3098928Y-2026469D01*
X3058358Y-2003046D01*
X3058357Y-2003045D01*
X3058356Y-2003045D01*
X3005577Y-1988903D01*
X2970486Y-1979500D01*
X2879514Y-1979500D01*
X2879512Y-1979500D01*
X2867354Y-1982758D01*
X2822584Y-1976863D01*
X2810365Y-1967487D01*
X1837044Y-994166D01*
X1799192Y-956314D01*
X2442000Y-956314D01*
X2442000Y-1047286D01*
X2450096Y-1077500D01*
X2462973Y-1125558D01*
X2465546Y-1135158D01*
X2501486Y-1197410D01*
X2511033Y-1213945D01*
X2575354Y-1278266D01*
X2575356Y-1278267D01*
X2575358Y-1278269D01*
X2654142Y-1323754D01*
X2742014Y-1347300D01*
X2742018Y-1347300D01*
X2832982Y-1347300D01*
X2832986Y-1347300D01*
X2920858Y-1323754D01*
X2999642Y-1278269D01*
X3063969Y-1213942D01*
X3109454Y-1135158D01*
X3133000Y-1047286D01*
X3133000Y-956314D01*
X3109454Y-868442D01*
X3063969Y-789658D01*
X3063967Y-789656D01*
X3063966Y-789654D01*
X2999645Y-725333D01*
X2922761Y-680945D01*
X2920858Y-679846D01*
X2920857Y-679845D01*
X2920856Y-679845D01*
X2880076Y-668918D01*
X2832986Y-656300D01*
X2742014Y-656300D01*
X2718469Y-662609D01*
X2654143Y-679845D01*
X2575354Y-725333D01*
X2511033Y-789654D01*
X2465545Y-868443D01*
X2452057Y-918782D01*
X2442000Y-956314D01*
X1799192Y-956314D01*
X806847Y36031D01*
X-1130177Y1973056D01*
X-1147458Y2014775D01*
X-1130177Y2056494D01*
X-1103729Y2071764D01*
X-1083646Y2077145D01*
X-1083645Y2077145D01*
X-1083645Y2077146D01*
X-1083642Y2077146D01*
X-1004858Y2122631D01*
X-977591Y2149898D01*
X-937796Y2189692D01*
X-936660Y2188556D01*
X-902303Y2208393D01*
X-858685Y2196707D01*
G37*
%TD.AperFunction*%
%TA.AperFunction,Conductor*%
G36*
X-1226898Y7383119D02*
G01*
X-1209617Y7341400D01*
X-1226898Y7299681D01*
X-6187736Y2338844D01*
X-6187738Y2338841D01*
X-6217500Y2266990D01*
X-6217500Y1562817D01*
X-6234781Y1521098D01*
X-7082034Y673846D01*
X-7123753Y656565D01*
X-7165472Y673846D01*
X-7182753Y715565D01*
X-7180743Y730833D01*
X-7177800Y741814D01*
X-7177800Y832786D01*
X-7201346Y920658D01*
X-7246831Y999442D01*
X-7246833Y999444D01*
X-7246834Y999446D01*
X-7310519Y1063131D01*
X-7327800Y1104850D01*
X-7327800Y4435700D01*
X-7310519Y4477419D01*
X-7268800Y4494700D01*
X-6046713Y4494700D01*
X-5974858Y4524463D01*
X-5380203Y5119120D01*
X-5338484Y5136400D01*
X-5248418Y5136400D01*
X-5248414Y5136400D01*
X-5160542Y5159946D01*
X-5081758Y5205431D01*
X-5017431Y5269758D01*
X-4971946Y5348542D01*
X-4948400Y5436414D01*
X-4948400Y5527386D01*
X-4971946Y5615258D01*
X-5017431Y5694042D01*
X-5017433Y5694044D01*
X-5017434Y5694046D01*
X-5081755Y5758367D01*
X-5090473Y5763400D01*
X-5160542Y5803854D01*
X-5160543Y5803855D01*
X-5160544Y5803855D01*
X-5201324Y5814782D01*
X-5248414Y5827400D01*
X-5339386Y5827400D01*
X-5362931Y5821091D01*
X-5427257Y5803855D01*
X-5506046Y5758367D01*
X-5570367Y5694046D01*
X-5615855Y5615257D01*
X-5639400Y5527385D01*
X-5639400Y5437318D01*
X-5656681Y5395599D01*
X-6149298Y4902981D01*
X-6191017Y4885700D01*
X-8869383Y4885700D01*
X-8911102Y4902981D01*
X-9154076Y5145955D01*
X-9171357Y5187674D01*
X-9154076Y5229393D01*
X-9127626Y5244664D01*
X-9127149Y5244793D01*
X-9122842Y5245946D01*
X-9044058Y5291431D01*
X-9044055Y5291434D01*
X-8980369Y5355119D01*
X-8938650Y5372400D01*
X-8835413Y5372400D01*
X-8763558Y5402163D01*
X-7804660Y6361063D01*
X-7762941Y6378343D01*
X-7721222Y6361062D01*
X-7705953Y6334616D01*
X-7700441Y6314048D01*
X-7690090Y6275416D01*
X-7686854Y6263342D01*
X-7648817Y6197458D01*
X-7641367Y6184555D01*
X-7577046Y6120234D01*
X-7577044Y6120233D01*
X-7577042Y6120231D01*
X-7498258Y6074746D01*
X-7410386Y6051200D01*
X-7410382Y6051200D01*
X-7319418Y6051200D01*
X-7319414Y6051200D01*
X-7231542Y6074746D01*
X-7152758Y6120231D01*
X-7088431Y6184558D01*
X-7042946Y6263342D01*
X-7019400Y6351214D01*
X-7019400Y6442186D01*
X-7042946Y6530058D01*
X-7052036Y6545802D01*
X-7057929Y6590571D01*
X-7030439Y6626396D01*
X-7000939Y6634300D01*
X-6490517Y6634300D01*
X-6490513Y6634300D01*
X-6490510Y6634302D01*
X-6486396Y6635120D01*
X-6442107Y6626313D01*
X-6417016Y6588768D01*
X-6423782Y6547761D01*
X-6426554Y6542959D01*
X-6426555Y6542958D01*
X-6439163Y6495903D01*
X-6450100Y6455086D01*
X-6450100Y6364114D01*
X-6442648Y6336303D01*
X-6428886Y6284942D01*
X-6426554Y6276242D01*
X-6385143Y6204514D01*
X-6381067Y6197455D01*
X-6316746Y6133134D01*
X-6316744Y6133133D01*
X-6316742Y6133131D01*
X-6237958Y6087646D01*
X-6150086Y6064100D01*
X-6150082Y6064100D01*
X-6059118Y6064100D01*
X-6059114Y6064100D01*
X-5971242Y6087646D01*
X-5892458Y6133131D01*
X-5828131Y6197458D01*
X-5782646Y6276242D01*
X-5759100Y6364114D01*
X-5759100Y6454184D01*
X-5741819Y6495903D01*
X-4854602Y7383119D01*
X-4812883Y7400400D01*
X-1268617Y7400400D01*
X-1226898Y7383119D01*
G37*
%TD.AperFunction*%
%TA.AperFunction,Conductor*%
G36*
X6034944Y11946949D02*
G01*
X6042849Y11947989D01*
X6055068Y11938613D01*
X6069297Y11932719D01*
X6072347Y11925355D01*
X6078674Y11920500D01*
X6080684Y11905229D01*
X6086578Y11891000D01*
X6083526Y11883634D01*
X6084567Y11875729D01*
X6075190Y11863510D01*
X6069297Y11849281D01*
X6057080Y11839906D01*
X6019825Y11818397D01*
X5990154Y11801267D01*
X5925833Y11736946D01*
X5880345Y11658157D01*
X5863109Y11593831D01*
X5856800Y11570286D01*
X5856800Y11479314D01*
X5864920Y11449011D01*
X5872655Y11420142D01*
X5880346Y11391442D01*
X5915554Y11330458D01*
X5925833Y11312655D01*
X5990154Y11248334D01*
X5990156Y11248333D01*
X5990158Y11248331D01*
X6068942Y11202846D01*
X6156814Y11179300D01*
X6156818Y11179300D01*
X6247782Y11179300D01*
X6247786Y11179300D01*
X6335658Y11202846D01*
X6414442Y11248331D01*
X6478769Y11312658D01*
X6524254Y11391442D01*
X6547800Y11479314D01*
X6547800Y11570286D01*
X6524254Y11658158D01*
X6478769Y11736942D01*
X6478767Y11736944D01*
X6478766Y11736946D01*
X6414445Y11801267D01*
X6414442Y11801269D01*
X6347521Y11839905D01*
X6320033Y11875729D01*
X6325926Y11920500D01*
X6361751Y11947989D01*
X6377022Y11950000D01*
X11599130Y11950000D01*
X11617606Y11942347D01*
X11636729Y11936468D01*
X11638115Y11933852D01*
X11640849Y11932719D01*
X11657866Y11896566D01*
X11657867Y11896564D01*
X11660668Y11866995D01*
X11660720Y11866411D01*
X11668810Y11770908D01*
X11668857Y11770322D01*
X11675990Y11674817D01*
X11676031Y11674233D01*
X11682226Y11578501D01*
X11682261Y11577916D01*
X11687496Y11482289D01*
X11687525Y11481703D01*
X11691813Y11385929D01*
X11691836Y11385343D01*
X11695172Y11289530D01*
X11695190Y11288943D01*
X11697571Y11193117D01*
X11697582Y11192531D01*
X11699011Y11096781D01*
X11699017Y11096195D01*
X11699125Y11074642D01*
X11699500Y10999267D01*
X11699500Y-10999202D01*
X11699407Y-11017854D01*
X11699017Y-11096194D01*
X11699011Y-11096779D01*
X11699011Y-11096780D01*
X11697582Y-11192529D01*
X11697571Y-11193115D01*
X11695190Y-11288941D01*
X11695172Y-11289528D01*
X11691836Y-11385341D01*
X11691813Y-11385927D01*
X11687525Y-11481701D01*
X11687496Y-11482287D01*
X11682261Y-11577914D01*
X11682226Y-11578499D01*
X11676031Y-11674231D01*
X11675990Y-11674815D01*
X11668857Y-11770320D01*
X11668810Y-11770906D01*
X11660720Y-11866409D01*
X11660668Y-11866993D01*
X11651628Y-11962428D01*
X11651570Y-11963013D01*
X11641575Y-12058398D01*
X11641511Y-12058979D01*
X11630591Y-12154086D01*
X11630521Y-12154670D01*
X11618635Y-12249818D01*
X11618559Y-12250398D01*
X11605745Y-12345305D01*
X11605664Y-12345887D01*
X11591887Y-12440797D01*
X11591800Y-12441377D01*
X11577098Y-12536022D01*
X11577005Y-12536601D01*
X11561336Y-12631263D01*
X11561237Y-12631840D01*
X11544651Y-12726218D01*
X11544547Y-12726796D01*
X11527028Y-12820971D01*
X11526918Y-12821548D01*
X11508451Y-12915603D01*
X11508335Y-12916177D01*
X11488915Y-13010142D01*
X11488793Y-13010716D01*
X11468495Y-13104229D01*
X11468368Y-13104802D01*
X11447102Y-13198281D01*
X11446969Y-13198852D01*
X11424778Y-13292099D01*
X11424640Y-13292669D01*
X11401513Y-13385736D01*
X11401368Y-13386304D01*
X11377337Y-13479058D01*
X11377187Y-13479626D01*
X11352244Y-13572099D01*
X11352089Y-13572664D01*
X11326200Y-13664987D01*
X11326039Y-13665550D01*
X11299255Y-13757543D01*
X11299088Y-13758107D01*
X11271334Y-13850010D01*
X11271161Y-13850570D01*
X11242556Y-13941997D01*
X11242378Y-13942556D01*
X11212878Y-14033655D01*
X11212695Y-14034212D01*
X11182252Y-14125130D01*
X11182063Y-14125686D01*
X11150726Y-14216272D01*
X11150531Y-14216825D01*
X11118311Y-14307050D01*
X11118111Y-14307602D01*
X11084967Y-14397579D01*
X11084762Y-14398127D01*
X11050763Y-14487675D01*
X11050552Y-14488224D01*
X11015621Y-14577534D01*
X11015405Y-14578078D01*
X10979617Y-14666969D01*
X10979395Y-14667512D01*
X10942700Y-14756101D01*
X10942505Y-14756567D01*
X10904906Y-14844844D01*
X10904682Y-14845361D01*
X10866303Y-14933044D01*
X10866065Y-14933580D01*
X10826723Y-15021085D01*
X10826480Y-15021619D01*
X10826480Y-15021620D01*
X10786300Y-15108663D01*
X10786067Y-15109161D01*
X10781159Y-15119522D01*
X10745039Y-15195770D01*
X10744785Y-15196299D01*
X10702903Y-15282484D01*
X10702644Y-15283010D01*
X10659925Y-15368738D01*
X10659661Y-15369262D01*
X10615973Y-15454793D01*
X10615703Y-15455314D01*
X10571322Y-15540112D01*
X10571048Y-15540630D01*
X10525744Y-15625135D01*
X10525464Y-15625651D01*
X10479322Y-15709699D01*
X10479037Y-15710211D01*
X10432119Y-15793698D01*
X10431829Y-15794208D01*
X10384031Y-15877315D01*
X10383740Y-15877815D01*
X10343247Y-15946632D01*
X10335179Y-15960342D01*
X10334878Y-15960847D01*
X10285377Y-16043085D01*
X10285072Y-16043585D01*
X10234864Y-16125153D01*
X10234554Y-16125652D01*
X10183505Y-16206766D01*
X10183191Y-16207260D01*
X10131359Y-16287833D01*
X10131039Y-16288325D01*
X10078334Y-16368490D01*
X10078009Y-16368979D01*
X10024611Y-16448466D01*
X10024281Y-16448951D01*
X9969971Y-16528084D01*
X9969637Y-16528566D01*
X9914647Y-16607008D01*
X9914308Y-16607486D01*
X9858593Y-16685305D01*
X9858249Y-16685781D01*
X9801638Y-16763212D01*
X9801290Y-16763683D01*
X9743967Y-16840475D01*
X9743614Y-16840944D01*
X9685519Y-16917177D01*
X9685161Y-16917641D01*
X9626291Y-16993318D01*
X9625929Y-16993779D01*
X9566327Y-17068846D01*
X9565959Y-17069304D01*
X9505696Y-17143672D01*
X9505325Y-17144126D01*
X9444169Y-17218080D01*
X9443793Y-17218530D01*
X9381987Y-17291776D01*
X9381606Y-17292223D01*
X9319067Y-17364859D01*
X9318682Y-17365301D01*
X9255439Y-17437296D01*
X9255050Y-17437735D01*
X9191099Y-17509092D01*
X9190705Y-17509527D01*
X9126026Y-17580267D01*
X9125628Y-17580698D01*
X9060225Y-17650818D01*
X9059824Y-17651244D01*
X8993807Y-17720628D01*
X8993400Y-17721051D01*
X8926675Y-17789798D01*
X8926264Y-17790218D01*
X8858735Y-17858421D01*
X8858421Y-17858735D01*
X8827314Y-17889534D01*
X8790305Y-17926177D01*
X8789887Y-17926587D01*
X8721092Y-17993361D01*
X8720669Y-17993767D01*
X8651167Y-18059897D01*
X8650739Y-18060300D01*
X8580708Y-18125618D01*
X8580278Y-18126015D01*
X8509563Y-18190671D01*
X8509128Y-18191065D01*
X8437684Y-18255095D01*
X8437245Y-18255484D01*
X8365303Y-18318681D01*
X8364861Y-18319066D01*
X8292217Y-18381612D01*
X8291769Y-18381993D01*
X8218529Y-18443792D01*
X8218081Y-18444167D01*
X8144127Y-18505324D01*
X8143672Y-18505696D01*
X8069316Y-18565949D01*
X8068858Y-18566317D01*
X7993814Y-18625900D01*
X7993354Y-18626262D01*
X7917593Y-18685198D01*
X7917128Y-18685556D01*
X7840944Y-18743614D01*
X7840475Y-18743967D01*
X7763683Y-18801290D01*
X7763212Y-18801638D01*
X7685818Y-18858222D01*
X7685342Y-18858566D01*
X7607439Y-18914341D01*
X7606961Y-18914680D01*
X7528577Y-18969631D01*
X7528094Y-18969966D01*
X7448950Y-19024282D01*
X7448466Y-19024611D01*
X7368925Y-19078046D01*
X7368436Y-19078371D01*
X7288341Y-19131029D01*
X7287849Y-19131349D01*
X7207260Y-19183191D01*
X7206766Y-19183505D01*
X7125652Y-19234554D01*
X7125153Y-19234864D01*
X7043507Y-19285120D01*
X7043007Y-19285425D01*
X6960848Y-19334878D01*
X6960514Y-19335077D01*
X6880940Y-19381902D01*
X6877822Y-19383737D01*
X6877315Y-19384031D01*
X6794240Y-19431811D01*
X6793730Y-19432101D01*
X6710201Y-19479043D01*
X6709689Y-19479328D01*
X6625651Y-19525464D01*
X6625135Y-19525744D01*
X6540648Y-19571039D01*
X6540155Y-19571299D01*
X6510410Y-19586867D01*
X6455252Y-19615736D01*
X6454732Y-19616005D01*
X6369302Y-19659641D01*
X6368778Y-19659905D01*
X6282971Y-19702663D01*
X6282444Y-19702922D01*
X6196283Y-19744791D01*
X6195756Y-19745044D01*
X6109229Y-19786036D01*
X6108696Y-19786285D01*
X6021619Y-19826480D01*
X6021086Y-19826723D01*
X5933617Y-19866049D01*
X5933080Y-19866287D01*
X5845381Y-19904673D01*
X5844844Y-19904905D01*
X5756567Y-19942505D01*
X5756025Y-19942733D01*
X5667512Y-19979395D01*
X5666969Y-19979617D01*
X5578078Y-20015405D01*
X5577534Y-20015621D01*
X5488198Y-20050562D01*
X5487649Y-20050773D01*
X5398135Y-20084759D01*
X5397587Y-20084964D01*
X5307652Y-20118093D01*
X5307100Y-20118294D01*
X5216822Y-20150532D01*
X5216269Y-20150726D01*
X5125662Y-20182070D01*
X5125107Y-20182259D01*
X5034220Y-20212692D01*
X5033663Y-20212875D01*
X4942534Y-20242385D01*
X4941974Y-20242563D01*
X4850521Y-20271176D01*
X4849960Y-20271349D01*
X4758139Y-20299077D01*
X4757578Y-20299243D01*
X4665602Y-20326025D01*
X4665037Y-20326187D01*
X4572710Y-20352077D01*
X4572145Y-20352232D01*
X4479626Y-20377187D01*
X4479058Y-20377337D01*
X4386327Y-20401362D01*
X4385759Y-20401507D01*
X4292641Y-20424647D01*
X4292071Y-20424785D01*
X4198869Y-20446965D01*
X4198298Y-20447098D01*
X4104890Y-20468348D01*
X4104318Y-20468475D01*
X4010670Y-20488803D01*
X4010095Y-20488925D01*
X3916211Y-20508328D01*
X3915637Y-20508444D01*
X3821530Y-20526921D01*
X3820953Y-20527031D01*
X3726787Y-20544548D01*
X3726209Y-20544652D01*
X3631844Y-20561236D01*
X3631267Y-20561335D01*
X3536601Y-20577005D01*
X3536022Y-20577098D01*
X3441391Y-20591798D01*
X3440810Y-20591885D01*
X3345872Y-20605666D01*
X3345291Y-20605747D01*
X3250398Y-20618559D01*
X3249818Y-20618635D01*
X3154670Y-20630521D01*
X3154086Y-20630591D01*
X3058979Y-20641511D01*
X3058398Y-20641575D01*
X2963013Y-20651570D01*
X2962428Y-20651628D01*
X2866993Y-20660668D01*
X2866409Y-20660720D01*
X2770914Y-20668809D01*
X2770329Y-20668856D01*
X2674803Y-20675991D01*
X2674218Y-20676032D01*
X2578500Y-20682226D01*
X2577916Y-20682261D01*
X2482287Y-20687497D01*
X2481699Y-20687526D01*
X2385926Y-20691813D01*
X2385341Y-20691836D01*
X2289528Y-20695172D01*
X2288941Y-20695190D01*
X2193115Y-20697571D01*
X2192529Y-20697582D01*
X2096780Y-20699011D01*
X2096194Y-20699017D01*
X1999403Y-20699499D01*
X1999109Y-20699500D01*
X-1999110Y-20699500D01*
X-1999404Y-20699499D01*
X-2096196Y-20699017D01*
X-2096782Y-20699011D01*
X-2192531Y-20697582D01*
X-2193117Y-20697571D01*
X-2288943Y-20695190D01*
X-2289530Y-20695172D01*
X-2385343Y-20691836D01*
X-2385929Y-20691813D01*
X-2481703Y-20687525D01*
X-2482289Y-20687496D01*
X-2577916Y-20682261D01*
X-2578501Y-20682226D01*
X-2674233Y-20676031D01*
X-2674817Y-20675990D01*
X-2770322Y-20668857D01*
X-2770908Y-20668810D01*
X-2866411Y-20660720D01*
X-2866995Y-20660668D01*
X-2962430Y-20651628D01*
X-2963001Y-20651571D01*
X-2981499Y-20649633D01*
X-3058400Y-20641575D01*
X-3058981Y-20641511D01*
X-3154088Y-20630591D01*
X-3154653Y-20630523D01*
X-3165996Y-20629106D01*
X-3249820Y-20618635D01*
X-3250400Y-20618559D01*
X-3345307Y-20605745D01*
X-3345889Y-20605664D01*
X-3440799Y-20591887D01*
X-3441379Y-20591800D01*
X-3536024Y-20577098D01*
X-3536603Y-20577005D01*
X-3631265Y-20561336D01*
X-3631842Y-20561237D01*
X-3726220Y-20544651D01*
X-3726798Y-20544547D01*
X-3820973Y-20527028D01*
X-3821550Y-20526918D01*
X-3915605Y-20508451D01*
X-3916179Y-20508335D01*
X-4010144Y-20488915D01*
X-4010718Y-20488793D01*
X-4060815Y-20477919D01*
X-4104253Y-20468490D01*
X-4104748Y-20468380D01*
X-4139228Y-20460536D01*
X-4198283Y-20447102D01*
X-4198854Y-20446969D01*
X-4292101Y-20424778D01*
X-4292671Y-20424640D01*
X-4385738Y-20401513D01*
X-4386306Y-20401368D01*
X-4479060Y-20377337D01*
X-4479628Y-20377187D01*
X-4572101Y-20352244D01*
X-4572666Y-20352089D01*
X-4664989Y-20326200D01*
X-4665552Y-20326039D01*
X-4757545Y-20299255D01*
X-4758109Y-20299088D01*
X-4850012Y-20271334D01*
X-4850572Y-20271161D01*
X-4941999Y-20242556D01*
X-4942558Y-20242378D01*
X-4998144Y-20224378D01*
X-5033666Y-20212875D01*
X-5034214Y-20212695D01*
X-5125132Y-20182252D01*
X-5125667Y-20182070D01*
X-5181645Y-20162705D01*
X-5216274Y-20150726D01*
X-5216827Y-20150531D01*
X-5307052Y-20118311D01*
X-5307604Y-20118111D01*
X-5397581Y-20084967D01*
X-5398129Y-20084762D01*
X-5487677Y-20050763D01*
X-5488226Y-20050552D01*
X-5577536Y-20015621D01*
X-5578080Y-20015405D01*
X-5666971Y-19979617D01*
X-5667514Y-19979395D01*
X-5756103Y-19942700D01*
X-5756596Y-19942493D01*
X-5844966Y-19904854D01*
X-5845363Y-19904682D01*
X-5845384Y-19904673D01*
X-5894147Y-19883329D01*
X-5933046Y-19866303D01*
X-5933582Y-19866065D01*
X-6021087Y-19826723D01*
X-6021622Y-19826480D01*
X-6108665Y-19786300D01*
X-6109093Y-19786100D01*
X-6195779Y-19745035D01*
X-6196301Y-19744785D01*
X-6282486Y-19702903D01*
X-6283012Y-19702644D01*
X-6368740Y-19659925D01*
X-6369264Y-19659661D01*
X-6454795Y-19615973D01*
X-6455316Y-19615703D01*
X-6540114Y-19571322D01*
X-6540632Y-19571048D01*
X-6540649Y-19571039D01*
X-6625137Y-19525744D01*
X-6625653Y-19525464D01*
X-6709701Y-19479322D01*
X-6710213Y-19479037D01*
X-6793700Y-19432119D01*
X-6794210Y-19431829D01*
X-6877317Y-19384031D01*
X-6877750Y-19383780D01*
X-6960476Y-19335100D01*
X-6960849Y-19334878D01*
X-7043087Y-19285377D01*
X-7043587Y-19285072D01*
X-7082347Y-19261214D01*
X-7125201Y-19234835D01*
X-7125654Y-19234554D01*
X-7143028Y-19223620D01*
X-7179232Y-19200835D01*
X-7206768Y-19183505D01*
X-7207262Y-19183191D01*
X-7287835Y-19131359D01*
X-7288327Y-19131039D01*
X-7368492Y-19078334D01*
X-7368981Y-19078009D01*
X-7448468Y-19024611D01*
X-7448953Y-19024281D01*
X-7528086Y-18969971D01*
X-7528568Y-18969637D01*
X-7607010Y-18914647D01*
X-7607488Y-18914308D01*
X-7685307Y-18858593D01*
X-7685783Y-18858249D01*
X-7763214Y-18801638D01*
X-7763685Y-18801290D01*
X-7840477Y-18743967D01*
X-7840856Y-18743681D01*
X-7917251Y-18685464D01*
X-7917643Y-18685161D01*
X-7993320Y-18626291D01*
X-7993695Y-18625997D01*
X-8068945Y-18566249D01*
X-8069306Y-18565959D01*
X-8099271Y-18541677D01*
X-8143740Y-18505642D01*
X-8144081Y-18505363D01*
X-8218091Y-18444161D01*
X-8218532Y-18443793D01*
X-8291778Y-18381987D01*
X-8292225Y-18381606D01*
X-8364861Y-18319067D01*
X-8365303Y-18318682D01*
X-8405290Y-18283556D01*
X-8437334Y-18255407D01*
X-8437737Y-18255050D01*
X-8455780Y-18238880D01*
X-8509132Y-18191065D01*
X-8509529Y-18190705D01*
X-8580269Y-18126026D01*
X-8580700Y-18125628D01*
X-8650820Y-18060225D01*
X-8651246Y-18059824D01*
X-8720630Y-17993807D01*
X-8721053Y-17993400D01*
X-8756447Y-17959047D01*
X-8789890Y-17926587D01*
X-8790220Y-17926264D01*
X-8790308Y-17926177D01*
X-8858479Y-17858679D01*
X-8858681Y-17858477D01*
X-8926214Y-17790269D01*
X-8926589Y-17789887D01*
X-8993363Y-17721092D01*
X-8993769Y-17720669D01*
X-9058149Y-17653006D01*
X-9059928Y-17651137D01*
X-9060302Y-17650739D01*
X-9125620Y-17580708D01*
X-9126017Y-17580278D01*
X-9190673Y-17509563D01*
X-9191067Y-17509128D01*
X-9255097Y-17437684D01*
X-9255486Y-17437245D01*
X-9274560Y-17415532D01*
X-9318698Y-17365286D01*
X-9319068Y-17364861D01*
X-9345896Y-17333702D01*
X-9381626Y-17292203D01*
X-9381995Y-17291769D01*
X-9443794Y-17218529D01*
X-9444169Y-17218081D01*
X-9505326Y-17144127D01*
X-9505327Y-17144126D01*
X-9505367Y-17144077D01*
X-9505626Y-17143760D01*
X-9566016Y-17069235D01*
X-9566273Y-17068916D01*
X-9625930Y-16993779D01*
X-9626264Y-16993354D01*
X-9685200Y-16917593D01*
X-9685520Y-16917177D01*
X-9743703Y-16840828D01*
X-9743969Y-16840475D01*
X-9744612Y-16839614D01*
X-9801292Y-16763683D01*
X-9801640Y-16763212D01*
X-9858224Y-16685818D01*
X-9858568Y-16685342D01*
X-9876690Y-16660031D01*
X-9914343Y-16607439D01*
X-9914682Y-16606961D01*
X-9946288Y-16561877D01*
X-9969708Y-16528470D01*
X-9969968Y-16528094D01*
X-10024284Y-16448950D01*
X-10024613Y-16448466D01*
X-10037231Y-16429684D01*
X-10078048Y-16368925D01*
X-10078369Y-16368441D01*
X-10079143Y-16367264D01*
X-10079144Y-16367263D01*
X-10079147Y-16367259D01*
X-10097913Y-16338714D01*
X154500Y-16338714D01*
X154500Y-16429686D01*
X166751Y-16475405D01*
X172321Y-16496195D01*
X178046Y-16517558D01*
X184401Y-16528566D01*
X223533Y-16596345D01*
X287219Y-16660031D01*
X304500Y-16701750D01*
X304500Y-16726989D01*
X329099Y-16786375D01*
X334263Y-16798842D01*
X1918565Y-18383144D01*
X3493119Y-19957697D01*
X3510400Y-19999416D01*
X3510400Y-20089486D01*
X3518124Y-20118311D01*
X3531280Y-20167411D01*
X3533946Y-20177358D01*
X3571591Y-20242563D01*
X3579433Y-20256145D01*
X3643754Y-20320466D01*
X3643756Y-20320467D01*
X3643758Y-20320469D01*
X3722542Y-20365954D01*
X3810414Y-20389500D01*
X3810418Y-20389500D01*
X3901382Y-20389500D01*
X3901386Y-20389500D01*
X3989258Y-20365954D01*
X4068042Y-20320469D01*
X4132369Y-20256142D01*
X4177854Y-20177358D01*
X4201400Y-20089486D01*
X4201400Y-19998514D01*
X4177854Y-19910642D01*
X4132369Y-19831858D01*
X4132367Y-19831856D01*
X4132366Y-19831854D01*
X4068045Y-19767533D01*
X4064061Y-19765233D01*
X3989258Y-19722046D01*
X3989257Y-19722045D01*
X3989256Y-19722045D01*
X3948065Y-19711008D01*
X3901386Y-19698500D01*
X3811316Y-19698500D01*
X3769597Y-19681219D01*
X772313Y-16683935D01*
X755032Y-16642216D01*
X772312Y-16600498D01*
X776469Y-16596342D01*
X821954Y-16517558D01*
X845500Y-16429686D01*
X845500Y-16338714D01*
X821954Y-16250842D01*
X776469Y-16172058D01*
X776467Y-16172056D01*
X776466Y-16172054D01*
X712145Y-16107733D01*
X633356Y-16062245D01*
X592576Y-16051318D01*
X545486Y-16038700D01*
X454514Y-16038700D01*
X437515Y-16043255D01*
X366643Y-16062245D01*
X287854Y-16107733D01*
X223533Y-16172054D01*
X178045Y-16250843D01*
X168068Y-16288078D01*
X154500Y-16338714D01*
X-10097913Y-16338714D01*
X-10131067Y-16288285D01*
X-10131351Y-16287849D01*
X-10144084Y-16268056D01*
X-10183193Y-16207260D01*
X-10183507Y-16206766D01*
X-10205353Y-16172054D01*
X-10234606Y-16125572D01*
X-10234796Y-16125266D01*
X-10285135Y-16043485D01*
X-10285379Y-16043085D01*
X-10335000Y-15960647D01*
X-10383811Y-15877698D01*
X-10384033Y-15877315D01*
X-10431813Y-15794240D01*
X-10432103Y-15793730D01*
X-10479045Y-15710201D01*
X-10479330Y-15709689D01*
X-10525491Y-15625605D01*
X-10525746Y-15625135D01*
X-10571101Y-15540536D01*
X-10571221Y-15540309D01*
X-10615796Y-15455140D01*
X-10616007Y-15454732D01*
X-10659643Y-15369302D01*
X-10659907Y-15368778D01*
X-10691572Y-15305233D01*
X-10702673Y-15282956D01*
X-10702924Y-15282444D01*
X-10744793Y-15196283D01*
X-10745046Y-15195756D01*
X-10786115Y-15109066D01*
X-10786287Y-15108696D01*
X-10826482Y-15021619D01*
X-10826725Y-15021086D01*
X-10866051Y-14933617D01*
X-10866289Y-14933080D01*
X-10904675Y-14845381D01*
X-10904907Y-14844844D01*
X-10942507Y-14756567D01*
X-10942703Y-14756101D01*
X-10979438Y-14667412D01*
X-10979584Y-14667056D01*
X-11015417Y-14578053D01*
X-11015623Y-14577534D01*
X-11027121Y-14548136D01*
X-11050577Y-14488165D01*
X-11050775Y-14487649D01*
X-11064378Y-14451822D01*
X-11084773Y-14398104D01*
X-11084966Y-14397587D01*
X-11118095Y-14307652D01*
X-11118296Y-14307100D01*
X-11148688Y-14221991D01*
X-11150562Y-14216744D01*
X-11150728Y-14216269D01*
X-11166561Y-14170499D01*
X-11182086Y-14125622D01*
X-11182253Y-14125130D01*
X-11212775Y-14033974D01*
X-11212826Y-14033819D01*
X-11242422Y-13942426D01*
X-11242544Y-13942040D01*
X-11271178Y-13850521D01*
X-11271351Y-13849960D01*
X-11299079Y-13758139D01*
X-11299245Y-13757578D01*
X-11317409Y-13695197D01*
X-11326052Y-13665516D01*
X-11326189Y-13665037D01*
X-11326480Y-13664000D01*
X-11352092Y-13572664D01*
X-11352234Y-13572145D01*
X-11359421Y-13545499D01*
X-11377222Y-13479500D01*
X-11377339Y-13479058D01*
X-11378011Y-13476466D01*
X-11401370Y-13386304D01*
X-11401509Y-13385759D01*
X-11401960Y-13383945D01*
X-11424665Y-13292576D01*
X-11424787Y-13292071D01*
X-11427055Y-13282542D01*
X-11446977Y-13198828D01*
X-11447100Y-13198298D01*
X-11447197Y-13197870D01*
X-11468377Y-13104770D01*
X-11468448Y-13104451D01*
X-11488805Y-13010670D01*
X-11488927Y-13010095D01*
X-11508330Y-12916211D01*
X-11508446Y-12915637D01*
X-11521363Y-12849846D01*
X-11526969Y-12821290D01*
X-11527006Y-12821095D01*
X-11544594Y-12726544D01*
X-11544652Y-12726218D01*
X-11561239Y-12631840D01*
X-11561337Y-12631267D01*
X-11567502Y-12594021D01*
X-11577029Y-12536466D01*
X-11577080Y-12536146D01*
X-11591820Y-12441262D01*
X-11591869Y-12440936D01*
X-11605676Y-12345821D01*
X-11605749Y-12345291D01*
X-11618561Y-12250398D01*
X-11618637Y-12249818D01*
X-11630547Y-12154477D01*
X-11630573Y-12154254D01*
X-11641524Y-12058883D01*
X-11641566Y-12058501D01*
X-11651590Y-11962839D01*
X-11651611Y-11962626D01*
X-11660684Y-11866839D01*
X-11660704Y-11866611D01*
X-11668827Y-11770715D01*
X-11668846Y-11770484D01*
X-11676000Y-11674704D01*
X-11676034Y-11674218D01*
X-11676276Y-11670486D01*
X-11682232Y-11578440D01*
X-11682263Y-11577916D01*
X-11682263Y-11577914D01*
X-11687508Y-11482109D01*
X-11687518Y-11481903D01*
X-11688744Y-11454514D01*
X-9420500Y-11454514D01*
X-9420500Y-11545486D01*
X-9411382Y-11579514D01*
X-9402107Y-11614130D01*
X-9396954Y-11633358D01*
X-9360238Y-11696954D01*
X-9351467Y-11712145D01*
X-9287146Y-11776466D01*
X-9287144Y-11776467D01*
X-9287142Y-11776469D01*
X-9208358Y-11821954D01*
X-9120486Y-11845500D01*
X-9120482Y-11845500D01*
X-9029518Y-11845500D01*
X-9029514Y-11845500D01*
X-8941642Y-11821954D01*
X-8862858Y-11776469D01*
X-8798531Y-11712142D01*
X-8753046Y-11633358D01*
X-8729500Y-11545486D01*
X-8729500Y-11454514D01*
X-8753046Y-11366642D01*
X-8798531Y-11287858D01*
X-8798533Y-11287856D01*
X-8798534Y-11287854D01*
X-8862855Y-11223533D01*
X-8911435Y-11195486D01*
X-8941642Y-11178046D01*
X-8941643Y-11178045D01*
X-8941644Y-11178045D01*
X-8983843Y-11166738D01*
X-9029514Y-11154500D01*
X-9120486Y-11154500D01*
X-9144031Y-11160809D01*
X-9208357Y-11178045D01*
X-9287146Y-11223533D01*
X-9351467Y-11287854D01*
X-9396955Y-11366643D01*
X-9411382Y-11420486D01*
X-9420500Y-11454514D01*
X-11688744Y-11454514D01*
X-11691821Y-11385775D01*
X-11691831Y-11385524D01*
X-11695181Y-11289309D01*
X-11695188Y-11289097D01*
X-11697575Y-11193009D01*
X-11697581Y-11192695D01*
X-11699015Y-11096648D01*
X-11699018Y-11096309D01*
X-11699500Y-10999201D01*
X-11699500Y-5461214D01*
X-9030700Y-5461214D01*
X-9030700Y-5552186D01*
X-9018082Y-5599276D01*
X-9007155Y-5640056D01*
X-8961667Y-5718845D01*
X-8897346Y-5783166D01*
X-8897344Y-5783167D01*
X-8897342Y-5783169D01*
X-8818558Y-5828654D01*
X-8730686Y-5852200D01*
X-8730682Y-5852200D01*
X-8639718Y-5852200D01*
X-8639714Y-5852200D01*
X-8551842Y-5828654D01*
X-8473058Y-5783169D01*
X-8408731Y-5718842D01*
X-8363246Y-5640058D01*
X-8339700Y-5552186D01*
X-8339700Y-5461214D01*
X-8363246Y-5373342D01*
X-8408731Y-5294558D01*
X-8408733Y-5294556D01*
X-8408734Y-5294554D01*
X-8473055Y-5230233D01*
X-8487395Y-5221954D01*
X-8551842Y-5184746D01*
X-8551843Y-5184745D01*
X-8551844Y-5184745D01*
X-8600977Y-5171580D01*
X-8639714Y-5161200D01*
X-8730686Y-5161200D01*
X-8746733Y-5165500D01*
X-8818557Y-5184745D01*
X-8897346Y-5230233D01*
X-8961667Y-5294554D01*
X-9007155Y-5373343D01*
X-9017551Y-5412142D01*
X-9030700Y-5461214D01*
X-11699500Y-5461214D01*
X-11699500Y-3452314D01*
X-10901200Y-3452314D01*
X-10901200Y-3543286D01*
X-10892418Y-3576058D01*
X-10881608Y-3616404D01*
X-10877654Y-3631158D01*
X-10834283Y-3706281D01*
X-10832167Y-3709945D01*
X-10767846Y-3774266D01*
X-10767844Y-3774267D01*
X-10767842Y-3774269D01*
X-10689058Y-3819754D01*
X-10689056Y-3819755D01*
X-10687143Y-3820547D01*
X-10686405Y-3821285D01*
X-10685709Y-3821687D01*
X-10685817Y-3821873D01*
X-10655211Y-3852475D01*
X-10655208Y-3897632D01*
X-10658622Y-3904556D01*
X-10683554Y-3947740D01*
X-10683555Y-3947742D01*
X-10699696Y-4007983D01*
X-10707100Y-4035614D01*
X-10707100Y-4126586D01*
X-10701580Y-4147186D01*
X-10684071Y-4212532D01*
X-10683554Y-4214458D01*
X-10639161Y-4291351D01*
X-10638067Y-4293245D01*
X-10573746Y-4357566D01*
X-10573744Y-4357567D01*
X-10573742Y-4357569D01*
X-10494958Y-4403054D01*
X-10407086Y-4426600D01*
X-10407082Y-4426600D01*
X-10316118Y-4426600D01*
X-10316114Y-4426600D01*
X-10228242Y-4403054D01*
X-10149458Y-4357569D01*
X-10085131Y-4293242D01*
X-10039646Y-4214458D01*
X-10016100Y-4126586D01*
X-10016100Y-4035614D01*
X-10039646Y-3947742D01*
X-10085131Y-3868958D01*
X-10085133Y-3868956D01*
X-10085134Y-3868954D01*
X-10149455Y-3804633D01*
X-10178982Y-3787586D01*
X-10228242Y-3759146D01*
X-10228247Y-3759143D01*
X-10230163Y-3758350D01*
X-10230903Y-3757610D01*
X-10231591Y-3757213D01*
X-10231485Y-3757028D01*
X-10262092Y-3726419D01*
X-10262091Y-3681262D01*
X-10258678Y-3674342D01*
X-10254728Y-3667500D01*
X-10233746Y-3631158D01*
X-10210200Y-3543286D01*
X-10210200Y-3452314D01*
X-10233746Y-3364442D01*
X-10279231Y-3285658D01*
X-10279233Y-3285656D01*
X-10279234Y-3285654D01*
X-10343555Y-3221333D01*
X-10353676Y-3215490D01*
X-10422342Y-3175846D01*
X-10422343Y-3175845D01*
X-10422344Y-3175845D01*
X-10463124Y-3164918D01*
X-10510214Y-3152300D01*
X-10601186Y-3152300D01*
X-10624731Y-3158609D01*
X-10689057Y-3175845D01*
X-10767846Y-3221333D01*
X-10832167Y-3285654D01*
X-10877655Y-3364443D01*
X-10891271Y-3415258D01*
X-10901200Y-3452314D01*
X-11699500Y-3452314D01*
X-11699500Y-827814D01*
X-10155500Y-827814D01*
X-10155500Y-918786D01*
X-10145444Y-956314D01*
X-10135302Y-994166D01*
X-10131954Y-1006658D01*
X-10108060Y-1048045D01*
X-10086467Y-1085445D01*
X-10022146Y-1149766D01*
X-10022144Y-1149767D01*
X-10022142Y-1149769D01*
X-9943358Y-1195254D01*
X-9855486Y-1218800D01*
X-9855482Y-1218800D01*
X-9764518Y-1218800D01*
X-9764514Y-1218800D01*
X-9676642Y-1195254D01*
X-9597858Y-1149769D01*
X-9533531Y-1085442D01*
X-9488046Y-1006658D01*
X-9464500Y-918786D01*
X-9464500Y-827814D01*
X-9488046Y-739942D01*
X-9533531Y-661158D01*
X-9533533Y-661156D01*
X-9533534Y-661154D01*
X-9597855Y-596833D01*
X-9628127Y-579356D01*
X-9676642Y-551346D01*
X-9676643Y-551345D01*
X-9676644Y-551345D01*
X-9720067Y-539710D01*
X-9764514Y-527800D01*
X-9855486Y-527800D01*
X-9872440Y-532343D01*
X-9943357Y-551345D01*
X-10022146Y-596833D01*
X-10086467Y-661154D01*
X-10131955Y-739943D01*
X-10145571Y-790758D01*
X-10155500Y-827814D01*
X-11699500Y-827814D01*
X-11699500Y804286D01*
X-10944300Y804286D01*
X-10944300Y713314D01*
X-10936043Y682500D01*
X-10924120Y638001D01*
X-10920754Y625442D01*
X-10888879Y570231D01*
X-10875267Y546655D01*
X-10810945Y482333D01*
X-10810943Y482332D01*
X-10810942Y482331D01*
X-10742266Y442682D01*
X-10714776Y406857D01*
X-10720669Y362087D01*
X-10730041Y349872D01*
X-10731466Y348448D01*
X-10776955Y269657D01*
X-10783668Y244602D01*
X-10800500Y181786D01*
X-10800500Y90814D01*
X-10796836Y77142D01*
X-10785821Y36031D01*
X-10776954Y2942D01*
X-10744169Y-53845D01*
X-10731467Y-75845D01*
X-10667146Y-140166D01*
X-10667144Y-140167D01*
X-10667142Y-140169D01*
X-10588358Y-185654D01*
X-10500486Y-209200D01*
X-10500482Y-209200D01*
X-10409518Y-209200D01*
X-10409514Y-209200D01*
X-10321642Y-185654D01*
X-10242858Y-140169D01*
X-10178531Y-75842D01*
X-10133046Y2942D01*
X-10109500Y90814D01*
X-10109500Y181786D01*
X-10133046Y269658D01*
X-10178531Y348442D01*
X-10178533Y348444D01*
X-10178534Y348446D01*
X-10242855Y412767D01*
X-10244204Y413546D01*
X-10311537Y452420D01*
X-10316401Y458760D01*
X-10323782Y461822D01*
X-10329661Y476040D01*
X-10339025Y488244D01*
X-10337983Y496167D01*
X-10341036Y503553D01*
X-10335140Y517763D01*
X-10333132Y533015D01*
X-10323733Y545257D01*
X-10322943Y546046D01*
X-10281250Y563300D01*
X-8568717Y563300D01*
X-8526998Y546019D01*
X-8277781Y296802D01*
X-8260500Y255083D01*
X-8260500Y165014D01*
X-8250549Y127876D01*
X-8236955Y77143D01*
X-8234446Y72798D01*
X-8228554Y28027D01*
X-8256045Y-7797D01*
X-8285543Y-15700D01*
X-8544190Y-15700D01*
X-8616041Y-45462D01*
X-8616044Y-45464D01*
X-9149936Y-579356D01*
X-9149938Y-579359D01*
X-9179700Y-651210D01*
X-9179700Y-1109389D01*
X-9149938Y-1181240D01*
X-9149936Y-1181243D01*
X-8872203Y-1458975D01*
X-8872200Y-1458979D01*
X-8868837Y-1462342D01*
X-8813842Y-1517337D01*
X-8764949Y-1537589D01*
X-8741988Y-1547100D01*
X-8741987Y-1547100D01*
X-7055211Y-1547100D01*
X-7013492Y-1564381D01*
X-6996211Y-1606100D01*
X-6998221Y-1621370D01*
X-6999278Y-1625314D01*
X-7020500Y-1704514D01*
X-7020500Y-1795486D01*
X-7010764Y-1831819D01*
X-6999814Y-1872687D01*
X-6996954Y-1883358D01*
X-6980939Y-1911098D01*
X-6951467Y-1962145D01*
X-6887146Y-2026466D01*
X-6887144Y-2026467D01*
X-6887142Y-2026469D01*
X-6808358Y-2071954D01*
X-6720486Y-2095500D01*
X-6720482Y-2095500D01*
X-6629518Y-2095500D01*
X-6629514Y-2095500D01*
X-6541642Y-2071954D01*
X-6462858Y-2026469D01*
X-6398531Y-1962142D01*
X-6353046Y-1883358D01*
X-6329500Y-1795486D01*
X-6329500Y-1704514D01*
X-6353046Y-1616642D01*
X-6398531Y-1537858D01*
X-6398533Y-1537856D01*
X-6398534Y-1537854D01*
X-6412219Y-1524169D01*
X-6429500Y-1482450D01*
X-6429500Y-1482375D01*
X-6425010Y-1459798D01*
X-6396300Y-1390487D01*
X-6396300Y-1312713D01*
X-6426063Y-1240858D01*
X-6481058Y-1185863D01*
X-6481060Y-1185862D01*
X-6552911Y-1156100D01*
X-6552913Y-1156100D01*
X-6917738Y-1156100D01*
X-6959457Y-1138819D01*
X-6976738Y-1097100D01*
X-6959457Y-1055381D01*
X-6950519Y-1048045D01*
X-6950062Y-1047738D01*
X-6950058Y-1047737D01*
X-5312863Y589458D01*
X-5283100Y661313D01*
X-5283100Y739088D01*
X-5283100Y1897483D01*
X-5265819Y1939202D01*
X-3379902Y3825119D01*
X-3338183Y3842400D01*
X2757981Y3842400D01*
X2765347Y3839349D01*
X2773252Y3840389D01*
X2785470Y3831014D01*
X2799700Y3825119D01*
X2809077Y3812899D01*
X2816274Y3800433D01*
X2822167Y3755663D01*
X2794677Y3719838D01*
X2794676Y3719838D01*
X2768058Y3704470D01*
X2768056Y3704468D01*
X2703733Y3640146D01*
X2658245Y3561357D01*
X2641201Y3497746D01*
X2634700Y3473486D01*
X2634700Y3382514D01*
X2643507Y3349648D01*
X2656286Y3301954D01*
X2658246Y3294642D01*
X2681816Y3253816D01*
X2703733Y3215855D01*
X2768054Y3151534D01*
X2768056Y3151533D01*
X2768058Y3151531D01*
X2846842Y3106046D01*
X2934714Y3082500D01*
X2934718Y3082500D01*
X3025682Y3082500D01*
X3025686Y3082500D01*
X3113558Y3106046D01*
X3192342Y3151531D01*
X3256669Y3215858D01*
X3302154Y3294642D01*
X3302155Y3294644D01*
X3304088Y3297992D01*
X3304849Y3297553D01*
X3313728Y3310851D01*
X3946841Y3943965D01*
X3946845Y3943967D01*
X3955141Y3952263D01*
X3955142Y3952263D01*
X4010137Y4007258D01*
X4039900Y4079113D01*
X4039900Y7175087D01*
X4010137Y7246942D01*
X3955142Y7301937D01*
X3685698Y7571381D01*
X3668417Y7613100D01*
X3685698Y7654819D01*
X3727417Y7672100D01*
X4885183Y7672100D01*
X4926902Y7654819D01*
X6078354Y6503368D01*
X6095635Y6461649D01*
X6078354Y6419930D01*
X6051906Y6404660D01*
X6014948Y6394757D01*
X6014944Y6394756D01*
X5936154Y6349267D01*
X5871833Y6284946D01*
X5826345Y6206157D01*
X5820558Y6184558D01*
X5802800Y6118286D01*
X5802800Y6027314D01*
X5826346Y5939442D01*
X5854974Y5889855D01*
X5871833Y5860655D01*
X5936154Y5796334D01*
X5936156Y5796333D01*
X5936158Y5796331D01*
X6014942Y5750846D01*
X6102814Y5727300D01*
X6102818Y5727300D01*
X6193782Y5727300D01*
X6193786Y5727300D01*
X6281658Y5750846D01*
X6302701Y5762996D01*
X6347471Y5768889D01*
X6383296Y5741399D01*
X6391200Y5711899D01*
X6391200Y4666618D01*
X6373919Y4624899D01*
X5745119Y3996099D01*
X5703400Y3978818D01*
X5661681Y3996099D01*
X5644400Y4037818D01*
X5644400Y4060482D01*
X5644400Y4060486D01*
X5620854Y4148358D01*
X5575369Y4227142D01*
X5575367Y4227144D01*
X5575366Y4227146D01*
X5511045Y4291467D01*
X5491971Y4302479D01*
X5432258Y4336954D01*
X5432257Y4336955D01*
X5432256Y4336955D01*
X5391476Y4347882D01*
X5344386Y4360500D01*
X5253414Y4360500D01*
X5229869Y4354191D01*
X5165543Y4336955D01*
X5086754Y4291467D01*
X5022433Y4227146D01*
X4976945Y4148357D01*
X4964774Y4102934D01*
X4953400Y4060486D01*
X4953400Y3969514D01*
X4976946Y3881642D01*
X5006175Y3831014D01*
X5022433Y3802855D01*
X5086755Y3738533D01*
X5086757Y3738532D01*
X5086758Y3738531D01*
X5145758Y3704468D01*
X5157178Y3697875D01*
X5184668Y3662050D01*
X5178775Y3617280D01*
X5157179Y3595684D01*
X5098958Y3562070D01*
X5098956Y3562068D01*
X5034633Y3497746D01*
X4989145Y3418957D01*
X4971909Y3354631D01*
X4965600Y3331086D01*
X4965600Y3240114D01*
X4978218Y3193024D01*
X4985474Y3165943D01*
X4989146Y3152242D01*
X5030028Y3081430D01*
X5034633Y3073455D01*
X5098956Y3009132D01*
X5102024Y3006778D01*
X5100880Y3005288D01*
X5124604Y2974368D01*
X5118708Y2929598D01*
X5082882Y2902110D01*
X5067614Y2900100D01*
X2392317Y2900100D01*
X2350598Y2917381D01*
X2260043Y3007936D01*
X2260042Y3007937D01*
X2260040Y3007938D01*
X2188189Y3037700D01*
X2188187Y3037700D01*
X936505Y3037700D01*
X894786Y3054981D01*
X877505Y3096700D01*
X885409Y3126199D01*
X888325Y3131252D01*
X908354Y3165942D01*
X931900Y3253814D01*
X931900Y3344786D01*
X908354Y3432658D01*
X862869Y3511442D01*
X862867Y3511444D01*
X862866Y3511446D01*
X798545Y3575767D01*
X743487Y3607554D01*
X719758Y3621254D01*
X719757Y3621255D01*
X719756Y3621255D01*
X678976Y3632182D01*
X631886Y3644800D01*
X540914Y3644800D01*
X523546Y3640146D01*
X453043Y3621255D01*
X374254Y3575767D01*
X309933Y3511446D01*
X264445Y3432657D01*
X247209Y3368331D01*
X240900Y3344786D01*
X240900Y3253814D01*
X244571Y3240114D01*
X264445Y3165943D01*
X264446Y3165942D01*
X287391Y3126199D01*
X289400Y3110930D01*
X295295Y3096700D01*
X292243Y3089334D01*
X293284Y3081429D01*
X283908Y3069211D01*
X278014Y3054981D01*
X270648Y3051930D01*
X265794Y3045604D01*
X236295Y3037700D01*
X127599Y3037700D01*
X85880Y3054981D01*
X70609Y3081430D01*
X70322Y3082500D01*
X62054Y3113358D01*
X16569Y3192142D01*
X16567Y3192144D01*
X16566Y3192146D01*
X-47755Y3256467D01*
X-113881Y3294644D01*
X-126542Y3301954D01*
X-126543Y3301955D01*
X-126544Y3301955D01*
X-167324Y3312882D01*
X-214414Y3325500D01*
X-305386Y3325500D01*
X-328931Y3319191D01*
X-393257Y3301955D01*
X-472046Y3256467D01*
X-536367Y3192146D01*
X-581855Y3113357D01*
X-593684Y3069211D01*
X-605400Y3025486D01*
X-605400Y2934514D01*
X-581854Y2846642D01*
X-540905Y2775714D01*
X-536367Y2767855D01*
X-472049Y2703537D01*
X-472045Y2703534D01*
X-472042Y2703531D01*
X-472040Y2703530D01*
X-468928Y2701733D01*
X-467390Y2699728D01*
X-464917Y2699197D01*
X-453846Y2682076D01*
X-441440Y2665907D01*
X-441770Y2663402D01*
X-440397Y2661278D01*
X-444041Y2646163D01*
X-447336Y2621137D01*
X-449872Y2617126D01*
X-450957Y2615555D01*
X-451069Y2615442D01*
X-451248Y2615134D01*
X-452605Y2613166D01*
X-453025Y2612895D01*
X-453417Y2612383D01*
X-453600Y2612523D01*
X-469738Y2602088D01*
X-485927Y2589680D01*
X-488416Y2590010D01*
X-490524Y2588646D01*
X-510474Y2592928D01*
X-530694Y2595602D01*
X-533703Y2597913D01*
X-534676Y2598121D01*
X-535368Y2599191D01*
X-542882Y2604960D01*
X-924857Y2986936D01*
X-924858Y2986937D01*
X-924860Y2986938D01*
X-996711Y3016700D01*
X-996713Y3016700D01*
X-1321150Y3016700D01*
X-1362869Y3033981D01*
X-1426555Y3097667D01*
X-1449528Y3110930D01*
X-1505342Y3143154D01*
X-1505343Y3143155D01*
X-1505344Y3143155D01*
X-1546124Y3154082D01*
X-1593214Y3166700D01*
X-1684186Y3166700D01*
X-1707731Y3160391D01*
X-1772057Y3143155D01*
X-1850846Y3097667D01*
X-1915167Y3033346D01*
X-1960655Y2954557D01*
X-1977891Y2890231D01*
X-1984200Y2866686D01*
X-1984200Y2775714D01*
X-1982094Y2767855D01*
X-1960655Y2687843D01*
X-1960652Y2687838D01*
X-1957916Y2683098D01*
X-1952023Y2638328D01*
X-1979514Y2602504D01*
X-2009012Y2594600D01*
X-4274913Y2594600D01*
X-4352688Y2594600D01*
X-4369077Y2587811D01*
X-4424541Y2564838D01*
X-4424544Y2564836D01*
X-4479538Y2509841D01*
X-5054233Y1935149D01*
X-5054242Y1935137D01*
X-5100938Y1888441D01*
X-5130700Y1816590D01*
X-5130700Y-655389D01*
X-5117813Y-686500D01*
X-5100937Y-727242D01*
X-3177242Y-2650937D01*
X-3131931Y-2669705D01*
X-3105390Y-2680699D01*
X-3105387Y-2680700D01*
X-3027613Y-2680700D01*
X-267450Y-2680700D01*
X-225731Y-2697981D01*
X-208450Y-2739700D01*
X-225731Y-2781419D01*
X-275967Y-2831654D01*
X-321455Y-2910443D01*
X-338691Y-2974769D01*
X-345000Y-2998314D01*
X-345000Y-3089286D01*
X-332493Y-3135960D01*
X-330545Y-3143230D01*
X-336440Y-3188000D01*
X-372265Y-3215490D01*
X-387535Y-3217500D01*
X-1630291Y-3217500D01*
X-1651334Y-3226216D01*
X-1651334Y-3226217D01*
X-1702142Y-3247263D01*
X-1702144Y-3247264D01*
X-1702146Y-3247265D01*
X-1719499Y-3264619D01*
X-1761218Y-3281900D01*
X-1851286Y-3281900D01*
X-1869845Y-3286873D01*
X-1939157Y-3305445D01*
X-2017946Y-3350933D01*
X-2082267Y-3415254D01*
X-2127755Y-3494043D01*
X-2140948Y-3543282D01*
X-2151300Y-3581914D01*
X-2151300Y-3672886D01*
X-2141370Y-3709945D01*
X-2128400Y-3758350D01*
X-2127754Y-3760758D01*
X-2087499Y-3830484D01*
X-2082267Y-3839545D01*
X-2017946Y-3903866D01*
X-2017944Y-3903867D01*
X-2017942Y-3903869D01*
X-1939158Y-3949354D01*
X-1851286Y-3972900D01*
X-1851282Y-3972900D01*
X-1760318Y-3972900D01*
X-1760314Y-3972900D01*
X-1672442Y-3949354D01*
X-1593658Y-3903869D01*
X-1529331Y-3839542D01*
X-1483846Y-3760758D01*
X-1460300Y-3672886D01*
X-1460300Y-3667500D01*
X-1443019Y-3625781D01*
X-1401300Y-3608500D01*
X-1293684Y-3608500D01*
X-1251965Y-3625781D01*
X-1234684Y-3667500D01*
X-1242588Y-3696999D01*
X-1257854Y-3723441D01*
X-1257855Y-3723442D01*
X-1272941Y-3779746D01*
X-1281400Y-3811314D01*
X-1281400Y-3902286D01*
X-1262479Y-3972899D01*
X-1256853Y-3993894D01*
X-1258120Y-3994233D01*
X-1258118Y-4034674D01*
X-1290048Y-4066605D01*
X-1327897Y-4069086D01*
X-1345014Y-4064500D01*
X-1435986Y-4064500D01*
X-1452563Y-4068942D01*
X-1523857Y-4088045D01*
X-1602646Y-4133533D01*
X-1666967Y-4197854D01*
X-1712455Y-4276643D01*
X-1724972Y-4323358D01*
X-1736000Y-4364514D01*
X-1736000Y-4455486D01*
X-1728544Y-4483311D01*
X-1713484Y-4539517D01*
X-1712454Y-4543358D01*
X-1675216Y-4607858D01*
X-1666967Y-4622145D01*
X-1602646Y-4686466D01*
X-1602644Y-4686467D01*
X-1602642Y-4686469D01*
X-1523858Y-4731954D01*
X-1435986Y-4755500D01*
X-1435982Y-4755500D01*
X-1345018Y-4755500D01*
X-1345014Y-4755500D01*
X-1257142Y-4731954D01*
X-1255490Y-4730999D01*
X-1254536Y-4730874D01*
X-1253572Y-4730475D01*
X-1253466Y-4730733D01*
X-1210721Y-4725101D01*
X-1174893Y-4752586D01*
X-1172584Y-4757267D01*
X-1160756Y-4777754D01*
X-1142386Y-4809573D01*
X-1126467Y-4837145D01*
X-1059831Y-4903781D01*
X-1042550Y-4945500D01*
X-1059831Y-4987219D01*
X-1101550Y-5004500D01*
X-1701484Y-5004500D01*
X-1743203Y-4987219D01*
X-3402657Y-3327764D01*
X-3402658Y-3327763D01*
X-3402660Y-3327762D01*
X-3474511Y-3298000D01*
X-3474513Y-3298000D01*
X-5406900Y-3298000D01*
X-5448619Y-3280719D01*
X-5465900Y-3239000D01*
X-5465900Y-3187055D01*
X-5448619Y-3145336D01*
X-5406900Y-3128055D01*
X-5377402Y-3135959D01*
X-5358358Y-3146954D01*
X-5270486Y-3170500D01*
X-5270482Y-3170500D01*
X-5179518Y-3170500D01*
X-5179514Y-3170500D01*
X-5091642Y-3146954D01*
X-5012858Y-3101469D01*
X-4948531Y-3037142D01*
X-4903046Y-2958358D01*
X-4879500Y-2870486D01*
X-4879500Y-2779514D01*
X-4903046Y-2691642D01*
X-4948531Y-2612858D01*
X-4948533Y-2612856D01*
X-4948534Y-2612854D01*
X-5012855Y-2548533D01*
X-5027462Y-2540100D01*
X-5091642Y-2503046D01*
X-5091643Y-2503045D01*
X-5091644Y-2503045D01*
X-5132424Y-2492118D01*
X-5179514Y-2479500D01*
X-5270486Y-2479500D01*
X-5289056Y-2484475D01*
X-5358358Y-2503045D01*
X-5358359Y-2503046D01*
X-5377401Y-2514040D01*
X-5422171Y-2519933D01*
X-5457996Y-2492443D01*
X-5465900Y-2462944D01*
X-5465900Y-1689618D01*
X-5462455Y-1676593D01*
X-5465900Y-1651066D01*
X-5465900Y-1625313D01*
X-5471056Y-1612867D01*
X-5472857Y-1599516D01*
X-5485807Y-1577252D01*
X-5487324Y-1573589D01*
X-5487324Y-1573588D01*
X-5495662Y-1553460D01*
X-5495663Y-1553459D01*
X-5495663Y-1553458D01*
X-5499764Y-1549357D01*
X-5509045Y-1537303D01*
X-5610947Y-1362117D01*
X-5616986Y-1317367D01*
X-5594000Y-1231586D01*
X-5594000Y-1140614D01*
X-5617546Y-1052742D01*
X-5663031Y-973958D01*
X-5663033Y-973956D01*
X-5663034Y-973954D01*
X-5727355Y-909633D01*
X-5798700Y-868443D01*
X-5806142Y-864146D01*
X-5806143Y-864145D01*
X-5806144Y-864145D01*
X-5846924Y-853218D01*
X-5894014Y-840600D01*
X-5984986Y-840600D01*
X-6008531Y-846909D01*
X-6072857Y-864145D01*
X-6151646Y-909633D01*
X-6215967Y-973954D01*
X-6261455Y-1052743D01*
X-6276633Y-1109389D01*
X-6285000Y-1140614D01*
X-6285000Y-1231586D01*
X-6284999Y-1231589D01*
X-6262039Y-1317278D01*
X-6261454Y-1319458D01*
X-6225970Y-1380920D01*
X-6215967Y-1398245D01*
X-6151646Y-1462566D01*
X-6151644Y-1462567D01*
X-6151642Y-1462569D01*
X-6072858Y-1508054D01*
X-5984986Y-1531600D01*
X-5984983Y-1531600D01*
X-5984453Y-1531742D01*
X-5948724Y-1559066D01*
X-5864901Y-1703169D01*
X-5856900Y-1732835D01*
X-5856900Y-4138250D01*
X-5874181Y-4179969D01*
X-5937867Y-4243654D01*
X-5983355Y-4322443D01*
X-6000591Y-4386769D01*
X-6006900Y-4410314D01*
X-6006900Y-4501286D01*
X-6001755Y-4520486D01*
X-5983355Y-4589156D01*
X-5937867Y-4667945D01*
X-5873546Y-4732266D01*
X-5873544Y-4732267D01*
X-5873542Y-4732269D01*
X-5794758Y-4777754D01*
X-5706886Y-4801300D01*
X-5706882Y-4801300D01*
X-5654500Y-4801300D01*
X-5612781Y-4818581D01*
X-5595500Y-4860300D01*
X-5595500Y-4945486D01*
X-5593058Y-4954599D01*
X-5572094Y-5032838D01*
X-5571954Y-5033358D01*
X-5535518Y-5096469D01*
X-5526467Y-5112145D01*
X-5462145Y-5176467D01*
X-5462143Y-5176468D01*
X-5462142Y-5176469D01*
X-5427308Y-5196580D01*
X-5421242Y-5200082D01*
X-5393752Y-5235907D01*
X-5399645Y-5280677D01*
X-5409022Y-5292897D01*
X-6129667Y-6013543D01*
X-6147167Y-6025624D01*
X-6155777Y-6029500D01*
X-6158915Y-6029500D01*
X-6216662Y-6053420D01*
X-6221580Y-6055457D01*
X-6228248Y-6062123D01*
X-6238103Y-6066560D01*
X-6238709Y-6066578D01*
X-6239742Y-6067268D01*
X-6266662Y-6078420D01*
X-6271580Y-6080457D01*
X-6271582Y-6080458D01*
X-6276411Y-6083685D01*
X-6276561Y-6083461D01*
X-6289741Y-6092268D01*
X-6312632Y-6101750D01*
X-6312636Y-6101751D01*
X-6316662Y-6103420D01*
X-6321580Y-6105457D01*
X-6325738Y-6109614D01*
X-6331967Y-6113352D01*
X-6334428Y-6113718D01*
X-6339742Y-6117268D01*
X-6361061Y-6126100D01*
X-6371580Y-6130457D01*
X-6376409Y-6133684D01*
X-6376559Y-6133460D01*
X-6389742Y-6142268D01*
X-6407551Y-6149646D01*
X-6408425Y-6150008D01*
X-6408430Y-6150008D01*
X-6431005Y-6154500D01*
X-6433915Y-6154500D01*
X-6491662Y-6178420D01*
X-6491662Y-6178419D01*
X-6496576Y-6180454D01*
X-6501411Y-6183685D01*
X-6501561Y-6183461D01*
X-6514742Y-6192268D01*
X-6541662Y-6203420D01*
X-6546580Y-6205457D01*
X-6546582Y-6205458D01*
X-6551411Y-6208685D01*
X-6551561Y-6208461D01*
X-6564741Y-6217268D01*
X-6587632Y-6226750D01*
X-6587636Y-6226751D01*
X-6591662Y-6228420D01*
X-6596580Y-6230457D01*
X-6600738Y-6234614D01*
X-6606967Y-6238352D01*
X-6609428Y-6238718D01*
X-6614742Y-6242268D01*
X-6641662Y-6253420D01*
X-6646580Y-6255457D01*
X-6646582Y-6255458D01*
X-6651411Y-6258685D01*
X-6651561Y-6258461D01*
X-6664742Y-6267268D01*
X-6683426Y-6275008D01*
X-6706005Y-6279500D01*
X-6708915Y-6279500D01*
X-6766662Y-6303420D01*
X-6766662Y-6303419D01*
X-6771576Y-6305454D01*
X-6776411Y-6308685D01*
X-6776560Y-6308462D01*
X-6789738Y-6317265D01*
X-6804856Y-6323529D01*
X-6804862Y-6323532D01*
X-6821578Y-6330455D01*
X-6826409Y-6333684D01*
X-6826559Y-6333460D01*
X-6839742Y-6342268D01*
X-6866662Y-6353420D01*
X-6871580Y-6355457D01*
X-6871582Y-6355458D01*
X-6876411Y-6358685D01*
X-6876561Y-6358461D01*
X-6889741Y-6367268D01*
X-6912632Y-6376750D01*
X-6912636Y-6376751D01*
X-6916662Y-6378420D01*
X-6921580Y-6380457D01*
X-6925738Y-6384614D01*
X-6931967Y-6388352D01*
X-6934428Y-6388718D01*
X-6939742Y-6392268D01*
X-6958427Y-6400008D01*
X-6981005Y-6404500D01*
X-6983915Y-6404500D01*
X-7032802Y-6424749D01*
X-7032809Y-6424752D01*
X-7036095Y-6426114D01*
X-7046580Y-6430457D01*
X-7051310Y-6435185D01*
X-7058343Y-6439152D01*
X-7060463Y-6439409D01*
X-7064738Y-6442265D01*
X-7079856Y-6448529D01*
X-7079862Y-6448532D01*
X-7096578Y-6455455D01*
X-7101409Y-6458684D01*
X-7101559Y-6458460D01*
X-7114742Y-6467268D01*
X-7140759Y-6478046D01*
X-7146580Y-6480457D01*
X-7146582Y-6480458D01*
X-7151411Y-6483685D01*
X-7151561Y-6483461D01*
X-7164750Y-6492271D01*
X-7168300Y-6493741D01*
X-7213456Y-6493736D01*
X-7220371Y-6490326D01*
X-7241641Y-6478046D01*
X-7241643Y-6478045D01*
X-7300700Y-6462221D01*
X-7329514Y-6454500D01*
X-7420486Y-6454500D01*
X-7424057Y-6455457D01*
X-7508357Y-6478045D01*
X-7587144Y-6523532D01*
X-7633705Y-6570093D01*
X-7675425Y-6587373D01*
X-7717144Y-6570092D01*
X-7732413Y-6543646D01*
X-7753046Y-6466642D01*
X-7798531Y-6387858D01*
X-7798533Y-6387856D01*
X-7798534Y-6387854D01*
X-7862855Y-6323533D01*
X-7862862Y-6323529D01*
X-7941642Y-6278046D01*
X-7941643Y-6278045D01*
X-7941644Y-6278045D01*
X-7982424Y-6267118D01*
X-8029514Y-6254500D01*
X-8120486Y-6254500D01*
X-8135268Y-6258461D01*
X-8208357Y-6278045D01*
X-8287146Y-6323533D01*
X-8351467Y-6387854D01*
X-8396955Y-6466643D01*
X-8410470Y-6517082D01*
X-8420500Y-6554514D01*
X-8420500Y-6645486D01*
X-8411895Y-6677600D01*
X-8399197Y-6724990D01*
X-8396954Y-6733358D01*
X-8353486Y-6808649D01*
X-8351467Y-6812145D01*
X-8287146Y-6876466D01*
X-8287144Y-6876467D01*
X-8287142Y-6876469D01*
X-8208358Y-6921954D01*
X-8120486Y-6945500D01*
X-8120482Y-6945500D01*
X-8029518Y-6945500D01*
X-8029514Y-6945500D01*
X-7941642Y-6921954D01*
X-7862858Y-6876469D01*
X-7816296Y-6829906D01*
X-7774578Y-6812626D01*
X-7732858Y-6829906D01*
X-7717589Y-6856353D01*
X-7709219Y-6887586D01*
X-7697732Y-6930458D01*
X-7696954Y-6933358D01*
X-7652128Y-7011001D01*
X-7651467Y-7012145D01*
X-7587146Y-7076466D01*
X-7587144Y-7076467D01*
X-7587142Y-7076469D01*
X-7508358Y-7121954D01*
X-7420486Y-7145500D01*
X-7420482Y-7145500D01*
X-7329518Y-7145500D01*
X-7329514Y-7145500D01*
X-7241642Y-7121954D01*
X-7162858Y-7076469D01*
X-7098531Y-7012142D01*
X-7053046Y-6933358D01*
X-7029500Y-6845486D01*
X-7029500Y-6845482D01*
X-7028500Y-6841751D01*
X-7027508Y-6842016D01*
X-7027859Y-6838647D01*
X-7018627Y-6828402D01*
X-7007222Y-6808649D01*
X-6999409Y-6803580D01*
X-6996719Y-6802122D01*
X-6978420Y-6794543D01*
X-6973328Y-6789450D01*
X-6965782Y-6785362D01*
X-6963901Y-6785166D01*
X-6960254Y-6782729D01*
X-6954571Y-6780374D01*
X-6928420Y-6769543D01*
X-6928418Y-6769540D01*
X-6923589Y-6766315D01*
X-6923439Y-6766539D01*
X-6910256Y-6757729D01*
X-6891570Y-6749990D01*
X-6868994Y-6745500D01*
X-6867450Y-6745500D01*
X-6856607Y-6749991D01*
X-6846414Y-6749992D01*
X-6839208Y-6757198D01*
X-6825731Y-6762781D01*
X-6820148Y-6776259D01*
X-6814484Y-6781924D01*
X-6814485Y-6789932D01*
X-6808450Y-6804500D01*
X-6814486Y-6819070D01*
X-6814486Y-6827080D01*
X-6820149Y-6832742D01*
X-6825731Y-6846219D01*
X-6883367Y-6903854D01*
X-6928855Y-6982643D01*
X-6942443Y-7033356D01*
X-6952400Y-7070514D01*
X-6952400Y-7161486D01*
X-6944407Y-7191315D01*
X-6930145Y-7244543D01*
X-6928854Y-7249358D01*
X-6884337Y-7326466D01*
X-6883367Y-7328145D01*
X-6819046Y-7392466D01*
X-6819044Y-7392467D01*
X-6819042Y-7392469D01*
X-6740258Y-7437954D01*
X-6724553Y-7442162D01*
X-6721325Y-7444639D01*
X-6717255Y-7444639D01*
X-6703814Y-7458076D01*
X-6688728Y-7469652D01*
X-6688197Y-7473688D01*
X-6685319Y-7476565D01*
X-6685316Y-7495572D01*
X-6682834Y-7514423D01*
X-6685312Y-7517651D01*
X-6685311Y-7521721D01*
X-6698749Y-7535162D01*
X-6710324Y-7550248D01*
X-6717237Y-7553657D01*
X-6719264Y-7554497D01*
X-6719266Y-7554498D01*
X-6721579Y-7555456D01*
X-6726411Y-7558685D01*
X-6726561Y-7558461D01*
X-6739742Y-7567268D01*
X-6766662Y-7578420D01*
X-6766667Y-7578421D01*
X-6766667Y-7578422D01*
X-6771579Y-7580456D01*
X-6771581Y-7580457D01*
X-6825591Y-7634468D01*
X-6871580Y-7680457D01*
X-6894169Y-7703046D01*
X-6919544Y-7728420D01*
X-6932733Y-7760259D01*
X-6934469Y-7764063D01*
X-6938751Y-7772627D01*
X-6944543Y-7778420D01*
X-6958534Y-7812194D01*
X-6959468Y-7814063D01*
X-6961385Y-7815724D01*
X-6966538Y-7823437D01*
X-6966314Y-7823587D01*
X-6969542Y-7828417D01*
X-6995500Y-7891085D01*
X-6995500Y-8368993D01*
X-6999992Y-8391572D01*
X-7007732Y-8410257D01*
X-7016538Y-8423437D01*
X-7016314Y-8423587D01*
X-7019542Y-8428417D01*
X-7045500Y-8491085D01*
X-7045500Y-8604938D01*
X-7062781Y-8646657D01*
X-7206730Y-8790605D01*
X-7225870Y-8803394D01*
X-7282038Y-8826660D01*
X-7282044Y-8826664D01*
X-7337036Y-8881656D01*
X-7337038Y-8881659D01*
X-7366800Y-8953510D01*
X-7366800Y-10764939D01*
X-7384081Y-10806658D01*
X-7410529Y-10821928D01*
X-7417156Y-10823704D01*
X-7433357Y-10828045D01*
X-7512146Y-10873533D01*
X-7576467Y-10937854D01*
X-7621955Y-11016643D01*
X-7639191Y-11080969D01*
X-7645500Y-11104514D01*
X-7645500Y-11195486D01*
X-7633132Y-11241642D01*
X-7626166Y-11267641D01*
X-7621954Y-11283358D01*
X-7590901Y-11337145D01*
X-7576467Y-11362145D01*
X-7512146Y-11426466D01*
X-7512144Y-11426467D01*
X-7512142Y-11426469D01*
X-7433358Y-11471954D01*
X-7345486Y-11495500D01*
X-7279917Y-11495500D01*
X-7238198Y-11512781D01*
X-5471803Y-13279175D01*
X-5471800Y-13279179D01*
X-5468437Y-13282542D01*
X-5413442Y-13337537D01*
X-5368117Y-13356311D01*
X-5341588Y-13367300D01*
X-5341587Y-13367300D01*
X-3499898Y-13367300D01*
X-3458179Y-13384581D01*
X-3440898Y-13426300D01*
X-3458179Y-13468019D01*
X-3484627Y-13483288D01*
X-3515888Y-13491665D01*
X-3558357Y-13503045D01*
X-3637146Y-13548533D01*
X-3701468Y-13612855D01*
X-3713963Y-13634499D01*
X-3749788Y-13661989D01*
X-3765059Y-13664000D01*
X-6197484Y-13664000D01*
X-6239203Y-13646719D01*
X-6712367Y-13173555D01*
X-7189258Y-12696663D01*
X-7192995Y-12695115D01*
X-7261111Y-12666900D01*
X-7261113Y-12666900D01*
X-7274413Y-12666900D01*
X-7296992Y-12662408D01*
X-7316081Y-12654500D01*
X-7316085Y-12654500D01*
X-7383915Y-12654500D01*
X-7446580Y-12680457D01*
X-7478781Y-12712658D01*
X-7520501Y-12729938D01*
X-7562220Y-12712657D01*
X-7579500Y-12670938D01*
X-7579500Y-12579518D01*
X-7579500Y-12579514D01*
X-7603046Y-12491642D01*
X-7648531Y-12412858D01*
X-7648533Y-12412856D01*
X-7648534Y-12412854D01*
X-7712855Y-12348533D01*
X-7717873Y-12345636D01*
X-7791642Y-12303046D01*
X-7791643Y-12303045D01*
X-7791644Y-12303045D01*
X-7840941Y-12289836D01*
X-7879514Y-12279500D01*
X-7970486Y-12279500D01*
X-7994031Y-12285809D01*
X-8058357Y-12303045D01*
X-8137146Y-12348533D01*
X-8201467Y-12412854D01*
X-8246955Y-12491643D01*
X-8257319Y-12530323D01*
X-8270500Y-12579514D01*
X-8270500Y-12670486D01*
X-8263485Y-12696664D01*
X-8254570Y-12729938D01*
X-8246954Y-12758358D01*
X-8210816Y-12820953D01*
X-8201467Y-12837145D01*
X-8137146Y-12901466D01*
X-8137144Y-12901467D01*
X-8137142Y-12901469D01*
X-8058358Y-12946954D01*
X-8058354Y-12946956D01*
X-8055544Y-12948120D01*
X-8023614Y-12980051D01*
X-8023616Y-13025208D01*
X-8027028Y-13032127D01*
X-8046954Y-13066640D01*
X-8046955Y-13066642D01*
X-8062944Y-13126314D01*
X-8070500Y-13154514D01*
X-8070500Y-13245486D01*
X-8058017Y-13292071D01*
X-8054511Y-13305158D01*
X-8046954Y-13333358D01*
X-8010786Y-13396005D01*
X-8001467Y-13412145D01*
X-7937146Y-13476466D01*
X-7937144Y-13476467D01*
X-7937142Y-13476469D01*
X-7858358Y-13521954D01*
X-7770486Y-13545500D01*
X-7770482Y-13545500D01*
X-7679518Y-13545500D01*
X-7679514Y-13545500D01*
X-7591642Y-13521954D01*
X-7512858Y-13476469D01*
X-7448531Y-13412142D01*
X-7403046Y-13333358D01*
X-7379500Y-13245486D01*
X-7379500Y-13201816D01*
X-7362219Y-13160097D01*
X-7320500Y-13142816D01*
X-7278781Y-13160097D01*
X-6472003Y-13966875D01*
X-6472000Y-13966879D01*
X-6468637Y-13970242D01*
X-6413642Y-14025237D01*
X-6362834Y-14046282D01*
X-6341788Y-14055000D01*
X-6341787Y-14055000D01*
X-3708049Y-14055000D01*
X-3666330Y-14072281D01*
X-3637142Y-14101469D01*
X-3558358Y-14146954D01*
X-3470486Y-14170500D01*
X-3470482Y-14170500D01*
X-3379518Y-14170500D01*
X-3379514Y-14170500D01*
X-3291642Y-14146954D01*
X-3212858Y-14101469D01*
X-3148531Y-14037142D01*
X-3103046Y-13958358D01*
X-3079500Y-13870486D01*
X-3079500Y-13779514D01*
X-3103046Y-13691642D01*
X-3148531Y-13612858D01*
X-3148533Y-13612856D01*
X-3148534Y-13612854D01*
X-3212855Y-13548533D01*
X-3238367Y-13533804D01*
X-3291642Y-13503046D01*
X-3291643Y-13503045D01*
X-3291644Y-13503045D01*
X-3326319Y-13493754D01*
X-3365374Y-13483289D01*
X-3401198Y-13455800D01*
X-3407092Y-13411030D01*
X-3379602Y-13375204D01*
X-3350102Y-13367300D01*
X738950Y-13367300D01*
X780669Y-13384581D01*
X844354Y-13448266D01*
X844356Y-13448267D01*
X844358Y-13448269D01*
X923142Y-13493754D01*
X1011014Y-13517300D01*
X1011018Y-13517300D01*
X1101982Y-13517300D01*
X1101986Y-13517300D01*
X1189858Y-13493754D01*
X1268642Y-13448269D01*
X1332969Y-13383942D01*
X1378454Y-13305158D01*
X1402000Y-13217286D01*
X1402000Y-13126314D01*
X1378454Y-13038442D01*
X1332969Y-12959658D01*
X1332967Y-12959656D01*
X1332966Y-12959654D01*
X1268645Y-12895333D01*
X1228817Y-12872339D01*
X1189858Y-12849846D01*
X1189857Y-12849845D01*
X1189856Y-12849845D01*
X1149076Y-12838918D01*
X1101986Y-12826300D01*
X1011014Y-12826300D01*
X987469Y-12832609D01*
X923143Y-12849845D01*
X844354Y-12895333D01*
X780669Y-12959019D01*
X738950Y-12976300D01*
X-5197284Y-12976300D01*
X-5239003Y-12959019D01*
X-6052355Y-12145666D01*
X-6090207Y-12107814D01*
X4336400Y-12107814D01*
X4336400Y-12198786D01*
X4343681Y-12225958D01*
X4356247Y-12272856D01*
X4359946Y-12286658D01*
X4405370Y-12365337D01*
X4405433Y-12365445D01*
X4469754Y-12429766D01*
X4469756Y-12429767D01*
X4469758Y-12429769D01*
X4548542Y-12475254D01*
X4636414Y-12498800D01*
X4636418Y-12498800D01*
X4727382Y-12498800D01*
X4727386Y-12498800D01*
X4815258Y-12475254D01*
X4894042Y-12429769D01*
X4958369Y-12365442D01*
X5003854Y-12286658D01*
X5027400Y-12198786D01*
X5027400Y-12107814D01*
X5023702Y-12094014D01*
X8404500Y-12094014D01*
X8404500Y-12184986D01*
X8408198Y-12198786D01*
X8425987Y-12265177D01*
X8428046Y-12272858D01*
X8470208Y-12345887D01*
X8473533Y-12351645D01*
X8537854Y-12415966D01*
X8537856Y-12415967D01*
X8537858Y-12415969D01*
X8616642Y-12461454D01*
X8704514Y-12485000D01*
X8704518Y-12485000D01*
X8795482Y-12485000D01*
X8795486Y-12485000D01*
X8883358Y-12461454D01*
X8962142Y-12415969D01*
X9026469Y-12351642D01*
X9071954Y-12272858D01*
X9095500Y-12184986D01*
X9095500Y-12094014D01*
X9071954Y-12006142D01*
X9026469Y-11927358D01*
X9026467Y-11927356D01*
X9026466Y-11927354D01*
X8962145Y-11863033D01*
X8950552Y-11856340D01*
X8883358Y-11817546D01*
X8883357Y-11817545D01*
X8883356Y-11817545D01*
X8842576Y-11806618D01*
X8795486Y-11794000D01*
X8704514Y-11794000D01*
X8680969Y-11800309D01*
X8616643Y-11817545D01*
X8537854Y-11863033D01*
X8473533Y-11927354D01*
X8428045Y-12006143D01*
X8413968Y-12058679D01*
X8404500Y-12094014D01*
X5023702Y-12094014D01*
X5003854Y-12019942D01*
X4958369Y-11941158D01*
X4958367Y-11941156D01*
X4958366Y-11941154D01*
X4894045Y-11876833D01*
X4877001Y-11866993D01*
X4815258Y-11831346D01*
X4815257Y-11831345D01*
X4815256Y-11831345D01*
X4774476Y-11820418D01*
X4727386Y-11807800D01*
X4636414Y-11807800D01*
X4612869Y-11814109D01*
X4548543Y-11831345D01*
X4469754Y-11876833D01*
X4405433Y-11941154D01*
X4359945Y-12019943D01*
X4342709Y-12084269D01*
X4336400Y-12107814D01*
X-6090207Y-12107814D01*
X-6618507Y-11579514D01*
X-2820500Y-11579514D01*
X-2820500Y-11670486D01*
X-2796954Y-11758358D01*
X-2760238Y-11821954D01*
X-2751467Y-11837145D01*
X-2687146Y-11901466D01*
X-2687144Y-11901467D01*
X-2687142Y-11901469D01*
X-2608358Y-11946954D01*
X-2520486Y-11970500D01*
X-2520482Y-11970500D01*
X-2429518Y-11970500D01*
X-2429514Y-11970500D01*
X-2341642Y-11946954D01*
X-2262858Y-11901469D01*
X-2198531Y-11837142D01*
X-2153046Y-11758358D01*
X-2129500Y-11670486D01*
X-2129500Y-11579514D01*
X-2153046Y-11491642D01*
X-2198531Y-11412858D01*
X-2198533Y-11412856D01*
X-2198534Y-11412854D01*
X-2262855Y-11348533D01*
X-2282589Y-11337140D01*
X-2295798Y-11329514D01*
X-270500Y-11329514D01*
X-270500Y-11420486D01*
X-263246Y-11447558D01*
X-250400Y-11495500D01*
X-246954Y-11508358D01*
X-205871Y-11579518D01*
X-201467Y-11587145D01*
X-137146Y-11651466D01*
X-137144Y-11651467D01*
X-137142Y-11651469D01*
X-58358Y-11696954D01*
X29514Y-11720500D01*
X29518Y-11720500D01*
X120482Y-11720500D01*
X120486Y-11720500D01*
X208358Y-11696954D01*
X287142Y-11651469D01*
X351469Y-11587142D01*
X396954Y-11508358D01*
X420500Y-11420486D01*
X420500Y-11329514D01*
X396954Y-11241642D01*
X351469Y-11162858D01*
X351467Y-11162856D01*
X351466Y-11162854D01*
X287145Y-11098533D01*
X283090Y-11096192D01*
X208358Y-11053046D01*
X208357Y-11053045D01*
X208356Y-11053045D01*
X160768Y-11040294D01*
X120486Y-11029500D01*
X29514Y-11029500D01*
X5969Y-11035809D01*
X-58357Y-11053045D01*
X-137146Y-11098533D01*
X-201467Y-11162854D01*
X-246955Y-11241643D01*
X-261129Y-11294542D01*
X-270500Y-11329514D01*
X-2295798Y-11329514D01*
X-2341642Y-11303046D01*
X-2341643Y-11303045D01*
X-2341644Y-11303045D01*
X-2382424Y-11292118D01*
X-2429514Y-11279500D01*
X-2520486Y-11279500D01*
X-2544031Y-11285809D01*
X-2608357Y-11303045D01*
X-2687146Y-11348533D01*
X-2751467Y-11412854D01*
X-2796955Y-11491643D01*
X-2811382Y-11545486D01*
X-2820500Y-11579514D01*
X-6618507Y-11579514D01*
X-6645117Y-11552904D01*
X-6662398Y-11511185D01*
X-6645117Y-11469466D01*
X-6618669Y-11454196D01*
X-6591642Y-11446954D01*
X-6512858Y-11401469D01*
X-6448531Y-11337142D01*
X-6440401Y-11323058D01*
X-6411879Y-11298046D01*
X-6403420Y-11294543D01*
X-6355457Y-11246580D01*
X-6329500Y-11183915D01*
X-6329500Y-11059573D01*
X-6312219Y-11017854D01*
X-6300004Y-11008480D01*
X-6287858Y-11001469D01*
X-6223531Y-10937142D01*
X-6178046Y-10858358D01*
X-6154500Y-10770486D01*
X-6154500Y-10679514D01*
X-6178046Y-10591642D01*
X-6223531Y-10512858D01*
X-6223533Y-10512856D01*
X-6223534Y-10512854D01*
X-6287855Y-10448533D01*
X-6346202Y-10414847D01*
X-6373692Y-10379022D01*
X-6367798Y-10334251D01*
X-6365482Y-10330562D01*
X-6362356Y-10325966D01*
X-6348531Y-10312142D01*
X-6344127Y-10304514D01*
X-2495500Y-10304514D01*
X-2495500Y-10395486D01*
X-2471954Y-10483358D01*
X-2454923Y-10512858D01*
X-2426467Y-10562145D01*
X-2362146Y-10626466D01*
X-2362144Y-10626467D01*
X-2362142Y-10626469D01*
X-2283358Y-10671954D01*
X-2195486Y-10695500D01*
X-2195482Y-10695500D01*
X-2104518Y-10695500D01*
X-2104514Y-10695500D01*
X-2016642Y-10671954D01*
X-1937858Y-10626469D01*
X-1873531Y-10562142D01*
X-1828046Y-10483358D01*
X-1804500Y-10395486D01*
X-1804500Y-10304514D01*
X-1828046Y-10216642D01*
X-1873531Y-10137858D01*
X-1873533Y-10137856D01*
X-1873534Y-10137854D01*
X-1937855Y-10073533D01*
X-1970791Y-10054518D01*
X-2016642Y-10028046D01*
X-2016643Y-10028045D01*
X-2016644Y-10028045D01*
X-2057424Y-10017118D01*
X-2104514Y-10004500D01*
X-2195486Y-10004500D01*
X-2219031Y-10010809D01*
X-2283357Y-10028045D01*
X-2362146Y-10073533D01*
X-2426467Y-10137854D01*
X-2471955Y-10216643D01*
X-2486055Y-10269265D01*
X-2495500Y-10304514D01*
X-6344127Y-10304514D01*
X-6303046Y-10233358D01*
X-6279500Y-10145486D01*
X-6279500Y-10054514D01*
X-6303046Y-9966642D01*
X-6348531Y-9887858D01*
X-6348533Y-9887856D01*
X-6348534Y-9887854D01*
X-6412855Y-9823533D01*
X-6491644Y-9778045D01*
X-6532424Y-9767118D01*
X-6579514Y-9754500D01*
X-6670486Y-9754500D01*
X-6694031Y-9760809D01*
X-6758357Y-9778045D01*
X-6837146Y-9823533D01*
X-6875081Y-9861469D01*
X-6916800Y-9878750D01*
X-6958519Y-9861469D01*
X-6975800Y-9819750D01*
X-6975800Y-9529514D01*
X-6345500Y-9529514D01*
X-6345500Y-9620486D01*
X-6332882Y-9667576D01*
X-6321955Y-9708356D01*
X-6276467Y-9787145D01*
X-6212146Y-9851466D01*
X-6212144Y-9851467D01*
X-6212142Y-9851469D01*
X-6133358Y-9896954D01*
X-6045486Y-9920500D01*
X-6045482Y-9920500D01*
X-5954518Y-9920500D01*
X-5954514Y-9920500D01*
X-5866642Y-9896954D01*
X-5787858Y-9851469D01*
X-5723531Y-9787142D01*
X-5678046Y-9708358D01*
X-5654500Y-9620486D01*
X-5654500Y-9579514D01*
X-820500Y-9579514D01*
X-820500Y-9670486D01*
X-810352Y-9708356D01*
X-796955Y-9758356D01*
X-751467Y-9837145D01*
X-687146Y-9901466D01*
X-687144Y-9901467D01*
X-687142Y-9901469D01*
X-608358Y-9946954D01*
X-520486Y-9970500D01*
X-520482Y-9970500D01*
X-429518Y-9970500D01*
X-429514Y-9970500D01*
X-341642Y-9946954D01*
X-262858Y-9901469D01*
X-198531Y-9837142D01*
X-153046Y-9758358D01*
X-131919Y-9679514D01*
X4500Y-9679514D01*
X4500Y-9770486D01*
X28046Y-9858358D01*
X63922Y-9920499D01*
X73533Y-9937145D01*
X137854Y-10001466D01*
X137856Y-10001467D01*
X137858Y-10001469D01*
X216642Y-10046954D01*
X304514Y-10070500D01*
X304518Y-10070500D01*
X395482Y-10070500D01*
X395486Y-10070500D01*
X483358Y-10046954D01*
X562142Y-10001469D01*
X626469Y-9937142D01*
X671954Y-9858358D01*
X695500Y-9770486D01*
X695500Y-9679514D01*
X671954Y-9591642D01*
X626469Y-9512858D01*
X626467Y-9512856D01*
X626466Y-9512854D01*
X562145Y-9448533D01*
X550209Y-9441642D01*
X483358Y-9403046D01*
X483357Y-9403045D01*
X483356Y-9403045D01*
X442576Y-9392118D01*
X395486Y-9379500D01*
X304514Y-9379500D01*
X280969Y-9385809D01*
X216643Y-9403045D01*
X137854Y-9448533D01*
X73533Y-9512854D01*
X28045Y-9591643D01*
X20317Y-9620486D01*
X4500Y-9679514D01*
X-131919Y-9679514D01*
X-129500Y-9670486D01*
X-129500Y-9579514D01*
X-153046Y-9491642D01*
X-198531Y-9412858D01*
X-198533Y-9412856D01*
X-198534Y-9412854D01*
X-262855Y-9348533D01*
X-341644Y-9303045D01*
X-382424Y-9292118D01*
X-429514Y-9279500D01*
X-520486Y-9279500D01*
X-544031Y-9285809D01*
X-608357Y-9303045D01*
X-687146Y-9348533D01*
X-751467Y-9412854D01*
X-796955Y-9491643D01*
X-807103Y-9529518D01*
X-820500Y-9579514D01*
X-5654500Y-9579514D01*
X-5654500Y-9529514D01*
X-5678046Y-9441642D01*
X-5723531Y-9362858D01*
X-5723533Y-9362856D01*
X-5723534Y-9362854D01*
X-5787855Y-9298533D01*
X-5820822Y-9279500D01*
X-5866642Y-9253046D01*
X-5866643Y-9253045D01*
X-5866644Y-9253045D01*
X-5907424Y-9242118D01*
X-5954514Y-9229500D01*
X-6045486Y-9229500D01*
X-6069031Y-9235809D01*
X-6133357Y-9253045D01*
X-6212146Y-9298533D01*
X-6276467Y-9362854D01*
X-6321955Y-9441643D01*
X-6335352Y-9491642D01*
X-6345500Y-9529514D01*
X-6975800Y-9529514D01*
X-6975800Y-9066360D01*
X-6958520Y-9024642D01*
X-6827964Y-8894085D01*
X-6786245Y-8876805D01*
X-6744526Y-8894086D01*
X-6687146Y-8951466D01*
X-6687144Y-8951467D01*
X-6687142Y-8951469D01*
X-6608358Y-8996954D01*
X-6520486Y-9020500D01*
X-6520482Y-9020500D01*
X-6429518Y-9020500D01*
X-6429514Y-9020500D01*
X-6341642Y-8996954D01*
X-6262858Y-8951469D01*
X-6215903Y-8904514D01*
X-2495500Y-8904514D01*
X-2495500Y-8995486D01*
X-2483057Y-9041923D01*
X-2471955Y-9083356D01*
X-2426467Y-9162145D01*
X-2362146Y-9226466D01*
X-2362144Y-9226467D01*
X-2362142Y-9226469D01*
X-2283358Y-9271954D01*
X-2195486Y-9295500D01*
X-2195482Y-9295500D01*
X-2104518Y-9295500D01*
X-2104514Y-9295500D01*
X-2016642Y-9271954D01*
X-1937858Y-9226469D01*
X-1873531Y-9162142D01*
X-1828046Y-9083358D01*
X-1804500Y-8995486D01*
X-1804500Y-8904514D01*
X-1828046Y-8816642D01*
X-1873531Y-8737858D01*
X-1873533Y-8737856D01*
X-1873534Y-8737854D01*
X-1937855Y-8673533D01*
X-1970822Y-8654500D01*
X-2016642Y-8628046D01*
X-2016643Y-8628045D01*
X-2016644Y-8628045D01*
X-2057424Y-8617118D01*
X-2104514Y-8604500D01*
X-2195486Y-8604500D01*
X-2219031Y-8610809D01*
X-2283357Y-8628045D01*
X-2362146Y-8673533D01*
X-2426467Y-8737854D01*
X-2471955Y-8816643D01*
X-2479030Y-8843048D01*
X-2495500Y-8904514D01*
X-6215903Y-8904514D01*
X-6198531Y-8887142D01*
X-6153046Y-8808358D01*
X-6129500Y-8720486D01*
X-6129500Y-8654500D01*
X-6112219Y-8612781D01*
X-6070500Y-8595500D01*
X-5691085Y-8595500D01*
X-5628420Y-8569543D01*
X-5628420Y-8569542D01*
X-5628418Y-8569542D01*
X-5623589Y-8566315D01*
X-5623581Y-8566327D01*
X-5614063Y-8559467D01*
X-5612194Y-8558532D01*
X-5578420Y-8544543D01*
X-5572627Y-8538748D01*
X-5564063Y-8534467D01*
X-5562713Y-8534370D01*
X-5560257Y-8532729D01*
X-5528420Y-8519543D01*
X-5435491Y-8426614D01*
X748300Y-8426614D01*
X748300Y-8517586D01*
X759522Y-8559467D01*
X771706Y-8604938D01*
X771846Y-8605458D01*
X811148Y-8673533D01*
X817333Y-8684245D01*
X881654Y-8748566D01*
X881656Y-8748567D01*
X881658Y-8748569D01*
X960442Y-8794054D01*
X1048314Y-8817600D01*
X1048318Y-8817600D01*
X1139282Y-8817600D01*
X1139286Y-8817600D01*
X1227158Y-8794054D01*
X1305942Y-8748569D01*
X1370269Y-8684242D01*
X1415754Y-8605458D01*
X1439300Y-8517586D01*
X1439300Y-8426614D01*
X1415754Y-8338742D01*
X1370269Y-8259958D01*
X1370267Y-8259956D01*
X1370266Y-8259954D01*
X1305945Y-8195633D01*
X1227156Y-8150145D01*
X1178628Y-8137142D01*
X1139286Y-8126600D01*
X1048314Y-8126600D01*
X1024769Y-8132909D01*
X960443Y-8150145D01*
X881654Y-8195633D01*
X817333Y-8259954D01*
X771845Y-8338743D01*
X765998Y-8360566D01*
X748300Y-8426614D01*
X-5435491Y-8426614D01*
X-4888392Y-7879514D01*
X-3570500Y-7879514D01*
X-3570500Y-7970486D01*
X-3557882Y-8017576D01*
X-3546955Y-8058356D01*
X-3501467Y-8137145D01*
X-3437146Y-8201466D01*
X-3437144Y-8201467D01*
X-3437142Y-8201469D01*
X-3358358Y-8246954D01*
X-3270486Y-8270500D01*
X-3270482Y-8270500D01*
X-3179518Y-8270500D01*
X-3179514Y-8270500D01*
X-3091642Y-8246954D01*
X-3012858Y-8201469D01*
X-2948531Y-8137142D01*
X-2903046Y-8058358D01*
X-2879500Y-7970486D01*
X-2879500Y-7879514D01*
X-2903046Y-7791642D01*
X-2948531Y-7712858D01*
X-2948533Y-7712856D01*
X-2948534Y-7712854D01*
X-3012855Y-7648533D01*
X-3018074Y-7645520D01*
X-3091642Y-7603046D01*
X-3091643Y-7603045D01*
X-3091644Y-7603045D01*
X-3132424Y-7592118D01*
X-3179514Y-7579500D01*
X-3270486Y-7579500D01*
X-3284891Y-7583360D01*
X-3358357Y-7603045D01*
X-3437146Y-7648533D01*
X-3501467Y-7712854D01*
X-3546955Y-7791643D01*
X-3554847Y-7821098D01*
X-3570500Y-7879514D01*
X-4888392Y-7879514D01*
X-4654396Y-7645517D01*
X-4639065Y-7634468D01*
X-4637194Y-7633532D01*
X-4603420Y-7619543D01*
X-4597628Y-7613749D01*
X-4589062Y-7609467D01*
X-4587712Y-7609371D01*
X-4585256Y-7607729D01*
X-4566570Y-7599990D01*
X-4543994Y-7595500D01*
X-4541085Y-7595500D01*
X-4478420Y-7569543D01*
X-4478420Y-7569542D01*
X-4478418Y-7569542D01*
X-4473589Y-7566315D01*
X-4473581Y-7566327D01*
X-4464063Y-7559467D01*
X-4462194Y-7558532D01*
X-4428420Y-7544543D01*
X-4422627Y-7538748D01*
X-4414063Y-7534467D01*
X-4412712Y-7534370D01*
X-4410254Y-7532729D01*
X-4402217Y-7529400D01*
X-4378420Y-7519543D01*
X-4378418Y-7519540D01*
X-4373589Y-7516315D01*
X-4373581Y-7516327D01*
X-4364063Y-7509467D01*
X-4362194Y-7508532D01*
X-4328420Y-7494543D01*
X-4322627Y-7488748D01*
X-4314063Y-7484467D01*
X-4312712Y-7484370D01*
X-4310256Y-7482729D01*
X-4291570Y-7474990D01*
X-4268994Y-7470500D01*
X-4266085Y-7470500D01*
X-4203420Y-7444543D01*
X-4203420Y-7444542D01*
X-4203418Y-7444542D01*
X-4198589Y-7441315D01*
X-4198581Y-7441327D01*
X-4189063Y-7434467D01*
X-4187194Y-7433532D01*
X-4153420Y-7419543D01*
X-4147627Y-7413748D01*
X-4139063Y-7409467D01*
X-4137712Y-7409370D01*
X-4135254Y-7407729D01*
X-4127495Y-7404515D01*
X-4103420Y-7394543D01*
X-4103418Y-7394540D01*
X-4098589Y-7391315D01*
X-4098439Y-7391539D01*
X-4085254Y-7382729D01*
X-4077217Y-7379400D01*
X-4053420Y-7369543D01*
X-4053418Y-7369540D01*
X-4048589Y-7366315D01*
X-4048439Y-7366539D01*
X-4035256Y-7357729D01*
X-4016570Y-7349990D01*
X-3993994Y-7345500D01*
X-3991085Y-7345500D01*
X-3928420Y-7319543D01*
X-3928420Y-7319542D01*
X-3928418Y-7319542D01*
X-3923589Y-7316315D01*
X-3923581Y-7316327D01*
X-3914063Y-7309467D01*
X-3912194Y-7308532D01*
X-3878420Y-7294543D01*
X-3872627Y-7288748D01*
X-3864063Y-7284467D01*
X-3862712Y-7284370D01*
X-3860254Y-7282729D01*
X-3849849Y-7278419D01*
X-3828420Y-7269543D01*
X-3828418Y-7269540D01*
X-3823589Y-7266315D01*
X-3823581Y-7266327D01*
X-3814063Y-7259467D01*
X-3812194Y-7258532D01*
X-3778420Y-7244543D01*
X-3772627Y-7238748D01*
X-3764063Y-7234467D01*
X-3762712Y-7234370D01*
X-3760256Y-7232729D01*
X-3741570Y-7224990D01*
X-3718994Y-7220500D01*
X-3716085Y-7220500D01*
X-3653420Y-7194543D01*
X-3653420Y-7194542D01*
X-3653418Y-7194542D01*
X-3648589Y-7191315D01*
X-3648581Y-7191327D01*
X-3639063Y-7184467D01*
X-3637194Y-7183532D01*
X-3603420Y-7169543D01*
X-3597627Y-7163748D01*
X-3589063Y-7159467D01*
X-3587713Y-7159370D01*
X-3585257Y-7157729D01*
X-3553420Y-7144543D01*
X-3530197Y-7121319D01*
X-3488481Y-7104040D01*
X-3446761Y-7121320D01*
X-3431490Y-7147769D01*
X-3422572Y-7181054D01*
X-3421954Y-7183358D01*
X-3381505Y-7253420D01*
X-3376467Y-7262145D01*
X-3312146Y-7326466D01*
X-3312144Y-7326467D01*
X-3312142Y-7326469D01*
X-3233358Y-7371954D01*
X-3145486Y-7395500D01*
X-3145482Y-7395500D01*
X-3054518Y-7395500D01*
X-3054514Y-7395500D01*
X-2966642Y-7371954D01*
X-2887858Y-7326469D01*
X-2823531Y-7262142D01*
X-2778046Y-7183358D01*
X-2754500Y-7095486D01*
X-2754500Y-7004514D01*
X-2778046Y-6916642D01*
X-2801391Y-6876207D01*
X-2803908Y-6857081D01*
X-2808705Y-6838390D01*
X-2806773Y-6835318D01*
X-2807283Y-6831438D01*
X-2785714Y-6799524D01*
X-2779890Y-6795151D01*
X-2778420Y-6794543D01*
X-2776439Y-6792560D01*
X-2773096Y-6790052D01*
X-2770038Y-6789266D01*
X-2760259Y-6782730D01*
X-2728420Y-6769543D01*
X-2728417Y-6769540D01*
X-2723589Y-6766315D01*
X-2723439Y-6766539D01*
X-2710254Y-6757729D01*
X-2704571Y-6755374D01*
X-2678420Y-6744543D01*
X-2678418Y-6744540D01*
X-2673589Y-6741315D01*
X-2673439Y-6741539D01*
X-2660256Y-6732729D01*
X-2641570Y-6724990D01*
X-2618994Y-6720500D01*
X-2616085Y-6720500D01*
X-2553420Y-6694543D01*
X-2553420Y-6694542D01*
X-2553418Y-6694542D01*
X-2548589Y-6691315D01*
X-2548581Y-6691327D01*
X-2539063Y-6684467D01*
X-2537194Y-6683532D01*
X-2503420Y-6669543D01*
X-2497627Y-6663748D01*
X-2489063Y-6659467D01*
X-2487712Y-6659370D01*
X-2485254Y-6657729D01*
X-2474786Y-6653393D01*
X-2453420Y-6644543D01*
X-2453418Y-6644540D01*
X-2448589Y-6641315D01*
X-2448439Y-6641539D01*
X-2435254Y-6632729D01*
X-2427058Y-6629334D01*
X-2403420Y-6619543D01*
X-2403418Y-6619540D01*
X-2398589Y-6616315D01*
X-2398439Y-6616539D01*
X-2385256Y-6607729D01*
X-2366570Y-6599990D01*
X-2343994Y-6595500D01*
X-2341085Y-6595500D01*
X-2278420Y-6569543D01*
X-2278420Y-6569542D01*
X-2278418Y-6569542D01*
X-2273589Y-6566315D01*
X-2273581Y-6566327D01*
X-2264063Y-6559467D01*
X-2262194Y-6558532D01*
X-2228420Y-6544543D01*
X-2222627Y-6538748D01*
X-2214063Y-6534467D01*
X-2212712Y-6534370D01*
X-2210254Y-6532729D01*
X-2204571Y-6530374D01*
X-2178420Y-6519543D01*
X-2178418Y-6519540D01*
X-2173589Y-6516315D01*
X-2173581Y-6516327D01*
X-2164063Y-6509467D01*
X-2162194Y-6508532D01*
X-2128420Y-6494543D01*
X-2122627Y-6488748D01*
X-2114063Y-6484467D01*
X-2112712Y-6484370D01*
X-2110256Y-6482729D01*
X-2092516Y-6475381D01*
X-2091570Y-6474990D01*
X-2068994Y-6470500D01*
X-2066085Y-6470500D01*
X-2003420Y-6444543D01*
X-2003420Y-6444542D01*
X-2003418Y-6444542D01*
X-1998589Y-6441315D01*
X-1998581Y-6441327D01*
X-1989063Y-6434467D01*
X-1987194Y-6433532D01*
X-1953420Y-6419543D01*
X-1947627Y-6413748D01*
X-1939063Y-6409467D01*
X-1937712Y-6409370D01*
X-1935254Y-6407729D01*
X-1927459Y-6404500D01*
X-1903420Y-6394543D01*
X-1903418Y-6394540D01*
X-1898589Y-6391315D01*
X-1898581Y-6391327D01*
X-1889063Y-6384467D01*
X-1887194Y-6383532D01*
X-1853420Y-6369543D01*
X-1847627Y-6363748D01*
X-1839063Y-6359467D01*
X-1837712Y-6359370D01*
X-1835256Y-6357729D01*
X-1816570Y-6349990D01*
X-1793994Y-6345500D01*
X-1791085Y-6345500D01*
X-1728420Y-6319543D01*
X-1728420Y-6319542D01*
X-1728418Y-6319542D01*
X-1723589Y-6316315D01*
X-1723581Y-6316327D01*
X-1714063Y-6309467D01*
X-1712194Y-6308532D01*
X-1678420Y-6294543D01*
X-1672627Y-6288748D01*
X-1664063Y-6284467D01*
X-1662712Y-6284370D01*
X-1660254Y-6282729D01*
X-1652459Y-6279500D01*
X-1628420Y-6269543D01*
X-1628418Y-6269540D01*
X-1623589Y-6266315D01*
X-1623581Y-6266327D01*
X-1614063Y-6259467D01*
X-1612194Y-6258532D01*
X-1578420Y-6244543D01*
X-1572627Y-6238748D01*
X-1564063Y-6234467D01*
X-1562712Y-6234370D01*
X-1560256Y-6232729D01*
X-1541570Y-6224990D01*
X-1518994Y-6220500D01*
X-1516085Y-6220500D01*
X-1453420Y-6194543D01*
X-1453420Y-6194542D01*
X-1453418Y-6194542D01*
X-1448589Y-6191315D01*
X-1448581Y-6191327D01*
X-1439063Y-6184467D01*
X-1437194Y-6183532D01*
X-1403420Y-6169543D01*
X-1397627Y-6163748D01*
X-1389063Y-6159467D01*
X-1387712Y-6159370D01*
X-1385254Y-6157729D01*
X-1365740Y-6149646D01*
X-1353420Y-6144543D01*
X-1353418Y-6144540D01*
X-1348589Y-6141315D01*
X-1348581Y-6141327D01*
X-1339063Y-6134467D01*
X-1337194Y-6133532D01*
X-1303420Y-6119543D01*
X-1297627Y-6113748D01*
X-1289063Y-6109467D01*
X-1287712Y-6109370D01*
X-1285256Y-6107729D01*
X-1266570Y-6099990D01*
X-1243994Y-6095500D01*
X-1241085Y-6095500D01*
X-1191572Y-6074990D01*
X-1168994Y-6070500D01*
X58915Y-6070500D01*
X108464Y-6049975D01*
X109212Y-6049673D01*
X119710Y-6045500D01*
X133915Y-6045500D01*
X196580Y-6019543D01*
X203901Y-6012221D01*
X246580Y-5994543D01*
X1286526Y-4954596D01*
X1305662Y-4941810D01*
X1346642Y-4924837D01*
X1401637Y-4869842D01*
X1431400Y-4797987D01*
X1431400Y-4545950D01*
X1448681Y-4504231D01*
X1512366Y-4440545D01*
X1512369Y-4440542D01*
X1557854Y-4361758D01*
X1569280Y-4319115D01*
X1596768Y-4283291D01*
X1641538Y-4277396D01*
X1667988Y-4292667D01*
X5094663Y-7719342D01*
X5149658Y-7774337D01*
X5170703Y-7783054D01*
X5221510Y-7804099D01*
X5221513Y-7804100D01*
X10054987Y-7804100D01*
X10126842Y-7774337D01*
X10613697Y-7287480D01*
X10655416Y-7270200D01*
X10745482Y-7270200D01*
X10745486Y-7270200D01*
X10833358Y-7246654D01*
X10912142Y-7201169D01*
X10976469Y-7136842D01*
X11021954Y-7058058D01*
X11045500Y-6970186D01*
X11045500Y-6879214D01*
X11021954Y-6791342D01*
X10976469Y-6712558D01*
X10976467Y-6712556D01*
X10976466Y-6712554D01*
X10912145Y-6648233D01*
X10911606Y-6647922D01*
X10833358Y-6602746D01*
X10833357Y-6602745D01*
X10833356Y-6602745D01*
X10791919Y-6591642D01*
X10745486Y-6579200D01*
X10654514Y-6579200D01*
X10639340Y-6583266D01*
X10566643Y-6602745D01*
X10487854Y-6648233D01*
X10423533Y-6712554D01*
X10378045Y-6791343D01*
X10364467Y-6842016D01*
X10355237Y-6876466D01*
X10354500Y-6879215D01*
X10354500Y-6969282D01*
X10337219Y-7011001D01*
X9952402Y-7395819D01*
X9910683Y-7413100D01*
X8514311Y-7413100D01*
X8472592Y-7395819D01*
X8455311Y-7354100D01*
X8457904Y-7336802D01*
X8459867Y-7330397D01*
X8467454Y-7317258D01*
X8491000Y-7229386D01*
X8491000Y-7228878D01*
X8492379Y-7224382D01*
X8506129Y-7207730D01*
X8519286Y-7190585D01*
X8520410Y-7190436D01*
X8521132Y-7189563D01*
X8542626Y-7187511D01*
X8564054Y-7184690D01*
X8574914Y-7187600D01*
X8574917Y-7187600D01*
X8665882Y-7187600D01*
X8665886Y-7187600D01*
X8753758Y-7164054D01*
X8832542Y-7118569D01*
X8896869Y-7054242D01*
X8942354Y-6975458D01*
X8965900Y-6887586D01*
X8965900Y-6796614D01*
X8942354Y-6708742D01*
X8896869Y-6629958D01*
X8896867Y-6629956D01*
X8896866Y-6629954D01*
X8832545Y-6565633D01*
X8826635Y-6562221D01*
X8753758Y-6520146D01*
X8753757Y-6520145D01*
X8753756Y-6520145D01*
X8710154Y-6508462D01*
X8665886Y-6496600D01*
X8574914Y-6496600D01*
X8551369Y-6502909D01*
X8487043Y-6520145D01*
X8408254Y-6565633D01*
X8343933Y-6629954D01*
X8298445Y-6708743D01*
X8284934Y-6759169D01*
X8276313Y-6791343D01*
X8274103Y-6799590D01*
X8246613Y-6835415D01*
X8201846Y-6841310D01*
X8190986Y-6838400D01*
X8100014Y-6838400D01*
X8079902Y-6843789D01*
X8029381Y-6857326D01*
X7984610Y-6851431D01*
X7957121Y-6815606D01*
X7963016Y-6770835D01*
X7984616Y-6749238D01*
X7986642Y-6748069D01*
X8050969Y-6683742D01*
X8096454Y-6604958D01*
X8120000Y-6517086D01*
X8120000Y-6426114D01*
X8096454Y-6338242D01*
X8050969Y-6259458D01*
X8050967Y-6259456D01*
X8050966Y-6259454D01*
X7986645Y-6195133D01*
X7985623Y-6194543D01*
X7907858Y-6149646D01*
X7907857Y-6149645D01*
X7907856Y-6149645D01*
X7861489Y-6137221D01*
X7819986Y-6126100D01*
X7729014Y-6126100D01*
X7712754Y-6130457D01*
X7641143Y-6149645D01*
X7562354Y-6195133D01*
X7498032Y-6259456D01*
X7495678Y-6262524D01*
X7493999Y-6261236D01*
X7463574Y-6284588D01*
X7448297Y-6286600D01*
X5508217Y-6286600D01*
X5466498Y-6269319D01*
X1516643Y-2319464D01*
X1516642Y-2319463D01*
X1516640Y-2319462D01*
X1444789Y-2289700D01*
X1444787Y-2289700D01*
X-2819361Y-2289700D01*
X-2861080Y-2272419D01*
X-2878361Y-2230700D01*
X-2861080Y-2188981D01*
X-2803544Y-2131444D01*
X-2803541Y-2131441D01*
X-2764638Y-2064059D01*
X-2744500Y-1988903D01*
X-2744500Y-1911097D01*
X-2764638Y-1835941D01*
X-2803541Y-1768559D01*
X-2803543Y-1768557D01*
X-2803544Y-1768555D01*
X-2858556Y-1713543D01*
X-2874188Y-1704518D01*
X-2925941Y-1674638D01*
X-2925942Y-1674637D01*
X-2925943Y-1674637D01*
X-2960823Y-1665291D01*
X-3001097Y-1654500D01*
X-3001099Y-1654500D01*
X-3029939Y-1654500D01*
X-3071658Y-1637219D01*
X-3281819Y-1427058D01*
X-3299100Y-1385339D01*
X-3299100Y-1378713D01*
X-3299101Y-1378710D01*
X-3323645Y-1319456D01*
X-3328863Y-1306858D01*
X-4384419Y-251302D01*
X-4401700Y-209583D01*
X-4401700Y1146284D01*
X-4384419Y1188003D01*
X-4342700Y1205284D01*
X-4313202Y1197380D01*
X-4292358Y1185346D01*
X-4204486Y1161800D01*
X-4204482Y1161800D01*
X-4114417Y1161800D01*
X-4072698Y1144519D01*
X-4030042Y1101863D01*
X-3996573Y1088000D01*
X-3958190Y1072101D01*
X-3958187Y1072100D01*
X-3880413Y1072100D01*
X-1426817Y1072100D01*
X-1385098Y1054819D01*
X3325519Y-3655798D01*
X3342800Y-3697517D01*
X3342800Y-3787586D01*
X3352887Y-3825231D01*
X3360187Y-3852475D01*
X3366346Y-3875458D01*
X3408078Y-3947742D01*
X3411833Y-3954245D01*
X3476154Y-4018566D01*
X3476156Y-4018567D01*
X3476158Y-4018569D01*
X3554942Y-4064054D01*
X3642814Y-4087600D01*
X3642818Y-4087600D01*
X3733782Y-4087600D01*
X3733786Y-4087600D01*
X3821658Y-4064054D01*
X3900442Y-4018569D01*
X3911028Y-4007982D01*
X3952745Y-3990699D01*
X3994465Y-4007977D01*
X4047954Y-4061466D01*
X4047956Y-4061467D01*
X4047958Y-4061469D01*
X4126742Y-4106954D01*
X4214614Y-4130500D01*
X4214618Y-4130500D01*
X4305582Y-4130500D01*
X4305586Y-4130500D01*
X4393458Y-4106954D01*
X4472242Y-4061469D01*
X4536569Y-3997142D01*
X4582054Y-3918358D01*
X4605600Y-3830486D01*
X4605600Y-3742714D01*
X5104500Y-3742714D01*
X5104500Y-3833686D01*
X5115693Y-3875456D01*
X5127188Y-3918358D01*
X5128046Y-3921558D01*
X5171685Y-3997145D01*
X5173533Y-4000345D01*
X5237854Y-4064666D01*
X5237856Y-4064667D01*
X5237858Y-4064669D01*
X5316642Y-4110154D01*
X5404514Y-4133700D01*
X5404518Y-4133700D01*
X5495482Y-4133700D01*
X5495486Y-4133700D01*
X5583358Y-4110154D01*
X5662142Y-4064669D01*
X5726469Y-4000342D01*
X5771954Y-3921558D01*
X5795500Y-3833686D01*
X5795500Y-3742714D01*
X5771954Y-3654842D01*
X5726469Y-3576058D01*
X5726467Y-3576056D01*
X5726466Y-3576054D01*
X5662145Y-3511733D01*
X5656602Y-3508533D01*
X5583358Y-3466246D01*
X5583357Y-3466245D01*
X5583356Y-3466245D01*
X5539944Y-3454613D01*
X5495486Y-3442700D01*
X5404514Y-3442700D01*
X5380969Y-3449009D01*
X5316643Y-3466245D01*
X5237854Y-3511733D01*
X5173533Y-3576054D01*
X5128045Y-3654843D01*
X5113281Y-3709945D01*
X5104500Y-3742714D01*
X4605600Y-3742714D01*
X4605600Y-3739514D01*
X4582054Y-3651642D01*
X4536569Y-3572858D01*
X4536567Y-3572856D01*
X4536566Y-3572854D01*
X4472245Y-3508533D01*
X4447147Y-3494043D01*
X4393458Y-3463046D01*
X4393457Y-3463045D01*
X4393456Y-3463045D01*
X4352676Y-3452118D01*
X4305586Y-3439500D01*
X4305584Y-3439500D01*
X4301748Y-3438995D01*
X4301947Y-3437483D01*
X4265097Y-3422219D01*
X3421954Y-2579076D01*
X3404673Y-2537357D01*
X3421954Y-2495638D01*
X3463673Y-2478357D01*
X3493170Y-2486260D01*
X3545642Y-2516554D01*
X3633514Y-2540100D01*
X3633518Y-2540100D01*
X3724482Y-2540100D01*
X3724486Y-2540100D01*
X3812358Y-2516554D01*
X3891142Y-2471069D01*
X3955469Y-2406742D01*
X4000954Y-2327958D01*
X4024500Y-2240086D01*
X4024500Y-2213600D01*
X4041781Y-2171881D01*
X4083500Y-2154600D01*
X4157882Y-2154600D01*
X4157886Y-2154600D01*
X4245758Y-2131054D01*
X4324542Y-2085569D01*
X4388869Y-2021242D01*
X4434354Y-1942458D01*
X4441870Y-1914406D01*
X4469360Y-1878582D01*
X4514130Y-1872687D01*
X4540579Y-1887958D01*
X7284009Y-4631388D01*
X7301290Y-4673107D01*
X7299280Y-4688377D01*
X7286585Y-4735757D01*
X7276200Y-4774514D01*
X7276200Y-4865486D01*
X7288818Y-4912576D01*
X7297854Y-4946300D01*
X7299746Y-4953358D01*
X7300462Y-4954599D01*
X7345233Y-5032145D01*
X7409554Y-5096466D01*
X7409556Y-5096467D01*
X7409558Y-5096469D01*
X7488342Y-5141954D01*
X7576214Y-5165500D01*
X7576218Y-5165500D01*
X7667182Y-5165500D01*
X7667186Y-5165500D01*
X7755058Y-5141954D01*
X7833842Y-5096469D01*
X7898169Y-5032142D01*
X7943654Y-4953358D01*
X7967200Y-4865486D01*
X7967200Y-4774514D01*
X7943654Y-4686642D01*
X7898169Y-4607858D01*
X7898167Y-4607856D01*
X7898166Y-4607854D01*
X7833845Y-4543533D01*
X7833538Y-4543356D01*
X7755058Y-4498046D01*
X7755057Y-4498045D01*
X7755056Y-4498045D01*
X7728320Y-4490881D01*
X7700065Y-4483310D01*
X7673619Y-4468040D01*
X5710093Y-2504514D01*
X6807800Y-2504514D01*
X6807800Y-2595486D01*
X6812454Y-2612854D01*
X6830633Y-2680700D01*
X6831346Y-2683358D01*
X6863874Y-2739700D01*
X6876833Y-2762145D01*
X6941154Y-2826466D01*
X6941156Y-2826467D01*
X6941158Y-2826469D01*
X7019942Y-2871954D01*
X7107814Y-2895500D01*
X7107818Y-2895500D01*
X7198782Y-2895500D01*
X7198786Y-2895500D01*
X7286658Y-2871954D01*
X7365442Y-2826469D01*
X7429769Y-2762142D01*
X7475254Y-2683358D01*
X7498800Y-2595486D01*
X7498800Y-2504514D01*
X7475254Y-2416642D01*
X7429769Y-2337858D01*
X7429767Y-2337856D01*
X7429766Y-2337854D01*
X7365445Y-2273533D01*
X7363515Y-2272419D01*
X7286658Y-2228046D01*
X7286657Y-2228045D01*
X7286656Y-2228045D01*
X7245876Y-2217118D01*
X7198786Y-2204500D01*
X7107814Y-2204500D01*
X7084269Y-2210809D01*
X7019943Y-2228045D01*
X6941154Y-2273533D01*
X6876833Y-2337854D01*
X6831345Y-2416643D01*
X6818939Y-2462944D01*
X6807800Y-2504514D01*
X5710093Y-2504514D01*
X2564798Y640781D01*
X2547517Y682500D01*
X2564798Y724219D01*
X2606517Y741500D01*
X5706860Y741500D01*
X5748579Y724219D01*
X5765860Y682500D01*
X5748579Y640781D01*
X5736362Y631407D01*
X5717852Y620719D01*
X5662854Y588967D01*
X5598533Y524646D01*
X5553045Y445857D01*
X5544179Y412767D01*
X5529500Y357986D01*
X5529500Y267014D01*
X5541469Y222348D01*
X5552338Y181782D01*
X5553046Y179142D01*
X5591337Y112818D01*
X5598533Y100355D01*
X5662854Y36034D01*
X5662856Y36033D01*
X5662858Y36031D01*
X5741642Y-9454D01*
X5829514Y-33000D01*
X5829518Y-33000D01*
X5920482Y-33000D01*
X5920486Y-33000D01*
X6008358Y-9454D01*
X6087142Y36031D01*
X6151469Y100358D01*
X6196954Y179142D01*
X6220500Y267014D01*
X6220500Y357986D01*
X6196954Y445858D01*
X6151469Y524642D01*
X6151467Y524644D01*
X6151466Y524646D01*
X6087145Y588967D01*
X6087142Y588969D01*
X6013639Y631405D01*
X5986151Y667229D01*
X5992044Y712000D01*
X6027869Y739489D01*
X6043140Y741500D01*
X6750287Y741500D01*
X6822142Y771263D01*
X7011498Y960619D01*
X7053217Y977900D01*
X7485610Y977900D01*
X7527329Y960619D01*
X7544610Y918900D01*
X7536706Y889401D01*
X7524846Y868859D01*
X7524845Y868858D01*
X7501300Y780985D01*
X7501300Y690918D01*
X7484019Y649199D01*
X5755967Y-1078851D01*
X5755958Y-1078863D01*
X5709262Y-1125559D01*
X5679500Y-1197410D01*
X5679500Y-1404550D01*
X5662219Y-1446269D01*
X5598533Y-1509954D01*
X5553045Y-1588743D01*
X5543246Y-1625314D01*
X5529500Y-1676614D01*
X5529500Y-1767586D01*
X5536976Y-1795486D01*
X5547816Y-1835942D01*
X5553046Y-1855458D01*
X5571809Y-1887958D01*
X5598533Y-1934245D01*
X5662854Y-1998566D01*
X5662856Y-1998567D01*
X5662858Y-1998569D01*
X5741642Y-2044054D01*
X5829514Y-2067600D01*
X5829518Y-2067600D01*
X5920482Y-2067600D01*
X5920486Y-2067600D01*
X6008358Y-2044054D01*
X6087142Y-1998569D01*
X6151469Y-1934242D01*
X6196954Y-1855458D01*
X6220500Y-1767586D01*
X6220500Y-1676614D01*
X6196954Y-1588742D01*
X6151469Y-1509958D01*
X6151467Y-1509956D01*
X6151466Y-1509954D01*
X6087781Y-1446269D01*
X6070500Y-1404550D01*
X6070500Y-1341715D01*
X6087780Y-1299997D01*
X6430363Y-957414D01*
X8951200Y-957414D01*
X8951200Y-1048386D01*
X8961130Y-1085445D01*
X8974450Y-1135156D01*
X8974746Y-1136258D01*
X9010051Y-1197410D01*
X9020233Y-1215045D01*
X9084554Y-1279366D01*
X9084556Y-1279367D01*
X9084558Y-1279369D01*
X9163342Y-1324854D01*
X9251214Y-1348400D01*
X9251218Y-1348400D01*
X9342182Y-1348400D01*
X9342186Y-1348400D01*
X9430058Y-1324854D01*
X9508842Y-1279369D01*
X9573169Y-1215042D01*
X9618654Y-1136258D01*
X9642200Y-1048386D01*
X9642200Y-957414D01*
X9618654Y-869542D01*
X9573169Y-790758D01*
X9573167Y-790756D01*
X9573166Y-790754D01*
X9508845Y-726433D01*
X9506936Y-725331D01*
X9430058Y-680946D01*
X9430057Y-680945D01*
X9430056Y-680945D01*
X9386294Y-669219D01*
X9342186Y-657400D01*
X9251214Y-657400D01*
X9227669Y-663709D01*
X9163343Y-680945D01*
X9084554Y-726433D01*
X9020233Y-790754D01*
X8974745Y-869543D01*
X8964004Y-909631D01*
X8951200Y-957414D01*
X6430363Y-957414D01*
X7760496Y372720D01*
X7802215Y390000D01*
X7892282Y390000D01*
X7892286Y390000D01*
X7980158Y413546D01*
X8058942Y459031D01*
X8123269Y523358D01*
X8168754Y602142D01*
X8192300Y690014D01*
X8192300Y780986D01*
X8168754Y868858D01*
X8156894Y889401D01*
X8151001Y934171D01*
X8178491Y969996D01*
X8207990Y977900D01*
X8430283Y977900D01*
X8472002Y960619D01*
X9188019Y244602D01*
X9205300Y202883D01*
X9205300Y112814D01*
X9211194Y90818D01*
X9225874Y36031D01*
X9228846Y24942D01*
X9269493Y-45463D01*
X9274333Y-53845D01*
X9338654Y-118166D01*
X9338656Y-118167D01*
X9338658Y-118169D01*
X9417442Y-163654D01*
X9505314Y-187200D01*
X9505318Y-187200D01*
X9596282Y-187200D01*
X9596286Y-187200D01*
X9684158Y-163654D01*
X9762942Y-118169D01*
X9827269Y-53842D01*
X9872754Y24942D01*
X9896300Y112814D01*
X9896300Y203786D01*
X9872754Y291658D01*
X9827269Y370442D01*
X9827267Y370444D01*
X9827266Y370446D01*
X9762945Y434767D01*
X9750763Y441800D01*
X9684158Y480254D01*
X9684157Y480255D01*
X9684156Y480255D01*
X9643376Y491182D01*
X9596286Y503800D01*
X9506217Y503800D01*
X9464498Y521081D01*
X8646443Y1339136D01*
X8646442Y1339137D01*
X8646440Y1339138D01*
X8574589Y1368900D01*
X8574587Y1368900D01*
X6986687Y1368900D01*
X6908913Y1368900D01*
X6908910Y1368900D01*
X6877078Y1355714D01*
X6831922Y1355714D01*
X6799991Y1387645D01*
X6797041Y1396828D01*
X6795500Y1403439D01*
X6795500Y1416186D01*
X6771954Y1504058D01*
X6767377Y1511986D01*
X9381900Y1511986D01*
X9381900Y1421014D01*
X9392610Y1381044D01*
X9405445Y1333144D01*
X9450933Y1254355D01*
X9515254Y1190034D01*
X9515256Y1190033D01*
X9515258Y1190031D01*
X9594042Y1144546D01*
X9681914Y1121000D01*
X9681918Y1121000D01*
X9772882Y1121000D01*
X9772886Y1121000D01*
X9860758Y1144546D01*
X9939542Y1190031D01*
X10003869Y1254358D01*
X10049354Y1333142D01*
X10072900Y1421014D01*
X10072900Y1511986D01*
X10049354Y1599858D01*
X10003869Y1678642D01*
X10003867Y1678644D01*
X10003866Y1678646D01*
X9939545Y1742967D01*
X9910702Y1759619D01*
X9860758Y1788454D01*
X9860757Y1788455D01*
X9860756Y1788455D01*
X9819976Y1799382D01*
X9772886Y1812000D01*
X9681914Y1812000D01*
X9658369Y1805691D01*
X9594043Y1788455D01*
X9515254Y1742967D01*
X9450933Y1678646D01*
X9405445Y1599857D01*
X9392514Y1551598D01*
X9381900Y1511986D01*
X6767377Y1511986D01*
X6726469Y1582842D01*
X6726467Y1582844D01*
X6726466Y1582846D01*
X6662145Y1647167D01*
X6661123Y1647757D01*
X6583358Y1692654D01*
X6583357Y1692655D01*
X6583356Y1692655D01*
X6542576Y1703582D01*
X6495486Y1716200D01*
X6404514Y1716200D01*
X6390878Y1712546D01*
X6316643Y1692655D01*
X6237854Y1647167D01*
X6173533Y1582846D01*
X6128045Y1504057D01*
X6118630Y1468918D01*
X6104500Y1416186D01*
X6104500Y1325214D01*
X6110651Y1302258D01*
X6128045Y1237343D01*
X6128046Y1237341D01*
X6137481Y1220999D01*
X6143374Y1176228D01*
X6115884Y1140404D01*
X6086385Y1132500D01*
X3798350Y1132500D01*
X3756631Y1149781D01*
X3739350Y1191500D01*
X3756631Y1233219D01*
X3761504Y1237493D01*
X3826266Y1302255D01*
X3826269Y1302258D01*
X3871754Y1381042D01*
X3895300Y1468914D01*
X3895300Y1559886D01*
X3871754Y1647758D01*
X3826269Y1726542D01*
X3826267Y1726544D01*
X3826266Y1726546D01*
X3761945Y1790867D01*
X3706880Y1822658D01*
X3683158Y1836354D01*
X3683157Y1836355D01*
X3683156Y1836355D01*
X3642376Y1847282D01*
X3595286Y1859900D01*
X3504314Y1859900D01*
X3480769Y1853591D01*
X3416443Y1836355D01*
X3337654Y1790867D01*
X3273333Y1726546D01*
X3227845Y1647757D01*
X3210609Y1583431D01*
X3204300Y1559886D01*
X3204300Y1468914D01*
X3205858Y1463100D01*
X3226076Y1387645D01*
X3227846Y1381042D01*
X3260076Y1325216D01*
X3273333Y1302255D01*
X3340392Y1235196D01*
X3339484Y1234289D01*
X3359744Y1199207D01*
X3348061Y1155588D01*
X3308957Y1133006D01*
X3301250Y1132500D01*
X2522517Y1132500D01*
X2480798Y1149781D01*
X1589242Y2041337D01*
X1578542Y2052037D01*
X1577030Y2052664D01*
X1572111Y2057226D01*
X1564499Y2073810D01*
X1560373Y2079986D01*
X2206800Y2079986D01*
X2206800Y1989014D01*
X2219012Y1943438D01*
X2230265Y1901442D01*
X2230346Y1901142D01*
X2232458Y1897483D01*
X2275833Y1822355D01*
X2340154Y1758034D01*
X2340156Y1758033D01*
X2340158Y1758031D01*
X2418942Y1712546D01*
X2506814Y1689000D01*
X2506818Y1689000D01*
X2597782Y1689000D01*
X2597786Y1689000D01*
X2685658Y1712546D01*
X2764442Y1758031D01*
X2828769Y1822358D01*
X2874254Y1901142D01*
X2897800Y1989014D01*
X2897800Y2079986D01*
X2874254Y2167858D01*
X2828769Y2246642D01*
X2828767Y2246644D01*
X2828766Y2246646D01*
X2764445Y2310967D01*
X2728537Y2331698D01*
X2685658Y2356454D01*
X2685657Y2356455D01*
X2685656Y2356455D01*
X2644876Y2367382D01*
X2597786Y2380000D01*
X2506814Y2380000D01*
X2483269Y2373691D01*
X2418943Y2356455D01*
X2340154Y2310967D01*
X2275833Y2246646D01*
X2230345Y2167857D01*
X2220892Y2132578D01*
X2206800Y2079986D01*
X1560373Y2079986D01*
X1554366Y2088978D01*
X1555325Y2093799D01*
X1553275Y2098266D01*
X1559618Y2115374D01*
X1563179Y2133266D01*
X1568787Y2140101D01*
X1568975Y2140606D01*
X1569340Y2140774D01*
X1570509Y2142199D01*
X1624869Y2196558D01*
X1670354Y2275342D01*
X1693900Y2363214D01*
X1693900Y2454186D01*
X1670354Y2542058D01*
X1661033Y2558202D01*
X1655140Y2602971D01*
X1682630Y2638796D01*
X1712130Y2646700D01*
X2043883Y2646700D01*
X2085602Y2629419D01*
X2176158Y2538863D01*
X2221469Y2520095D01*
X2248010Y2509101D01*
X2248013Y2509100D01*
X5389087Y2509100D01*
X5460942Y2538863D01*
X7032837Y4110758D01*
X7062600Y4182613D01*
X7062600Y4260388D01*
X7062600Y6946684D01*
X7079880Y6988402D01*
X7253597Y7162120D01*
X7295316Y7179400D01*
X7385382Y7179400D01*
X7385386Y7179400D01*
X7409964Y7185986D01*
X10654000Y7185986D01*
X10654000Y7095014D01*
X10677546Y7007142D01*
X10684245Y6995538D01*
X10723033Y6928355D01*
X10787354Y6864034D01*
X10787356Y6864033D01*
X10787358Y6864031D01*
X10866142Y6818546D01*
X10954014Y6795000D01*
X10954018Y6795000D01*
X11044982Y6795000D01*
X11044986Y6795000D01*
X11132858Y6818546D01*
X11211642Y6864031D01*
X11275969Y6928358D01*
X11321454Y7007142D01*
X11345000Y7095014D01*
X11345000Y7185986D01*
X11321454Y7273858D01*
X11275969Y7352642D01*
X11275967Y7352644D01*
X11275966Y7352646D01*
X11211645Y7416967D01*
X11132856Y7462455D01*
X11069564Y7479414D01*
X11044986Y7486000D01*
X10954014Y7486000D01*
X10932809Y7480318D01*
X10866143Y7462455D01*
X10787354Y7416967D01*
X10723033Y7352646D01*
X10677545Y7273857D01*
X10668727Y7240947D01*
X10654000Y7185986D01*
X7409964Y7185986D01*
X7473258Y7202946D01*
X7552042Y7248431D01*
X7616369Y7312758D01*
X7661854Y7391542D01*
X7685400Y7479414D01*
X7685400Y7570386D01*
X7661854Y7658258D01*
X7616369Y7737042D01*
X7616367Y7737044D01*
X7616366Y7737046D01*
X7552045Y7801367D01*
X7533773Y7811916D01*
X7473258Y7846854D01*
X7473257Y7846855D01*
X7473256Y7846855D01*
X7432476Y7857782D01*
X7385386Y7870400D01*
X7294414Y7870400D01*
X7270869Y7864091D01*
X7206543Y7846855D01*
X7127754Y7801367D01*
X7063433Y7737046D01*
X7017945Y7658257D01*
X7000709Y7593931D01*
X6997227Y7580934D01*
X6994400Y7570385D01*
X6994400Y7480318D01*
X6977119Y7438599D01*
X6756358Y7217837D01*
X6701364Y7162844D01*
X6701362Y7162841D01*
X6671600Y7090990D01*
X6671600Y6605517D01*
X6654319Y6563798D01*
X6612600Y6546517D01*
X6570881Y6563798D01*
X5101343Y8033336D01*
X5101342Y8033337D01*
X5101340Y8033338D01*
X5029489Y8063100D01*
X5029487Y8063100D01*
X3747817Y8063100D01*
X3706098Y8080381D01*
X3688817Y8122100D01*
X3706098Y8163819D01*
X4101588Y8559309D01*
X8049500Y8559309D01*
X8049500Y8440691D01*
X8062475Y8392267D01*
X8080200Y8326115D01*
X8080202Y8326112D01*
X8139510Y8223388D01*
X8139512Y8223385D01*
X8223385Y8139512D01*
X8223387Y8139511D01*
X8326114Y8080201D01*
X8440691Y8049500D01*
X8440695Y8049500D01*
X8559305Y8049500D01*
X8559309Y8049500D01*
X8673886Y8080201D01*
X8776613Y8139511D01*
X8776613Y8139512D01*
X8776615Y8139512D01*
X8860488Y8223385D01*
X8860489Y8223387D01*
X8874864Y8248286D01*
X10702700Y8248286D01*
X10702700Y8157314D01*
X10708983Y8133867D01*
X10723362Y8080203D01*
X10726246Y8069442D01*
X10771673Y7990758D01*
X10771733Y7990655D01*
X10836054Y7926334D01*
X10836056Y7926333D01*
X10836058Y7926331D01*
X10914842Y7880846D01*
X11002714Y7857300D01*
X11002718Y7857300D01*
X11093682Y7857300D01*
X11093686Y7857300D01*
X11181558Y7880846D01*
X11260342Y7926331D01*
X11324669Y7990658D01*
X11370154Y8069442D01*
X11393700Y8157314D01*
X11393700Y8248286D01*
X11370154Y8336158D01*
X11324669Y8414942D01*
X11324667Y8414944D01*
X11324666Y8414946D01*
X11260345Y8479267D01*
X11181556Y8524755D01*
X11140776Y8535682D01*
X11093686Y8548300D01*
X11002714Y8548300D01*
X10979169Y8541991D01*
X10914843Y8524755D01*
X10836054Y8479267D01*
X10771733Y8414946D01*
X10726245Y8336157D01*
X10717907Y8305038D01*
X10702700Y8248286D01*
X8874864Y8248286D01*
X8877939Y8253612D01*
X8894128Y8281650D01*
X8894129Y8281653D01*
X8919799Y8326114D01*
X8950500Y8440691D01*
X8950500Y8559309D01*
X8919799Y8673886D01*
X8860489Y8776613D01*
X8860488Y8776615D01*
X8776615Y8860488D01*
X8776612Y8860490D01*
X8673888Y8919798D01*
X8673885Y8919800D01*
X8606489Y8937858D01*
X8559309Y8950500D01*
X8440691Y8950500D01*
X8427935Y8947082D01*
X8326114Y8919800D01*
X8326111Y8919798D01*
X8223387Y8860490D01*
X8139510Y8776613D01*
X8080202Y8673889D01*
X8080200Y8673886D01*
X8067137Y8625131D01*
X8049500Y8559309D01*
X4101588Y8559309D01*
X4147174Y8604895D01*
X4370325Y8828046D01*
X4600329Y9058051D01*
X4642047Y9075331D01*
X4683766Y9058050D01*
X4699036Y9031603D01*
X4703044Y9016647D01*
X4703044Y9016645D01*
X4703045Y9016644D01*
X4703046Y9016642D01*
X4743203Y8947086D01*
X4748533Y8937855D01*
X4812854Y8873534D01*
X4812856Y8873533D01*
X4812858Y8873531D01*
X4891642Y8828046D01*
X4979514Y8804500D01*
X4979518Y8804500D01*
X5070482Y8804500D01*
X5070486Y8804500D01*
X5158358Y8828046D01*
X5237142Y8873531D01*
X5301469Y8937858D01*
X5346954Y9016642D01*
X5370500Y9104514D01*
X5370500Y9195486D01*
X5346954Y9283358D01*
X5307382Y9351901D01*
X5301489Y9396671D01*
X5328979Y9432496D01*
X5358478Y9440400D01*
X10809950Y9440400D01*
X10851669Y9423119D01*
X10915354Y9359434D01*
X10915356Y9359433D01*
X10915358Y9359431D01*
X10994142Y9313946D01*
X11082014Y9290400D01*
X11082018Y9290400D01*
X11172982Y9290400D01*
X11172986Y9290400D01*
X11260858Y9313946D01*
X11339642Y9359431D01*
X11403969Y9423758D01*
X11449454Y9502542D01*
X11473000Y9590414D01*
X11473000Y9681386D01*
X11449454Y9769258D01*
X11403969Y9848042D01*
X11403967Y9848044D01*
X11403966Y9848046D01*
X11339645Y9912367D01*
X11260856Y9957855D01*
X11220076Y9968782D01*
X11172986Y9981400D01*
X11082014Y9981400D01*
X11058469Y9975091D01*
X10994143Y9957855D01*
X10915354Y9912367D01*
X10851669Y9848681D01*
X10809950Y9831400D01*
X6704817Y9831400D01*
X6663098Y9848681D01*
X6645817Y9890400D01*
X6663098Y9932119D01*
X7576197Y10845219D01*
X7617916Y10862500D01*
X7707982Y10862500D01*
X7707986Y10862500D01*
X7795858Y10886046D01*
X7874642Y10931531D01*
X7938969Y10995858D01*
X7984454Y11074642D01*
X8008000Y11162514D01*
X8008000Y11242586D01*
X8992000Y11242586D01*
X8992000Y11151614D01*
X9000016Y11121699D01*
X9012624Y11074644D01*
X9015546Y11063742D01*
X9051896Y11000780D01*
X9061033Y10984955D01*
X9125354Y10920634D01*
X9125356Y10920633D01*
X9125358Y10920631D01*
X9204142Y10875146D01*
X9292014Y10851600D01*
X9292018Y10851600D01*
X9382982Y10851600D01*
X9382986Y10851600D01*
X9470858Y10875146D01*
X9549642Y10920631D01*
X9613969Y10984958D01*
X9659454Y11063742D01*
X9683000Y11151614D01*
X9683000Y11242586D01*
X9659454Y11330458D01*
X9613969Y11409242D01*
X9613967Y11409244D01*
X9613966Y11409246D01*
X9549645Y11473567D01*
X9539687Y11479316D01*
X9470858Y11519054D01*
X9470857Y11519055D01*
X9470856Y11519055D01*
X9430076Y11529982D01*
X9382986Y11542600D01*
X9292014Y11542600D01*
X9268469Y11536291D01*
X9204143Y11519055D01*
X9125354Y11473567D01*
X9061033Y11409246D01*
X9015545Y11330457D01*
X8999111Y11269125D01*
X8992000Y11242586D01*
X8008000Y11242586D01*
X8008000Y11253486D01*
X7984454Y11341358D01*
X7938969Y11420142D01*
X7938967Y11420144D01*
X7938966Y11420146D01*
X7874645Y11484467D01*
X7827307Y11511797D01*
X7795858Y11529954D01*
X7795857Y11529955D01*
X7795856Y11529955D01*
X7748664Y11542600D01*
X7707986Y11553500D01*
X7617014Y11553500D01*
X7593469Y11547191D01*
X7529143Y11529955D01*
X7450354Y11484467D01*
X7386033Y11420146D01*
X7340545Y11341357D01*
X7317000Y11253485D01*
X7317000Y11163418D01*
X7299719Y11121699D01*
X6363702Y10185681D01*
X6321983Y10168400D01*
X-5449457Y10168400D01*
X-5491176Y10185681D01*
X-5508457Y10227400D01*
X-5500554Y10256898D01*
X-5498046Y10261242D01*
X-5474500Y10349114D01*
X-5474500Y10440086D01*
X-5498046Y10527958D01*
X-5543531Y10606742D01*
X-5543533Y10606744D01*
X-5543534Y10606746D01*
X-5607855Y10671067D01*
X-5609622Y10672087D01*
X-5650151Y10695486D01*
X2797000Y10695486D01*
X2797000Y10604514D01*
X2799734Y10594311D01*
X2818987Y10522457D01*
X2820546Y10516642D01*
X2864745Y10440085D01*
X2866033Y10437855D01*
X2930354Y10373534D01*
X2930356Y10373533D01*
X2930358Y10373531D01*
X3009142Y10328046D01*
X3097014Y10304500D01*
X3097018Y10304500D01*
X3187982Y10304500D01*
X3187986Y10304500D01*
X3275858Y10328046D01*
X3354642Y10373531D01*
X3418969Y10437858D01*
X3464454Y10516642D01*
X3488000Y10604514D01*
X3488000Y10695486D01*
X3464454Y10783358D01*
X3418969Y10862142D01*
X3418967Y10862144D01*
X3418966Y10862146D01*
X3354645Y10926467D01*
X3275856Y10971955D01*
X3227328Y10984958D01*
X3187986Y10995500D01*
X3097014Y10995500D01*
X3073469Y10989191D01*
X3009143Y10971955D01*
X2930354Y10926467D01*
X2866033Y10862146D01*
X2820545Y10783357D01*
X2808557Y10738617D01*
X2797000Y10695486D01*
X-5650151Y10695486D01*
X-5686642Y10716554D01*
X-5686643Y10716555D01*
X-5686644Y10716555D01*
X-5727424Y10727482D01*
X-5774514Y10740100D01*
X-5865486Y10740100D01*
X-5871020Y10738617D01*
X-5953357Y10716555D01*
X-6032146Y10671067D01*
X-6096467Y10606746D01*
X-6141955Y10527957D01*
X-6159191Y10463631D01*
X-6165500Y10440086D01*
X-6165500Y10349114D01*
X-6155549Y10311976D01*
X-6141955Y10261243D01*
X-6139446Y10256898D01*
X-6133554Y10212127D01*
X-6161045Y10176303D01*
X-6190543Y10168400D01*
X-8571784Y10168400D01*
X-8613503Y10185681D01*
X-9124719Y10696898D01*
X-9142000Y10738617D01*
X-9142000Y10879550D01*
X-9124719Y10921269D01*
X-9061034Y10984955D01*
X-9061031Y10984958D01*
X-9015546Y11063742D01*
X-8992000Y11151614D01*
X-8992000Y11242586D01*
X-9015546Y11330458D01*
X-9061031Y11409242D01*
X-9061033Y11409244D01*
X-9061034Y11409246D01*
X-9125355Y11473567D01*
X-9135313Y11479316D01*
X-9204142Y11519054D01*
X-9204143Y11519055D01*
X-9204144Y11519055D01*
X-9244924Y11529982D01*
X-9292014Y11542600D01*
X-9382986Y11542600D01*
X-9406531Y11536291D01*
X-9470857Y11519055D01*
X-9549646Y11473567D01*
X-9613967Y11409246D01*
X-9659455Y11330457D01*
X-9675889Y11269125D01*
X-9683000Y11242586D01*
X-9683000Y11151614D01*
X-9674984Y11121699D01*
X-9662376Y11074644D01*
X-9659454Y11063742D01*
X-9623104Y11000780D01*
X-9613967Y10984955D01*
X-9550281Y10921269D01*
X-9533000Y10879550D01*
X-9533000Y10594311D01*
X-9503238Y10522460D01*
X-9503236Y10522457D01*
X-8846303Y9865525D01*
X-8846300Y9865521D01*
X-8842937Y9862158D01*
X-8787942Y9807163D01*
X-8742631Y9788395D01*
X-8716090Y9777401D01*
X-8716087Y9777400D01*
X-8638313Y9777400D01*
X4624283Y9777400D01*
X4666002Y9760119D01*
X4683283Y9718400D01*
X4666002Y9676681D01*
X3341402Y8352081D01*
X3299683Y8334800D01*
X-6312390Y8334800D01*
X-6384241Y8305038D01*
X-6384242Y8305037D01*
X-6469101Y8220180D01*
X-6510818Y8202900D01*
X-6600886Y8202900D01*
X-6619445Y8197927D01*
X-6688757Y8179355D01*
X-6767546Y8133867D01*
X-6831867Y8069546D01*
X-6877355Y7990757D01*
X-6877382Y7990655D01*
X-6900900Y7902886D01*
X-6900900Y7811914D01*
X-6888282Y7764824D01*
X-6877355Y7724044D01*
X-6831867Y7645255D01*
X-6767546Y7580934D01*
X-6767544Y7580933D01*
X-6767542Y7580931D01*
X-6688758Y7535446D01*
X-6600886Y7511900D01*
X-6600882Y7511900D01*
X-6509918Y7511900D01*
X-6509914Y7511900D01*
X-6422042Y7535446D01*
X-6343258Y7580931D01*
X-6278931Y7645258D01*
X-6233446Y7724042D01*
X-6209900Y7811914D01*
X-6209900Y7884800D01*
X-6192619Y7926519D01*
X-6150900Y7943800D01*
X-5834317Y7943800D01*
X-5792598Y7926519D01*
X-5775317Y7884800D01*
X-5792598Y7843081D01*
X-6593098Y7042581D01*
X-6634817Y7025300D01*
X-7651290Y7025300D01*
X-7723141Y6995538D01*
X-7723144Y6995536D01*
X-8311981Y6406699D01*
X-8353700Y6389418D01*
X-8395419Y6406699D01*
X-8410690Y6433149D01*
X-8416346Y6454258D01*
X-8461831Y6533042D01*
X-8461833Y6533044D01*
X-8461834Y6533046D01*
X-8526155Y6597367D01*
X-8541448Y6606196D01*
X-8604942Y6642854D01*
X-8604943Y6642855D01*
X-8604944Y6642855D01*
X-8645724Y6653782D01*
X-8692814Y6666400D01*
X-8783786Y6666400D01*
X-8807331Y6660091D01*
X-8871657Y6642855D01*
X-8950446Y6597367D01*
X-9014767Y6533046D01*
X-9060255Y6454257D01*
X-9071830Y6411058D01*
X-9083800Y6366386D01*
X-9083800Y6275414D01*
X-9080565Y6263342D01*
X-9062911Y6197455D01*
X-9060254Y6187542D01*
X-9019321Y6116642D01*
X-9014767Y6108755D01*
X-8950446Y6044434D01*
X-8950444Y6044433D01*
X-8950442Y6044431D01*
X-8871658Y5998946D01*
X-8850549Y5993290D01*
X-8814723Y5965801D01*
X-8808828Y5921031D01*
X-8824099Y5894581D01*
X-8917465Y5801215D01*
X-8959184Y5783934D01*
X-9000903Y5801215D01*
X-9044055Y5844367D01*
X-9122844Y5889855D01*
X-9177504Y5904501D01*
X-9210714Y5913400D01*
X-9301686Y5913400D01*
X-9325231Y5907091D01*
X-9389557Y5889855D01*
X-9468346Y5844367D01*
X-9532667Y5780046D01*
X-9578156Y5701256D01*
X-9578156Y5701254D01*
X-9579439Y5696467D01*
X-9606933Y5660645D01*
X-9651704Y5654756D01*
X-9678146Y5670025D01*
X-10113063Y6104942D01*
X-10130344Y6146661D01*
X-10128333Y6161932D01*
X-10121470Y6187542D01*
X-10109500Y6232214D01*
X-10109500Y6323186D01*
X-10133046Y6411058D01*
X-10178531Y6489842D01*
X-10178533Y6489844D01*
X-10178534Y6489846D01*
X-10242855Y6554167D01*
X-10259537Y6563798D01*
X-10321642Y6599654D01*
X-10321643Y6599655D01*
X-10321644Y6599655D01*
X-10362424Y6610582D01*
X-10409514Y6623200D01*
X-10500486Y6623200D01*
X-10524031Y6616891D01*
X-10588357Y6599655D01*
X-10667146Y6554167D01*
X-10731467Y6489846D01*
X-10776955Y6411057D01*
X-10789533Y6364114D01*
X-10800500Y6323186D01*
X-10800500Y6232214D01*
X-10791187Y6197458D01*
X-10777576Y6146661D01*
X-10776954Y6144342D01*
X-10736774Y6074746D01*
X-10731467Y6065555D01*
X-10667146Y6001234D01*
X-10667144Y6001233D01*
X-10667142Y6001231D01*
X-10588358Y5955746D01*
X-10505909Y5933654D01*
X-10479463Y5918384D01*
X-9085542Y4524463D01*
X-9066911Y4516746D01*
X-9013690Y4494701D01*
X-9013687Y4494700D01*
X-8935913Y4494700D01*
X-7777800Y4494700D01*
X-7736081Y4477419D01*
X-7718800Y4435700D01*
X-7718800Y1104850D01*
X-7736081Y1063131D01*
X-7799767Y999446D01*
X-7845255Y920657D01*
X-7859134Y868859D01*
X-7868800Y832786D01*
X-7868800Y741814D01*
X-7864085Y724219D01*
X-7845255Y653943D01*
X-7845253Y653940D01*
X-7839803Y644500D01*
X-7837793Y629230D01*
X-7831898Y615000D01*
X-7834949Y607635D01*
X-7833908Y599730D01*
X-7843286Y587510D01*
X-7849179Y573281D01*
X-7856545Y570231D01*
X-7861398Y563905D01*
X-7890898Y556000D01*
X-7959583Y556000D01*
X-8001302Y573281D01*
X-8352557Y924536D01*
X-8352558Y924537D01*
X-8352560Y924538D01*
X-8424411Y954300D01*
X-8424413Y954300D01*
X-10281250Y954300D01*
X-10322969Y971581D01*
X-10386655Y1035267D01*
X-10420521Y1054819D01*
X-10465442Y1080754D01*
X-10465443Y1080755D01*
X-10465444Y1080755D01*
X-10506224Y1091682D01*
X-10553314Y1104300D01*
X-10644286Y1104300D01*
X-10667831Y1097991D01*
X-10732157Y1080755D01*
X-10810946Y1035267D01*
X-10875267Y970946D01*
X-10920755Y892157D01*
X-10936664Y832782D01*
X-10944300Y804286D01*
X-11699500Y804286D01*
X-11699500Y8559309D01*
X-8950500Y8559309D01*
X-8950500Y8440691D01*
X-8937525Y8392267D01*
X-8919800Y8326115D01*
X-8919798Y8326112D01*
X-8860490Y8223388D01*
X-8860488Y8223385D01*
X-8776615Y8139512D01*
X-8776613Y8139511D01*
X-8673886Y8080201D01*
X-8559309Y8049500D01*
X-8559305Y8049500D01*
X-8440695Y8049500D01*
X-8440691Y8049500D01*
X-8326114Y8080201D01*
X-8223387Y8139511D01*
X-8223387Y8139512D01*
X-8223385Y8139512D01*
X-8139512Y8223385D01*
X-8139511Y8223387D01*
X-8080201Y8326114D01*
X-8049500Y8440691D01*
X-8049500Y8559309D01*
X-8080201Y8673886D01*
X-8139511Y8776613D01*
X-8139512Y8776615D01*
X-8223385Y8860488D01*
X-8223388Y8860490D01*
X-8291575Y8899858D01*
X-8326112Y8919798D01*
X-8326115Y8919800D01*
X-8393511Y8937858D01*
X-8427950Y8947086D01*
X-5478000Y8947086D01*
X-5478000Y8856114D01*
X-5454454Y8768242D01*
X-5414883Y8699701D01*
X-5408967Y8689455D01*
X-5344646Y8625134D01*
X-5344644Y8625133D01*
X-5344642Y8625131D01*
X-5265858Y8579646D01*
X-5177986Y8556100D01*
X-5177982Y8556100D01*
X-5087018Y8556100D01*
X-5087014Y8556100D01*
X-4999142Y8579646D01*
X-4920358Y8625131D01*
X-4856031Y8689458D01*
X-4810546Y8768242D01*
X-4787000Y8856114D01*
X-4787000Y8947086D01*
X-4810546Y9034958D01*
X-4842720Y9090686D01*
X2800300Y9090686D01*
X2800300Y8999714D01*
X2812918Y8952624D01*
X2821713Y8919799D01*
X2823846Y8911842D01*
X2853493Y8860490D01*
X2869333Y8833055D01*
X2933654Y8768734D01*
X2933656Y8768733D01*
X2933658Y8768731D01*
X3012442Y8723246D01*
X3100314Y8699700D01*
X3100318Y8699700D01*
X3191282Y8699700D01*
X3191286Y8699700D01*
X3279158Y8723246D01*
X3357942Y8768731D01*
X3422269Y8833058D01*
X3467754Y8911842D01*
X3491300Y8999714D01*
X3491300Y9090686D01*
X3467754Y9178558D01*
X3422269Y9257342D01*
X3422267Y9257344D01*
X3422266Y9257346D01*
X3357945Y9321667D01*
X3305577Y9351901D01*
X3279158Y9367154D01*
X3279157Y9367155D01*
X3279156Y9367155D01*
X3238376Y9378082D01*
X3191286Y9390700D01*
X3100314Y9390700D01*
X3076769Y9384391D01*
X3012443Y9367155D01*
X2933654Y9321667D01*
X2869333Y9257346D01*
X2823845Y9178557D01*
X2823714Y9178067D01*
X2800300Y9090686D01*
X-4842720Y9090686D01*
X-4856031Y9113742D01*
X-4856033Y9113744D01*
X-4856034Y9113746D01*
X-4920355Y9178067D01*
X-4921204Y9178557D01*
X-4999142Y9223554D01*
X-4999143Y9223555D01*
X-4999144Y9223555D01*
X-5039924Y9234482D01*
X-5087014Y9247100D01*
X-5177986Y9247100D01*
X-5201531Y9240791D01*
X-5265857Y9223555D01*
X-5344646Y9178067D01*
X-5408967Y9113746D01*
X-5454455Y9034957D01*
X-5463898Y8999714D01*
X-5478000Y8947086D01*
X-8427950Y8947086D01*
X-8440691Y8950500D01*
X-8559309Y8950500D01*
X-8572065Y8947082D01*
X-8673886Y8919800D01*
X-8673889Y8919798D01*
X-8776613Y8860490D01*
X-8860490Y8776613D01*
X-8919798Y8673889D01*
X-8919800Y8673886D01*
X-8932863Y8625131D01*
X-8950500Y8559309D01*
X-11699500Y8559309D01*
X-11699500Y10999267D01*
X-11699018Y11096315D01*
X-11699015Y11096648D01*
X-11697581Y11192702D01*
X-11697576Y11193008D01*
X-11695185Y11289187D01*
X-11691831Y11385534D01*
X-11691822Y11385770D01*
X-11687513Y11482015D01*
X-11682259Y11577995D01*
X-11682228Y11578502D01*
X-11679922Y11614136D01*
X-11676028Y11674319D01*
X-11676002Y11674691D01*
X-11668845Y11770500D01*
X-11668829Y11770698D01*
X-11660693Y11866742D01*
X-11657868Y11896567D01*
X-11636728Y11936469D01*
X-11599131Y11950000D01*
X6027578Y11950000D01*
X6034944Y11946949D01*
G37*
%TD.AperFunction*%
%TD*%
M02*
