%TF.GenerationSoftware,KiCad,Pcbnew,10.0.4*%
%TF.CreationDate,2026-09-08T05:47:24+05:45*%
%TF.ProjectId,aura-a03,61757261-2d61-4303-932e-6b696361645f,rev?*%
%TF.SameCoordinates,Original*%
%TF.FileFunction,Paste,Top*%
%TF.FilePolarity,Positive*%
%FSLAX46Y46*%
G04 Gerber Fmt 4.6, Leading zero omitted, Abs format (unit mm)*
G04 Created by KiCad (PCBNEW 10.0.4) date 2026-09-08 05:47:24*
%MOMM*%
%LPD*%
G01*
G04 APERTURE LIST*
%ADD10C,0.300000*%
%ADD11R,0.900000X0.950000*%
%ADD12R,1.600000X1.000000*%
%ADD13R,1.250000X0.350000*%
%ADD14R,0.500000X0.650000*%
%ADD15R,4.300000X3.400000*%
%ADD16R,0.640000X0.540000*%
%ADD17R,0.250000X0.775000*%
%ADD18R,1.200000X0.800000*%
%ADD19R,0.540000X0.640000*%
%ADD20R,0.950000X0.875000*%
%ADD21R,1.475000X0.600000*%
%ADD22R,0.560000X0.620000*%
%ADD23R,0.950000X0.900000*%
%ADD24R,0.600000X0.400000*%
%ADD25R,0.400000X0.600000*%
%ADD26R,0.620000X0.560000*%
%ADD27R,0.750000X0.200000*%
%ADD28R,0.900000X1.500000*%
%ADD29R,1.450000X1.000000*%
%ADD30R,0.725000X0.522000*%
%ADD31R,0.600000X0.450000*%
%ADD32R,0.600000X1.325000*%
%ADD33R,1.325000X0.600000*%
%ADD34R,0.900000X1.000000*%
%ADD35R,0.350000X1.500000*%
%ADD36R,0.500000X0.300000*%
G04 APERTURE END LIST*
%TO.C,MK1*%
D10*
X-9100000Y8780000D02*
G75*
G02*
X-8771239Y9104011I600000J-280000D01*
G01*
X-8780000Y7900000D02*
G75*
G02*
X-9104011Y8228761I280000J600000D01*
G01*
X-8220000Y9100000D02*
G75*
G02*
X-7896201Y8771710I-280000J-600000D01*
G01*
X-7900000Y8220000D02*
G75*
G02*
X-8228761Y7895989I-600001J280001D01*
G01*
%TO.C,MK2*%
X7900000Y8780000D02*
G75*
G02*
X8228761Y9104011I600000J-280000D01*
G01*
X8220000Y7900000D02*
G75*
G02*
X7895989Y8228761I280000J600000D01*
G01*
X8780000Y9100000D02*
G75*
G02*
X9103799Y8771710I-280000J-600000D01*
G01*
X9100000Y8220000D02*
G75*
G02*
X8771239Y7895989I-600001J280001D01*
G01*
%TD*%
D11*
%TO.C,C10*%
X1675000Y-10550000D03*
X125000Y-10550000D03*
%TD*%
D12*
%TO.C,SW1*%
X8300000Y-2700000D03*
X8300000Y-200000D03*
X8300000Y2300000D03*
X10700000Y-2700000D03*
X10700000Y-200000D03*
X10700000Y2300000D03*
%TD*%
D13*
%TO.C,U8*%
X6800000Y-5300000D03*
X6800000Y-5800000D03*
X6800000Y-6300000D03*
X6800000Y-6800000D03*
X9600000Y-6800000D03*
X9600000Y-6300000D03*
X9600000Y-5800000D03*
X9600000Y-5300000D03*
%TD*%
D14*
%TO.C,U2*%
X-10455000Y-550000D03*
X-9185000Y-550000D03*
X-7915000Y-550000D03*
X-6645000Y-550000D03*
X-6645000Y6950000D03*
X-7915000Y6950000D03*
X-9185000Y6950000D03*
X-10455000Y6950000D03*
D15*
X-8550000Y3200000D03*
%TD*%
D16*
%TO.C,R2*%
X-6050000Y-6560000D03*
X-6050000Y-5540000D03*
%TD*%
D17*
%TO.C,U5*%
X950000Y-2287500D03*
X1450000Y-2287500D03*
X1950000Y-2287500D03*
X2450000Y-2287500D03*
X2450000Y-312500D03*
X1950000Y-312500D03*
X1450000Y-312500D03*
X950000Y-312500D03*
D18*
X1700000Y-1300000D03*
%TD*%
D19*
%TO.C,R9*%
X6710000Y7950000D03*
X5690000Y7950000D03*
%TD*%
D20*
%TO.C,LED1*%
X0Y-1787500D03*
X0Y-212500D03*
%TD*%
D21*
%TO.C,Q1*%
X-3612500Y-4750000D03*
X-3612500Y-2850000D03*
X-5487500Y-3800000D03*
%TD*%
D22*
%TO.C,C5*%
X-11280000Y7950000D03*
X-10320000Y7950000D03*
%TD*%
%TO.C,C11*%
X1930000Y-3300000D03*
X970000Y-3300000D03*
%TD*%
D19*
%TO.C,R8*%
X-3040000Y-300000D03*
X-4060000Y-300000D03*
%TD*%
D16*
%TO.C,R1*%
X-3550000Y-6560000D03*
X-3550000Y-5540000D03*
%TD*%
%TO.C,R13*%
X10450000Y7690000D03*
X10450000Y8710000D03*
%TD*%
%TO.C,R15*%
X10450000Y10460000D03*
X10450000Y9440000D03*
%TD*%
D19*
%TO.C,R7*%
X-3040000Y-1400000D03*
X-4060000Y-1400000D03*
%TD*%
D16*
%TO.C,R22*%
X-8500000Y-13910000D03*
X-8500000Y-12890000D03*
%TD*%
%TO.C,R11*%
X-7800000Y-4310000D03*
X-7800000Y-3290000D03*
%TD*%
D23*
%TO.C,C12*%
X6700000Y-1575000D03*
X6700000Y-25000D03*
%TD*%
D24*
%TO.C,U1*%
X-4650000Y11750000D03*
X-4650000Y10650000D03*
X-4650000Y9850000D03*
X-4650000Y8250000D03*
X-3750000Y7850000D03*
X-4650000Y7450000D03*
X-3750000Y7050000D03*
X-4650000Y6650000D03*
X-3750000Y6250000D03*
X-4650000Y5850000D03*
X-3750000Y5450000D03*
X-4650000Y5050000D03*
X-3750000Y4650000D03*
X-4650000Y4250000D03*
D25*
X-4800000Y850000D03*
X-4000000Y850000D03*
X-3200000Y850000D03*
X-2400000Y850000D03*
X-2000000Y1750000D03*
X-1600000Y850000D03*
X-1200000Y1750000D03*
X-800000Y850000D03*
X-400000Y1750000D03*
X0Y850000D03*
X400000Y1750000D03*
X800000Y850000D03*
X1200000Y1750000D03*
X1600000Y850000D03*
X2000000Y1750000D03*
X2400000Y850000D03*
X3200000Y850000D03*
X4000000Y850000D03*
X4800000Y850000D03*
D24*
X4650000Y1850000D03*
X4650000Y2650000D03*
X3750000Y3050000D03*
X4650000Y3450000D03*
X3750000Y3850000D03*
X4650000Y4250000D03*
X3750000Y4650000D03*
X4650000Y5050000D03*
X3750000Y5450000D03*
X3750000Y6250000D03*
X4650000Y6650000D03*
X3750000Y7050000D03*
X4650000Y7450000D03*
X3750000Y7850000D03*
X4650000Y8250000D03*
X3750000Y8650000D03*
X3750000Y9450000D03*
X4650000Y9850000D03*
X3750000Y10250000D03*
X4650000Y10650000D03*
X3750000Y11050000D03*
X4650000Y11750000D03*
D25*
X-2000000Y7450000D03*
X-1200000Y7450000D03*
X-400000Y7450000D03*
X400000Y7450000D03*
X1200000Y7450000D03*
X2000000Y7450000D03*
%TD*%
D23*
%TO.C,C6*%
X-10550000Y8925000D03*
X-10550000Y10475000D03*
%TD*%
D19*
%TO.C,R18*%
X-8790000Y-2550000D03*
X-9810000Y-2550000D03*
%TD*%
D26*
%TO.C,C1*%
X-1050000Y-1280000D03*
X-1050000Y-320000D03*
%TD*%
D23*
%TO.C,C2*%
X-2050000Y-2075000D03*
X-2050000Y-525000D03*
%TD*%
D16*
%TO.C,R21*%
X-8050000Y-6060000D03*
X-8050000Y-5040000D03*
%TD*%
D23*
%TO.C,C7*%
X-1300000Y-9075000D03*
X-1300000Y-10625000D03*
%TD*%
D27*
%TO.C,U3*%
X-5150000Y-8750000D03*
X-5150000Y-9150000D03*
X-5150000Y-9550000D03*
X-5150000Y-9950000D03*
X-5150000Y-10350000D03*
X-2950000Y-10350000D03*
X-2950000Y-9950000D03*
X-2950000Y-9550000D03*
X-2950000Y-9150000D03*
X-2950000Y-8750000D03*
D28*
X-4050000Y-9550000D03*
%TD*%
D16*
%TO.C,R14*%
X-7050000Y-6060000D03*
X-7050000Y-5040000D03*
%TD*%
D29*
%TO.C,C9*%
X-4800000Y-7750000D03*
X-4800000Y-5850000D03*
%TD*%
D16*
%TO.C,R19*%
X-10800000Y-1790000D03*
X-10800000Y-2810000D03*
%TD*%
%TO.C,R23*%
X-8500000Y-10990000D03*
X-8500000Y-12010000D03*
%TD*%
D11*
%TO.C,C13*%
X3175000Y-6300000D03*
X4725000Y-6300000D03*
%TD*%
D19*
%TO.C,R20*%
X-8790000Y-3550000D03*
X-9810000Y-3550000D03*
%TD*%
D26*
%TO.C,C18*%
X-2050000Y-12820000D03*
X-2050000Y-13780000D03*
%TD*%
D30*
%TO.C,MK1*%
X-9337500Y10574000D03*
X-9337500Y9752000D03*
X-7662500Y9752000D03*
X-7662500Y10574000D03*
%TD*%
D16*
%TO.C,R4*%
X-6800000Y-2290000D03*
X-6800000Y-3310000D03*
%TD*%
D22*
%TO.C,C17*%
X-6030000Y-1800000D03*
X-5070000Y-1800000D03*
%TD*%
D31*
%TO.C,D2*%
X500000Y-15800000D03*
X-1600000Y-15800000D03*
%TD*%
D26*
%TO.C,C16*%
X10700000Y-6280000D03*
X10700000Y-5320000D03*
%TD*%
D16*
%TO.C,R3*%
X-5050000Y-290000D03*
X-5050000Y-1310000D03*
%TD*%
D30*
%TO.C,MK2*%
X7662500Y10574000D03*
X7662500Y9752000D03*
X9337500Y9752000D03*
X9337500Y10574000D03*
%TD*%
D19*
%TO.C,R10*%
X6710000Y10950000D03*
X5690000Y10950000D03*
%TD*%
D23*
%TO.C,C8*%
X-8000000Y-9825000D03*
X-8000000Y-8275000D03*
%TD*%
%TO.C,C14*%
X9950000Y6725000D03*
X9950000Y5175000D03*
%TD*%
D16*
%TO.C,R5*%
X-7800000Y-2560000D03*
X-7800000Y-1540000D03*
%TD*%
D19*
%TO.C,R17*%
X-8790000Y-1550000D03*
X-9810000Y-1550000D03*
%TD*%
D31*
%TO.C,D1*%
X-250000Y-9050000D03*
X1850000Y-9050000D03*
%TD*%
D32*
%TO.C,U4*%
X-1000000Y-14187500D03*
X-50000Y-14187500D03*
X900000Y-14187500D03*
X900000Y-11912500D03*
X-1000000Y-11912500D03*
%TD*%
D33*
%TO.C,U9*%
X-5687500Y-11350000D03*
X-5687500Y-12300000D03*
X-5687500Y-13250000D03*
X-3412500Y-13250000D03*
X-3412500Y-12300000D03*
X-3412500Y-11350000D03*
%TD*%
D16*
%TO.C,R6*%
X-5800000Y8960000D03*
X-5800000Y7940000D03*
%TD*%
D19*
%TO.C,R16*%
X-2310000Y-3050000D03*
X-1290000Y-3050000D03*
%TD*%
D23*
%TO.C,C15*%
X6450000Y2175000D03*
X6450000Y3725000D03*
%TD*%
D34*
%TO.C,SW2*%
X-2050000Y-5200000D03*
X2050000Y-5200000D03*
X-2050000Y-6800000D03*
X2050000Y-6800000D03*
%TD*%
D35*
%TO.C,U6*%
X3450000Y-4900000D03*
X3950000Y-4900000D03*
X4450000Y-4900000D03*
X4950000Y-4900000D03*
X5450000Y-4900000D03*
X5450000Y-700000D03*
X4950000Y-700000D03*
X4450000Y-700000D03*
X3950000Y-700000D03*
X3450000Y-700000D03*
%TD*%
D36*
%TO.C,C3*%
X-6550000Y10100000D03*
X-6550000Y10800000D03*
%TD*%
%TO.C,C4*%
X6450000Y9350000D03*
X6450000Y10050000D03*
%TD*%
D33*
%TO.C,U7*%
X8587500Y5000000D03*
X8587500Y5950000D03*
X8587500Y6900000D03*
X6312500Y6900000D03*
X6312500Y5000000D03*
%TD*%
M02*
